<?xml version="1.0" encoding="UTF-8"?><svg id="Layer_2" xmlns="http://www.w3.org/2000/svg" viewBox="0 0 536.04 485.89"><defs><style>.cls-1 {
  fill: #f9f7f4;
}

.cls-1, .cls-2, .cls-3, .cls-4, .cls-5, .cls-6, .cls-7, .cls-8, .cls-9, .cls-10, .cls-11 {
  fill-rule: evenodd;
}

.cls-2 {
  fill: #f5f4f4;
}

.cls-3 {
  fill: #fff;
}

.cls-4 {
  fill: #f3f3f2;
}

.cls-5 {
  fill: #687a8f;
}

.cls-6 {
  fill: #fdffff;
}

.cls-7 {
  fill: #f5f6f6;
}

.cls-8 {
  fill: #f9f9f9;
}

.cls-9 {
  fill: #fcfdfd;
}

.cls-10 {
  fill: #8fb0a9;
}

.cls-11 {
  fill: #fbfcfc;
}

</style></defs><g id="upward_lp"><g id="people"><polygon class="cls-8" points="110.14 240.08 234.7 186.81 536.04 339.12 316.34 485.89 21.91 281.5 110.14 240.08"></polygon><path class="cls-5" d="M124.93,235.78c2.58,4.86,3.86,9.66,4.41,14.65,.92,8.33,3.58,16.28,5.26,24.45,.94,4.59,1.54,9.26,2.93,13.87,7.17-.95,13.73-3.38,20.25-5.84,2.77-1.05,5.3-1.29,8.21-.48,7.53,2.07,15.1,3.99,22.47,6.58,4.98,1.75,9.7,4.03,14.15,6.85,.77,.49,1.82,.85,1.72,2.02-.1,1.15-1.12,1.37-2.01,1.69-1.1,.4-2.33,.54-3.17,1.51,.14,.98,.86,1.06,1.49,.86,5.59-1.81,11.16-3.66,16.28-6.67,4.14-2.43,8.68-1.09,13.07-.91,1.97,.08,3.95,.33,5.01,2.65,.75,1.64,2.74,1.48,4.29,1.68,2.33,.32,4.62,.51,5.29,3.4,.22,.95,1.12,.9,1.92,1.11,2.39,.62,3.5,2.1,3.37,4.25-.13,2.18-1.4,3.38-3.45,3.92-1.46,.38-3.31,.04-3.68,2.37-.16,.99-1.41,1.06-2.38,1.14-1.74,.15-3.47,.39-5.2,.68-5.12,.88-9.68,2.39-11.14,8.42,1.61,.73,3.61,.2,5.53,.3,3.37,.17,3.8,.45,4.12,3.61,.83,8.31,1.66,16.62,2.4,24.93,.34,3.82-.04,4.22-3.87,4.33-17.39,.5-34.7,2.21-52.05,3.28-2.42,.15-4.82,.5-7.24,.76-3.6,.39-3.82,.34-4.47-3.32-.65-3.7-1.01-7.46-1.51-11.28-2.39-.09-4.4,1.14-6.5,1.95-6.66,2.55-13.29,5.16-20.18,7.11-5.58,1.58-10.62,.67-15.59-1.87-.75-.38-1.57-.87-1.72-1.61-.51-2.51-2.62-3.58-4.23-5.11-3.48-3.3-5.91-7.32-8.02-11.57-.71-1.42-1.39-2.85-2.45-5.01-1.24,4.43-.64,8.24-1.51,11.85-.2,.85,.53,.85,1.15,1.15,2.94,1.39,3.07,4.04,.26,5.67-4.9,2.85-10.3,3.83-15.9,3.99-8.92,.25-17.78-.54-26.6-1.75-12.3-1.69-24.41-4.22-36.02-8.79-.37-.15-.76-.26-1.14-.42-2.73-1.13-5.81-1.8-8.1-3.52-2.37-1.77-2.02-5.31-3.18-7.98-2.05-4.7-4.36-9.27-6.81-13.76-5.61-10.26-7.96-21.38-9.02-32.87-1.17-12.63-1.97-25.27-.95-37.95,.22-2.68,.37-5.39,.86-8.03,1.24-6.77,.96-13.7,2.4-20.44,1.58-7.4,3.8-14.59,7.13-21.4,1.82-3.72,4.78-5.86,8.98-5.69,5.97,.23,11.84-.62,17.72-1.29,2.53-.29,5.06-.17,7.88-.28-.25-3.26-.12-6.26-.89-9.31-1.03-4.05-1.21-8.26-1.21-12.45,0-8.5-.08-16.99,0-25.49,.12-12.25,4.71-22.16,14.11-30.45,10.92-9.62,23.27-15.34,37.47-17.6,3.36-.53,6.72-.45,10.08-.56,1.59-.05,3.22,.32,4.9-.38-.4-3.75-.81-7.47-1.19-11.21-.7-6.83-2.1-13.55-3.13-20.33-.97-6.42-.84-12.84,.8-19.17,.17-.66,.5-1.37-.26-1.77-2.49-1.3-1.5-3.17-.74-4.85,2.49-5.5,6.21-9.66,12.31-11.39,6.53-1.85,13.05-3.53,19.85-1.82,1.66,.42,2.83-.26,4.18-.81,6.07-2.49,11.83-2.09,17.17,1.95,.11,.08,.26,.13,.32,.24,2.45,4.03,6.91,6.07,9.66,9.8,1.11,1.51,1.66,2.6,.92,4.94-1.38,4.35-2.06,9.08,.11,13.69,1.74,3.69,2.55,7.51,1.33,11.73-.74,2.54-.18,5.3,1.45,8.05,1.48-1.86,1.04-3.64,.58-5.34-.32-1.15-.62-2.26,.82-2.61,1.61-.39,2.07,.79,2.16,2.12,.14,2.02,.27,4.03,.35,6.05,.04,1-.28,2.21-1.29,2.24-2.84,.08-1.84,1.85-1.71,3.33,.58,6.57-1.06,12.84-2.62,19.12-.23,.91-.45,1.83-.76,2.72-.57,1.67-.21,2.75,1.74,2.58,1.89-.17,3.4,.7,4.96,1.47,6.05,2.96,12.23,5.65,18.57,7.91,3.69,1.31,6.64,3.01,8.35,6.93,1.04,2.37,3.27,4.28,4.03,6.91,3.39,11.65,10.28,21.96,12.88,33.93,1.68,7.76,3.34,15.53,4.65,23.36,.18,1.07,.34,2.11,.84,3.1,.73,1.44,1.93,2.34,3.16,1.12,1.98-1.96,3.53-1.09,5.29,.09,.5,.34,1.16,.44,1.69,.63-1.85-15.85-1.01-31.58-.7-47.3,.08-4.18,.45-8.35,.46-12.53,0-3.27,.66-6.38,1.39-9.54,.66-2.87,2.13-4.87,4.66-6.22,5.59-2.98,11.17-5.96,16.76-8.94,.83-.44,2.02-.67,2.44-1.36,2.76-4.54,7.55-5.25,12-6.58,2.54-.76,5.24-1.08,6.36-4.14,.42-1.17,1.89-1.38,3.24-1.91-.82-3.17-1.1-6.44-3.13-9.31-1.32-1.86-1.4-4.32-1.83-6.56-.37-1.89-1.05-3.23-3.15-4.16-6.9-3.05-8.79-11.1-4.28-17.22,.48-.66,.9-1.08,.75-2.07-.7-4.74-1.5-9.48-1.75-14.25-.33-6.11,.79-12.05,3.35-17.69,2.49-5.48,6.92-8.78,12.13-11.35,2.24-1.11,5.23-1.3,5.96-4.59,.19-.89,1.58-.95,2.48-1.13,4.03-.86,8.09-.85,11.94,.68,3.73,1.48,7.37,3.21,10.94,5.05,2.37,1.22,5.06,2.47,3.41,6.13-.41,.91,.56,1.73,1.08,2.47,5.16,7.31,6.49,15.55,5.88,24.24-.21,3-1.23,5.79-2.61,8.43-.49,.93-.58,1.48,.2,2.43,3.84,4.72,4.16,8.96,.12,13.4-2.88,3.17-4.15,6.35-3.65,10.47,.11,.9,.02,1.98-.38,2.76-1.3,2.51-.84,5.26-1.34,7.86-.72,3.8,1.38,6.67,2.44,9.9,.33,1.02,1.29,1.32,2.11,1.75,1.67,.88,3.35,1.74,5.03,2.59,1.47,.74,2.74,1.69,3.61,3.13,1.63,2.72,3.93,4.73,6.68,6.27,8.38,4.68,15.68,10.96,23.76,16.08,2.23,1.41,2.43,3.77,2.78,6.01,.37,2.34-.22,4.86,1.54,6.95,.35,.42,.19,1.3,.22,1.97,.73,19.04-.38,37.96-2.97,56.85-1.54,11.24-4.41,22.17-6.48,33.28-.69,3.7-2.05,6.49-5,8.67-1.87,1.39-3.18,3.26-4.32,5.59,2.27,1.14,4.59,2.18,6.77,3.46,1.56,.91,2.36,.41,3.26-.91,1.29-1.9,2.75-3.68,4.54-5.14,.67-.54,1.09-1.16,1.28-1.97,.74-3.12,2.95-5.13,5.46-6.74,1.5-.97,2.2-2.15,2.61-3.81,2.75-11.1,6.38-21.98,8.67-33.21,.81-3.94,2.3-7.73,3.8-11.49,1.12-2.81,3-4.61,5.83-5.75,4.99-2.01,9.85-4.35,14.6-6.91,1.47-.79,2.7-1.66,3.63-3.04,.91-1.33,1.79-2.82,3.26-3.54,2.9-1.43,2.96-3.9,2.74-6.53-.11-1.36-.74-2.58-1.34-3.78-2.47-4.94-3.08-5.16-8.47-3.84-3.13,.77-6.13,2.04-9.41,2.25-3.9,.24-7.06-.62-7.83-5.96-.87-5.97-2.47-11.84-3.69-17.76-.21-.99-.56-1.78-1.42-2.31-.46-.28-.94-.52-1.4-.81-5.91-3.77-5.99-4.13-2.24-9.78,.89-1.35,1.69-2.76,2.53-4.14,1.62-2.64,2.74-5.31,.61-8.25-.68-.95-.5-2.09-.35-3.14,1.02-7.22,2.57-14.31,5.49-21.04,1.78-4.12,4.7-7.3,8.68-9.14,11.08-5.14,22.68-6.6,34.67-4.03,7.17,1.54,12.25,5.91,15.8,12.22,2.06,3.66,3.46,7.59,4.77,11.56,.64,1.93,1.6,2.88,3.81,2.29,4.53-1.2,7.95,.67,10.34,4.42,3.99,6.25,5.94,13.24,6.68,20.54,.37,3.71-1.38,6.51-4.74,8.2-3.41,1.72-7.02,2.75-10.87,2.79-1.49,.01-3.1,.1-4.29-.87-2.08-1.69-3.04-.45-4.53,1-2.56,2.49-3.09,5.01-1.87,8.33,1.67,4.55,3.28,9.12,5.44,13.47,.54,1.1,1.46,1.53,2.5,2.17,4.24,2.62,9.44,4.44,10.73,10.19,.37,1.66,1.58,2.34,2.94,3.03,5.29,2.69,10.88,4.68,16.37,6.9,4.74,1.92,9.55,3.71,14.18,5.88,7.38,3.45,9.42,6.72,8.02,14.77-1.14,6.55-1.52,13.13-1.85,19.7-1.06,21.38-5.17,42.2-10.85,62.77-2.33,8.43-4.65,16.87-6.87,25.33-.86,3.27-2.14,6.3-4.39,9.27,3.08,1.57,5.92,3.03,8.78,4.47,.72,.36,1.48,.66,2.2,1.01,.99,.48,1.51,1.25,.91,2.27-.47,.8-1.33,.79-2.14,.39-3.14-1.55-6.32-3.03-9.39-4.71-1.9-1.04-3.62-1.22-5.74-.51-4.21,1.41-8.56,2.37-12.81,3.65-8.01,2.4-15.9,1.66-23.92-.22-9.95-2.32-20.01-4.16-30.03-6.19-.91-.19-1.84-.21-2.59,.4-.11,1.11,.72,1.18,1.27,1.34,10.07,2.9,17.89,9.17,24.89,16.64,4.34,4.64,8.07,9.76,11.51,15.09,1.22,1.89,2.37,3.87,4.87,4.57,1.5,.42,1.63,1.71,.68,2.89-1.18,1.47-2.51,2.81-3.71,4.27-11.61,14.2-23.2,28.41-34.8,42.62-.51,.63-1.01,1.27-1.55,1.87-1.88,2.08-2.21,2.06-3.99-.03-.42-.5-.6-1.23-1.79-1.51-1.1,1.37-2.31,2.92-3.55,4.44-2.26,2.76-2.97,2.74-5.13-.16-6.06-8.15-12.85-15.63-20.52-22.27-3.56-3.08-7.36-5.9-11.17-8.69-5.23-3.84-11.35-5.44-17.6-6.69-2.88-.58-5.92-.51-8.59-2.01-.82-.45-2.08-.76-1.92-1.8,.39-2.6-1.56-3.22-3.15-4.07-9.64-5.11-19.59-9.57-29.54-14.04-4.01-1.8-8.3-2.24-12.65-2.13-.94,.02-1.89,.09-2.83,.12-.93,.03-1.99,.22-2.49-.82-.6-1.24,.41-1.97,1.1-2.77,1.37-1.58,3.62-2.3,4.63-4.56-1.37-.34-2.53-.58-3.66-.94-1.81-.57-2.14-1.56-.76-2.84,1.77-1.64,3.48-3.33,5.58-4.63,17.13-10.57,31.91-23.87,44.91-39.18,1.13-1.33,2.08-2.82,3.08-4.26,1.53-2.2,1.52-2.21,4.67-2.02,.58-10.48,4.87-19.67,9.98-28.6-.63-1.16-1.91-1.42-2.96-1.94-26.98-13.49-53.98-26.96-80.97-40.42-12.14-6.05-24.29-12.1-36.43-18.16-1.57-.79-3.09-1.8-4.93-.07,.94,2.77,3.69,4.77,3.87,8.06,.06,1.04,1.69,1.17,2.65,1.6,6.38,2.89,12.82,5.65,19.15,8.63,9.84,4.62,18.83,10.49,26.28,18.52,.64,.69,1.54,1.27,1.88,2.09,1.9,4.48,5.52,6.4,9.96,7.88,5.85,1.96,11.42,4.78,17.14,7.15,2.45,1.02,3.82,3.33,6.03,4.65,2.77,1.66,5.4,3.56,7.98,5.51,3.86,2.94,4.21,4.31,2.68,8.95-.12,.38-.48,.92-.35,1.1,2.78,3.6-1.33,4.76-2.5,6.9-.39,.71-1.6,1.5-2.33,1.4-2.92-.38-5.86,1.12-8.83-.66-2.87-1.72-6.01-3.04-8.71-5.07-.94-.71-1.69-1.07-2.8-.18-1.09,.88-2.57,.64-3.9,.76-4.49,.38-8.78-.95-13.15-1.55-2-.27-3.02-2.12-4.35-3.45-1.78-1.78-2.97-4.17-5.53-5.19-1.2-.48-2.08-1.3-3.65-1.1-1.32,.17-2.81-.74-4.19-1.27-10.73-4.09-20.9-9.3-30.71-15.24-3.69-2.23-7.51-4.25-11.22-6.42-1.62-.95-3.24-1.95-4.69-3.14-2.03-1.66-4.23-2.78-6.81-3.3-3.18-.63-5.51-2.39-7.28-5.24-3.4-5.5-7-10.86-8.36-17.73-24.65,10.81-48.86,21.43-73.17,32.1Z"></path><path class="cls-5" d="M261.21,261.43c-.07,1.1-.9,1.39-1.58,1.78-2.67,1.56-5.31,3.21-8.05,4.64-8.95,4.69-17.76,9.63-26.19,15.21-2.32,1.53-4.13,1.69-6.56,.17-17.01-10.65-34.95-19.71-51.86-30.54-1.13-.72-2.4-1.21-3.59-1.83-1.95-1.01-2.12-2.04-.66-3.71,.75-.86,1.81-1.17,2.76-1.64,11.11-5.48,22.24-10.91,33.34-16.39,1.79-.89,3.74-1.5,5.25-2.96,1-.96,2.09-.95,3.16,.18,3.26,3.46,7.35,5.87,11.25,8.49,8.17,5.49,16.74,10.29,25.62,14.55,5.24,2.51,10.27,5.36,14.8,9.02,1.03,.83,2.22,1.59,2.31,3.02Z"></path><path class="cls-10" d="M151.84,313.48c11.77-2.08,22.9-6.71,34.59-9.33,1.83-.41,3.09-.21,4.36,1.01,1.65,1.59,3.42,3.06,5.02,4.69,2.95,3.01,4.51,6.71,4.73,10.88,.21,3.9,.16,7.8-.35,11.7-.23,1.79-.97,2.39-2.64,2.9-7.47,2.29-15,4.32-22.67,5.83-7.16,1.41-13.99,3.93-20.71,6.73-5.23,2.17-10.65,3.77-16.09,5.31-4.27,1.21-7.94-.12-11.64-1.83-.35-.16-.91-.43-.93-.69-.38-3.63-3.87-4.59-5.86-6.81-2-2.24-3.68-4.64-5.08-7.26-10.77-19.99-19.52-40.8-25.26-62.81-.41-1.56-.88-3.11-1.41-4.64-.34-1.01-.76-2.25-2.19-1.63-1.07,.46-.86,1.47-.57,2.45,1.4,4.78,2.63,9.61,4.12,14.36,3.6,11.44,7.55,22.79,12.88,33.52,2.74,5.53,3.19,10.97,2.59,16.8-.28,2.68-.56,5.36-.79,8.04-.25,2.82-.23,2.82,3.36,3.34-3.38,2.55-7.01,3.22-10.68,3.84-6.88,1.15-13.74,.33-20.57-.26-13.72-1.19-27.23-3.52-40.34-7.89-3.84-1.28-7.57-2.8-11.23-4.52-1.24-.58-2.42-1.17-2.85-2.64-2.12-7.31-5.89-13.88-9.37-20.56-4.43-8.52-6.5-17.62-7.59-27.05-1.43-12.48-2.06-24.99-1.52-37.54,.17-3.89,.5-7.81,1.2-11.64,1.04-5.72,.8-11.55,1.82-17.27,1.43-8.01,3.8-15.69,7.29-23.03,1.05-2.2,2.72-4,5.2-3.92,7.32,.23,14.49-1.18,21.75-1.59,1.21-.07,2.42,0,4.02,0-1.81,3.91,.74,5.28,3.41,6.83,13.06,7.59,26.49,14.43,40.41,20.32q3.7,1.57,5.78-2.32c6.33,4.8,12.63,9.58,19.08,14.47-2.32,2.01-4.98,2.54-7.62,2.69-5.37,.31-9.33,2.85-12.72,6.89-4.54,5.4-7.8,11.28-8.51,18.4-.12,1.21-.37,2.41,.19,3.57,.39,.8,1.01,1.27,1.94,1.05,.85-.2,.88-.93,.84-1.6-.54-8.66,3.77-15.18,9.26-21.21,2.08-2.29,4.57-3.63,7.71-3.97,3.2-.35,6.34-.95,9.33-2.41,3.39-1.66,7.01-.33,9.06,2.96,1.8,2.9,2.9,6.15,3.29,9.48,1.18,9.93,4.07,19.49,6.02,29.25,1.77,8.84,3.57,17.68,5.44,26.5,.77,3.6,1.74,7.16,2.67,10.72,.15,.57,.15,1.03-.11,1.53-2.23,4.39-1.84,9.17-2.07,13.87-.07,1.48-.25,2.96-.18,4.44,.04,.85,.7,1.5,1.65,1.4,.71-.08,1.22-.62,1.25-1.35,.09-1.88,.22-3.78,.1-5.66-.31-5.12,.94-9.87,3.09-14.45,.82-1.75,2.53-2.12,3.72-.67,.67,.82,1.07,1.86,1.58,2.81,1.02,1.9,1.99,3.82,3.04,5.7,.41,.73,1.08,1.32,1.98,.82,.83-.46,.92-1.24,.5-2.07-.43-.84-.87-1.67-1.27-2.53-.56-1.2-1.54-2.24-1.44-3.95Z"></path><path class="cls-10" d="M401.52,282c1.44-.7,2.8-.34,4.11-.35,12.93-.07,25.87,.34,38.8-.42,2.31-.13,4.55,.36,6.64,1.42,5.48,2.78,10.31,6.35,13.96,11.36,.56,.76,.95,1.85,2.13,1.12,1.21-.75,.86-1.88,.26-2.83-1.31-2.07-3.07-3.77-4.9-5.35-1.92-1.66-3.96-3.18-5.85-5.07,3.78,.31,7.33,1.47,10.77,3.04,.73,.33,1.4,.81,2.15,1.09,.52,.19,1.08-.03,1.42-.51,.36-.5,.22-1.01-.07-1.5-.67-1.12-1.84-1.56-2.94-2.03-3.97-1.71-8.13-2.83-12.34-3.62-.09-.3-.3-.6-.22-.76,7.16-13.69,11.74-28.3,15.56-43.19,1.34-5.22,2.61-10.45,3.04-15.84,.09-1.1,.77-2.74-.97-2.97-1.68-.22-1.69,1.52-1.82,2.62-1.34,10.88-4.29,21.36-7.71,31.72-1.98,6-4.26,11.91-6.54,17.81-.92,2.38-2.21,4.6-3.3,6.92-1.43,3.04-3.25,4.25-7.1,3.99-8.05-.54-16.16,0-24.25,.05-5.39,.03-5.56-.23-2.97-4.96,5.8-10.6,13.29-19.94,21.51-28.72,3.04-3.25,6.08-6.5,9.21-9.66,1.89-1.91,2.52-3.92,1.72-6.57-.64-2.12-1.43-4.3-1.25-6.86,1.81,.36,3.37,.61,4.9,.99,1.64,.4,2.55-.24,3.04-1.78,4.35-13.62,8.13-27.36,8.77-41.76,.16-3.62-.32-7.16-1.09-10.98,10.15,4.13,20.07,7.9,29.76,12.2,7.3,3.24,8.07,3.65,7.04,12.47-1.07,9.11-1.44,18.25-2.2,27.36-1.52,18.32-5.26,36.21-10.12,53.89-2.39,8.69-5.22,17.28-7,26.12-1.1,5.48-4.44,8.71-9.41,10.36-7.42,2.45-14.95,4.51-22.82,4.97-1.34,.08-2.51-.09-3.81-.78-3.26-1.73-7.03-1.7-10.6-2.27-9.44-1.52-18.65-4.21-28.17-5.28-1.47-.16-1.99-.85-2.16-2.3-.96-7.88-2.47-15.66-5.2-23.15Z"></path><path class="cls-3" d="M408.57,397.88c-4.88-7.11-10.36-13.02-16.21-18.6-4-3.82-8.27-7.32-12.82-10.47-10.25-7.1-21.38-11.31-34.06-10.14-.59-1.39,.61-1.74,1.18-2.29,14.41-13.79,28.85-27.52,43.24-41.33,1.36-1.3,2.69-1.75,4.59-1.8,13.7-.36,24.78,5.23,34.22,14.68,4.68,4.68,8.88,9.76,12.45,15.34,1.23,1.92,2.42,3.98,4.08,5.48,1.87,1.68,1.29,2.71,.01,4.26-10.52,12.8-20.97,25.65-31.45,38.48-1.62,1.98-3.25,3.95-5.25,6.38Z"></path><path class="cls-3" d="M423.61,126.62c4.54,5.72,10.54,8.35,17.59,8.71,1.27,.06,1.59,.75,1.87,1.68,2.34,7.78,5.52,15.17,10,21.98,1.3,1.98,1.04,4.42,1.33,6.64,.4,3.06,.47,6.17,.58,9.27,.1,3.15-2.5,6.06-5.54,6.64-3.73,.71-7.47,1.06-11.25,.93-2.34-.08-4.18,.85-5.63,2.63-.42,.52-.88,1.11-.19,1.73,.48,.43,1.06,.28,1.4-.18,1.6-2.17,3.89-2.19,6.21-2.02,3.51,.26,6.9-1.02,10.38-.89,.38,1.36-.53,2.16-1.03,3.03-3.91,6.91-7.95,13.76-11.81,20.7-1.46,2.62-3.48,3.81-6.43,4.17-3.52,.43-6.96,.5-10.44-.14-3.95-.73-7.38-2.43-10.44-4.99-3.02-2.53-4.41-5.52-3.64-9.61,1.03-5.45,2.85-10.65,4.57-15.89,1.97-6.01,3.89-12.05,6.22-17.92,2.17-5.45-2.09-13.39-5.44-15.88-1.24-.92-2.56-.78-3.86-.51-2.37,.51-4.71,1.15-7.05,1.76-1.17,.31-2.31,.74-3.49,1-5.3,1.17-7.83-1.04-7.34-6.32,.09-.99,.85-1.28,1.49-1.73,2.16-1.52,3.82-3.45,4.5-6.03,.67-2.52-.35-3.63-2.88-3.27-1.7,.24-3.51,1.52-5.07,.61-1.69-.98-.76-3.23-1.27-4.87-.56-1.79-1.37-3.14-3.07-4-1.55-.79-3.06-1.69-4.3-3.32,1.86-2.99,3.97-5.9,5.56-9.12,1.33-2.68,1.99-5.31,.25-8.04-.53-.85-.64-1.77-.53-2.72,.73-6.41,2.24-12.61,4.68-18.97,1.23,.91,1.36,2.03,1.78,2.9,3.9,8.09,8.9,15.39,15.6,21.43,1.3,1.17,2.55,3.03,4.82,1.3,.93-.71,1.64,.52,2.46,.82,1.66,.6,2.97,2.03,5.14,.49,1.51-1.07,2.92,.73,3.85,2.04,3.59,5.06,1.39,12.97-4.28,15.5-.73,.33-1.52,.52-2.27,.8-.81,.31-1.46,.82-1.2,1.78,.26,.98,1.1,1.08,1.95,.94,1.62-.26,3.07-.99,4.45-1.83,.55-.33,1.06-.74,1.76-1.22Z"></path><path class="cls-1" d="M319.51,229.1c1.83-2.53,4.16-3.88,6.41-5.31,1.34-.85,2.78-.75,4.27-.24,2.79,.97,5.63,1.84,8.44,2.75,.64,.21,1.27,.45,1.93,.57,.7,.13,1.37-.02,1.58-.82,.19-.72-.06-1.36-.75-1.67-.85-.39-1.76-.67-2.62-1.03-2.36-.97-4.96-1.27-7.67-2.83,4.96-2.49,9.79-3.79,15.02-3.16,1.17,.14,2.3,.48,2.43-1.05,.12-1.39-1.11-1.69-2.23-1.78-4.08-.35-8.05,.12-11.95,1.42-1.12,.37-2.15,1.17-3.57,.97-.29-4.71,.53-9.37,.89-14.03,.67-8.59,1.39-17.19,2.99-25.66,2.6-13.83,5.68-22.27,11.63-32.63,1.88-3.28,3.93-6.46,6.51-9.24,1.35-1.45,2.58-3.14,4.87-3.33,.88-.07,1.52-.7,1.23-1.68-.26-.87-1.13-1.23-1.93-1.2-1.38,.06-2.56,.77-3.61,1.66-1.86,1.58-3.52,3.34-4.95,5.32-6.76,9.4-11.55,19.72-14.56,30.88-.34,1.28-1,2.58-.14,3.89,.35,.53,.35,.92-.14,1.36-1.78,1.6-1.74,3.87-2.06,5.96-1.95,12.93-3,25.95-3.82,38.98-.13,2.02-.72,3.07-2.61,3.85-2.75,1.14-5.02,3.14-7.18,5.18-1,.95-1.74,1.36-3.11,.59-2.82-1.57-5.75-2.94-8.67-4.32-1.3-.62-1.81-1.3-1.17-2.79,7.16-16.56,15.03-32.78,23.08-48.91,.48-.96,1.03-1.89,1.53-2.85,1.51-2.9,1.53-3.22-.81-5.62-1.12-1.15-2.52-2.03-4.08-3.26,1.73-1.64,2.67-3.16,4.01-3.67,2.6-.99,3.1-2.8,3.24-5.21,.24-4.16,.86-8.31,1.06-12.47,.44-9.02,1.18-18.03,1.14-27.07,0-.38,.12-.75,.18-1.07,.98-.61,1.56,.1,2.24,.47,8.49,4.75,15.98,10.99,24.11,16.29,1.3,.85,1.52,2.07,1.83,3.41,2.79,12.31,2.47,24.76,1.79,37.23-.7,12.92-2.18,25.77-4.38,38.5-1.46,8.48-3.68,16.82-5.53,25.23-.33,1.49-.85,2.77-2.07,3.8-2.05,1.74-4.1,3.48-5.45,5.91-.54,.97-1.41,1.61-2.7,.97-8.16-4.09-16.34-8.16-24.65-12.3Z"></path><path class="cls-10" d="M203.81,123.98c.52,.55,.65,.64,.7,.75,7.68,18.66,15.83,37.17,17.92,57.57,.25,2.43,.91,4.67,2.75,6.56,1.39,1.43,2.32,3.29,3.47,4.95,1.16,1.67,2.28,3.29,1.79,5.56-.4,1.86,.83,2.99,2.48,2.89,2.47-.14,4.43,1.03,6.5,1.91,6.93,2.98,13.82,6.04,20.47,9.6,7.19,3.84,13.66,8.62,19.3,14.52,.94,.99,1.93,1.79,1.17,3.45-3.01,6.62-5.92,13.28-8.9,19.91-.21,.47-.63,.84-.98,1.28-6.88-2.65-13.45-5.67-19.96-8.93-7.25-3.63-13.95-8.15-21.12-11.88-2.86-1.49-5.66-3.08-8.13-5.25-1.51-1.32-3.36-2.35-5.39-2.62-3.84-.52-6.16-2.71-8.03-6-2.19-3.86-4.86-7.46-6.01-11.84-.75-2.85-1.42-5.72-2.08-8.6-.27-1.15,.43-2.11,.91-3.03,3.25-6.2,3.69-12.75,3.36-19.63-.54-11.31-1.68-22.57-2.43-33.86-.38-5.7,.06-11.56,2.19-17.32Z"></path><path class="cls-3" d="M344.15,354.59c-3.12-4.61-7.72-7.18-12.4-9.58-12.5-6.4-25.5-11.49-39.19-14.75-.38-.09-.74-.25-1.29-.44,.23-1.64,1.69-2,2.73-2.64,17.32-10.76,32.3-24.19,45.49-39.68,1.04-1.23,2.01-2.54,2.85-3.92,.76-1.26,1.57-1.58,3-1.06,1.48,.55,2.87,1.07,2.71,2.94-.18,2.14-.53,4.27-.84,6.4-.51,3.52-.38,4.04,2.86,5.03,3.08,.94,4.9,3.46,7.27,5.27,1.26,.96,2.04,1.19,3.52,.72,4.84-1.53,9.87-.98,14.83-.89,1.73,.03,2.75,1.6,3.94,2.64,1.93,1.69,3.83,3.35,6.28,4.31,2.89,1.13,3.15,3.08,.81,5.32-2.04,1.95-4.14,3.86-6.19,5.81-11.61,11.06-23.21,22.13-34.82,33.2-.48,.46-1.02,.85-1.57,1.31Z"></path><path class="cls-3" d="M305.64,28.47c1.96,4.12,3.93,7.66,6.53,10.75,1.87,2.23,3.48,4.72,6.51,5.8,1.64,.59,1.73,2.34,.16,3.47-1.31,.95-1,2.1-1,3.24-.01,6.87-.03,13.75,.09,20.62,.04,2.39-.56,4.4-1.83,6.42-2,3.19-3.68,6.58-5.53,9.86-3.5,6.2-13.04,7.44-17.97,2.35-1.5-1.55-2.95-3.14-4.4-4.74-4.05-4.47-6.84-9.42-7.86-15.58-1.17-7.02-3.38-13.85-5.75-20.59-1.35-3.84-.86-5.26,2.52-7.29,4.62-2.78,9.19-5.64,13.17-9.32,.69-.64,1.38-1.29,2.01-1.99,.7-.78,1.01-1.7,.06-2.46-.8-.64-1.54-.07-2.11,.51-3.73,3.76-8,6.79-12.52,9.51-1.37,.82-2.74,1.64-4.44,2.67-1.59-9.16-.94-17.55,3.71-25.34,1.48-2.49,3.71-4.24,6.16-5.72,2.54-1.54,5.27-2.69,8-3.85,.99-.42,2.36-.61,2.87-1.37,3.15-4.62,7.29-2.47,10.7-1.17,3.17,1.22,6.32,2.72,9.47,4.12,1.68,.75,3.34,1.27,2.36,4.01-.56,1.57,1.28,3.13,2.22,4.57,4.84,7.35,6.12,15.39,4.77,23.97-.15,.93-.27,1.88-1.28,2.73-.47-1.23-.88-2.4-1.35-3.55-.35-.86-.6-1.93-1.76-1.95-1.52-.02-1.33,1.35-1.58,2.82-4.2-4.25-7.15-8.81-9.26-13.96-.48-1.18-.5-2.33,.25-3.47,.61-.93,.5-1.84-.63-2.29-.92-.36-1.56,.21-1.96,.97-1.19,2.28-2.54,4.42-4.41,6.23-4.49,4.36-9.72,7.65-15.18,10.62-.82,.45-1.69,.84-2.45,1.37-.57,.4-.89,1-.42,1.73,.41,.65,1.01,.93,1.71,.68,.75-.27,1.47-.65,2.18-1.04,6.54-3.54,12.76-7.54,18.24-13.38Z"></path><path class="cls-10" d="M277.1,42.79c4.62-2.78,9.19-5.64,13.17-9.32,.69-.64,1.38-1.29,2.01-1.99,.7-.78,1.01-1.7,.06-2.46-.8-.64-1.54-.07-2.11,.51-3.73,3.76-8,6.79-12.52,9.51-1.37,.82-2.74,1.64-4.44,2.67-1.59-9.16-.94-17.55,3.71-25.34,1.48-2.49,3.71-4.24,6.16-5.72,2.54-1.54,5.27-2.69,8-3.85,.99-.42,2.36-.61,2.87-1.37,3.15-4.62,7.29-2.47,10.7-1.17,3.17,1.22,6.32,2.72,9.47,4.12,1.68,.75,3.34,1.27,2.36,4.01-.56,1.57,1.28,3.13,2.22,4.57,4.84,7.35,6.12,15.39,4.77,23.97-.15,.93-.27,1.88-1.28,2.73-.47-1.23-.88-2.4-1.35-3.55-.35-.86-.6-1.93-1.76-1.95-1.52-.02-1.33,1.35-1.58,2.82-4.2-4.25-7.15-8.81-9.26-13.96-.48-1.18-.5-2.33,.25-3.47,.61-.93,.5-1.84-.63-2.29-.92-.36-1.56,.21-1.96,.97-1.19,2.28-2.54,4.42-4.41,6.23-4.49,4.36-9.72,7.65-15.18,10.62-.82,.45-1.69,.84-2.45,1.37"></path><path class="cls-10" d="M399.63,93.15c-2.37-3.44-4.5-7.02-6.13-10.88-1.61-3.81-.9-6.31,2.46-8.66,.87-.61,1.86-1.1,2.85-1.5,9.84-3.99,19.99-5.19,30.46-3.26,6.66,1.23,11.44,5.08,14.73,10.91,1.65,2.94,2.83,6.09,3.99,9.25,.56,1.51,1.19,3,1.74,4.51,.69,1.87,2.05,2.23,3.87,1.99,6.92-.89,8.75,.07,11.49,6.34,2,4.57,3.56,9.31,4.08,14.3,.44,4.17-.47,5.54-4.2,7.28-2.35,1.09-4.85,1.6-7.38,2-2.09,.33-3.93-.29-5.61-1.66-2.37-1.92-2.5-1.91-4.41,.48-1.76,2.21-3.9,4.11-5.29,6.61-.67,1.2-1.63,1.6-3.01,1.4-4.37-.66-8.3-2.18-11.5-5.35-1.46-1.45-2.1-2.78-1.07-4.98,1.73-3.7,1.51-7.59-.21-11.34-1.75-3.83-4.47-5.69-8.61-5.23-2.15,.24-3.62-.48-5.14-1.65-2.92-2.25-5.21-5.06-7.13-8.17-.92-1.49-1.74-3.04-2.51-4.61-.49-.99-.88-2.23-2.25-1.69-1.74,.69-.59,2.01-.37,3.09,.3,.85-.08,1.01-.82,.82Z"></path><path class="cls-10" d="M104.9,121.6c-1.16,.06-1.68,.71-1.66,1.83,.02,1.48,.06,2.96,.07,4.45,.03,3.88-2.23,6.5-4.92,8.86-.28,.25-.84,.57-1.05,.46-3-1.65-3.27,.99-4.18,2.61-.78,1.41-1.6,2.81-2.29,4.27-.78,1.64-1.35,2.99-3.77,3.08-2.43,.09-3.29,2.61-3.78,4.72-.75,3.28-1.17,6.62-.58,10.02,.71,4.11,.91,8.25,.14,12.26-.78,.59-1.02,.13-1.35-.32-1.23-1.65-2.42-1.04-3.09,.38-.91,1.9-1.5,3.96-2.26,6.04-2.88-1.27-5.32-3.22-7.98-4.78-1.02-.59-2.04-1.64-3.29-.8-1.3,.87-.14,2.21-.35,3.93-4.07-1.82-8.01-3.16-10.14-7.37-2.41-4.75-3.95-9.64-3.97-15.06-.03-7.99,.56-15.88,2.84-23.57,1.78-6,5.11-10.96,10.09-14.76,1.7-1.3,3.44-2.65,5.78-2.58,.84,.02,1.71-.13,2.18-.83,1.53-2.29,4-2.64,6.35-3.05,6.77-1.16,13.42-.82,19.79,2.04,3.52,1.58,6.6,3.67,8.24,7.35,.27,.82-.07,1.01-.81,.79Z"></path><path class="cls-10" d="M157.43,171.67c-.47,2.51-1.48,4.28-2.48,6-8.51,14.52-16.91,29.1-28.02,41.89-2.94,3.39-5.99,6.48-10.06,8.47-1.19,.58-2.16,.78-3.33-.11-6.09-4.67-12.19-9.33-18.36-13.89-1.31-.97-.37-2.38-.97-3.24-1.97-2.8-.08-4.58,1.34-6.61,1.89-2.69,3.19-5.88,7.08-7.55-.17,2.59-.35,4.9-.47,7.21-.07,1.34-.12,2.69-.04,4.03,.05,.81,.41,1.65,1.42,1.65s1.35-.78,1.4-1.63c.08-1.48,.07-2.96,.1-4.44,.03-1.08-.06-2.18,.14-3.23,.69-3.65,.68-4.1,4.03-4.39,1.56-.14,3.08-.89,4.6-1.43,3.59-1.27,5.36-3.89,5.48-7.65,.12-3.63,.23-7.27,.31-10.9,.03-1.34,.47-2.31,1.28-3.53,2.06-3.1,4.53-5.98,6.1-9.42,.66-1.46,1.61-2.1,3.12-.79,3.77,3.28,7.8,6.02,12.77,7.4,4.7,1.32,9.43,2.03,14.56,2.13Z"></path><path class="cls-3" d="M110.16,130.5c1.02,2.27,1.84,4.11,2.74,6.12-1.26,.7-2.56,.85-3.84,1.04-.8,.12-1.63,.18-2.37,.46-.86,.31-1.91,.7-1.52,1.95,.3,.96,1.2,.99,2.01,.87,1.46-.22,2.92-.49,4.37-.77,1.6-.31,2.38,.39,2.16,1.95-.38,2.8,1,4.89,2.43,7.05,1.64,2.47,3.03,5.1,4.71,7.53,.94,1.34,.72,2.48,.06,3.71-.83,1.54-1.72,3.05-2.58,4.57-.4,.7-1.19,1.42-1.14,2.09,.25,3.65-1.96,4.95-4.94,5.99-1.65,.57-3,2.01-2.8,4.03,.18,1.84,1.77,2.58,3.24,3.29,1.18,.57,2.88,.44,3.5,1.67,.66,1.31,.07,2.91,.13,4.38,.12,2.85-1.29,4.52-3.85,5.47-2.41,.89-4.89,1.88-7.44,1.64-4.05-.38-6.56,1.9-8.95,4.5-1.17,1.28-2.07,2.8-3.33,4.55-1.98-1.68-3.83-3.6-6.04-5.03-5.57-3.6-11.63-6.2-17.72-8.73-2.61-1.08-5.2-2.22-7.87-3.13-1.94-.66-2.69-1.51-1.55-3.47,.31-.54,.26-1.3,.43-2.25,2.05,.87,3.97,1.7,5.91,2.49,3.16,1.28,3.21,1.25,4.63-1.97,2.2,1.31,4.38,2.63,6.59,3.89,.89,.51,1.83,1.36,2.87,.26,1.13-1.19-.16-1.91-.56-2.8-.08-.19,.02-.47,.03-.71,3.52,.69,3.9,.27,6.58-7.22,1.49,.34,3,.75,4.53,1.03,.78,.14,1.7,.17,2.03-.81,.33-.97-.31-1.7-1.12-1.8-4.23-.49-4.68-3.73-5.34-6.95-.68-3.33-.8-6.67-.57-10.05,.1-1.5,.48-2.94,1.09-4.28,.6-1.3,1.53-1.31,2.52-.3,.81,.82,1.08,1.81,1.14,2.93,.04,.76,.54,1.2,1.34,1.15,.8-.05,1.09-.61,1.33-1.29,.3-.84,.04-1.59-.16-2.37-1-3.85,.58-7.56,4.04-9.76,1.47-.94,2.8-2.09,4.15-3.2,1.34-1.09,2.13-3.02,4.53-2.28,.8,.24,1.55-.96,2.1-1.7,.79-1.06,1.47-2.21,2.47-3.73Z"></path><path class="cls-3" d="M144.18,110.32c-.77,1.38-1.49,2.49-2.05,3.67-1.96,4.18-1.99,4.35-6.25,3.24-7.66-1.99-14.14-5.97-18.91-12.35-2.61-3.49-4.16-7.39-4.04-11.98,.14-5.24-.92-10.41-1.72-15.6-1.57-10.18-4.39-20.26-2.85-30.79,.3-2.06,.97-3.87,1.68-5.72,.47-1.22,.88-2.6-.52-3.16-1.81-.72-1.32-1.54-.68-2.72,2.07-3.82,4.9-6.67,9.19-7.97,6.9-2.09,13.81-3.77,20.96-1.33,1.24,.42,1.87-.03,2.82-.73,3.74-2.76,9.91-2.83,13.72-.31,.63,.41,1.59,.73,1.26,1.78-.64,2.06,.73,2.55,2.21,3.08,1.52,.54,3.02,1.2,4.27,2.25,1.4,1.17,3,2.14,2.27,4.59-.28,.94,.58,2.23,.8,3.52-2.84-3.69-6.34-5.14-10.95-4.16-4.77,1.01-9.6-.63-14.43,0-1.87,.24-3.73,.48-5.56,.96-1.42,.37-2.64,1.04-2.11,2.78,.48,1.59-.9,1.8-1.63,2.36-2.77,2.11-3.75,4.74-2.91,8.15,.45,1.82,.53,3.74,.96,5.56,.57,2.42,.72,4.7-.5,7.02-1.02,1.93-.7,4.17-.73,6.5-2.46,.26-4.64-.09-6.87-.6-2.88-.67-4.69,.14-5.38,2.84-1.54,6.03-1.66,12.07,2.24,17.39,1.74,2.37,3.8,4.69,7.37,3.88,1.36-.31,1.48,.69,1.68,1.64,.53,2.5,1.16,4.98,1.63,7.49,.41,2.21,1.48,3.5,3.79,4.11,3.89,1.01,7.6,2.56,11.22,4.64Z"></path><path class="cls-10" d="M111.21,77.31c-1.57-10.18-4.39-20.26-2.85-30.79,.3-2.06,.97-3.87,1.68-5.72,.47-1.22,.88-2.6-.52-3.17-1.81-.72-1.32-1.54-.68-2.72,2.07-3.82,4.9-6.67,9.19-7.97,6.9-2.09,13.81-3.77,20.96-1.34,1.24,.42,1.87-.03,2.82-.73,3.74-2.76,9.91-2.83,13.72-.32,.63,.41,1.59,.73,1.26,1.78-.64,2.05,.73,2.55,2.21,3.08,1.52,.54,3.02,1.2,4.27,2.25,1.4,1.17,3,2.14,2.27,4.59-.28,.94,.58,2.23,.8,3.52-2.84-3.69-6.34-5.14-10.95-4.16-4.77,1.01-9.6-.63-14.43,0-1.87,.24-3.73,.49-5.56,.96-1.42,.37-2.64,1.04-2.11,2.78,.48,1.59-.9,1.8-1.63,2.36-2.77,2.11-3.75,4.74-2.91,8.15,.45,1.82,.53,3.74,.96,5.56,.57,2.42,.72,4.7-.5,7.02-1.02,1.93-.7,4.17-.73,6.5-2.46,.26-4.64-.09-6.87-.6-2.88-.66-4.69,.14-5.38,2.84"></path><path class="cls-3" d="M171.69,358.29c-1.25-3.58-1.01-7.13-1.63-10.55-.35-1.97,.49-2.6,2.24-2.98,5.38-1.17,10.73-2.51,16.09-3.74,4.19-.96,8.14-2.79,12.41-3.46,1.45-.22,2.12-1.15,2.02-2.54-.14-1.95,.98-2.95,2.51-3.73,1.19-.61,2.08-1.44,2.95-2.56,1.8-2.31,5.06-2.62,7.31-2.11,3.11,.71,6.1,.22,9.12,.54,1.06,.11,2.15,0,3.23,.02,2.68,.06,2.91,.22,3.11,2.95,.2,2.82,.33,5.63,.69,8.44,.54,4.27,.87,8.56,1.22,12.85,.24,2.89,.18,3.02-2.68,3.04-7.81,.06-15.6,.54-23.38,1.11-11.66,.85-23.32,1.78-35.21,2.7Z"></path><path class="cls-10" d="M403.09,176.3c-3.22,4.81-6.28,9.73-9.71,14.38-2.33,3.16-3.04,6.82-4.21,10.36-.34,1.04,.05,1.84,.99,2.37,1.16,.66,2.34,1.31,3.96,2.22-2.47,2.98-4.72,5.93-7.24,8.62-2.32,2.48-3.43,5.01-2.15,8.37,.59,1.54,.38,3.09-.47,4.65-1.67,3.07-3.09,6.28-4.71,9.37-1.42,2.7-1.53,5.34-.29,8.13,1.65,3.7,3.63,7.2,5.98,10.51,1.75,2.46,1.95,4.2-.04,6.41-2.78,3.1-5.9,5.9-8.84,8.85-.78,.77-1.37,.89-2.41,.21-4.9-3.24-10.16-3.75-15.74-1.91-3.17,1.04-6.21,2.33-8.93,4.15-.3-.38-.48-.52-.46-.59,2.95-7.46,5-15.3,10.14-21.78,2.25-2.84,3.96-6.08,6.97-8.28,.5-.37,1.03-1.05,1.07-1.63,.26-3.26,2.52-5.06,4.96-6.43,1.75-.98,2.52-2.28,2.94-4.03,2.71-11.24,6.5-22.2,8.77-33.56,.82-4.08,2.31-8.01,3.87-11.88,.67-1.66,1.64-3.04,3.4-3.79,3.93-1.68,7.83-3.44,11.73-5.17,.14,.15,.27,.3,.41,.44Z"></path><path class="cls-10" d="M179.53,108.15c6.42,2.54,12.18,4.8,17.91,7.1,2.25,.9,3.17,2.64,3.32,5.05,.18,2.76-.71,5.32-1.18,7.95-1.72,9.57-.36,19.06,.46,28.59,.78,9,1.36,18.01,1.14,27.05-.08,3.2-1.67,5.92-2.76,8.8-.62,1.63-1.83,3.18-1.73,4.91,.17,3.15-1.48,4.41-4.12,5.44-4.74,1.85-9.37,4.01-14.76,6.36,2.2-4.07,3.33-7.81,4.78-11.43,3.13-7.86,3.73-16.22,4.84-24.49,.77-5.73,1.64-11.45,2.13-17.23,.26-3.04,.17-5.54-2.47-7.55-1-.76-2.08-1.68-2.46-3.05q3.15-1.22,3.04-4.56c-.32-9.95-2.91-19.39-6.44-28.62-.47-1.24-.97-2.48-1.7-4.33Z"></path><path class="cls-1" d="M267.52,99.45c-2.07,9.39-3.85,18.07-5.92,26.67-.93,3.9-.63,8.07-2.68,11.73-.71,1.27,.17,2.32,1.13,3.14,1.43,1.22,2.9,2.4,4.61,3.8-2.01,1.3-3.91,2.48-5.77,3.73-1.03,.69-1.9,1.47-1.38,2.98,2.46,7.18,3.08,14.72,4.05,22.18,1.19,9.18,2.33,18.37,3.55,27.97-4.27-1.54-7.78-3.7-11.5-5.41-.9-.42-1.08-1.07-1.19-1.89-.2-1.46-.48-2.93-.58-4.4-.79-12.2-3.29-24.28-2.69-36.59,.19-3.9,.37-7.8,.59-11.7,.09-1.55,.28-3.04-1.99-3.1-1.1-.03-1.03-1.06-1.21-1.81-1.39-6.02-3.15-11.97-3.97-18.1-.14-1.07-1.47-1.77-.82-2.86,.64-1.07,1.92-1.42,2.94-2.06,.91-.57,1.91-1,2.82-1.58,6.52-4.08,14.37-5.98,20.01-12.72Z"></path><path class="cls-3" d="M168.54,114.67c-4.32,.76-8.28,1.51-12.12,2.74-.77,.25-1.54,.48-2.3,.77-1.14,.42-1.95,1.13-1.29,2.43,.56,1.11,1.43,.77,2.4,.35,4.11-1.8,8.54-2.38,12.88-3.3,.53-.11,1.07-.21,1.6-.2,.93,.03,1.44,.67,1.67,1.49,.27,.95-.6,1.07-1.16,1.3-3.25,1.32-6.63,2.21-10.03,3.06-1.29,.33-3.69,.09-3.31,2.05,.45,2.29,2.62,1.04,4.02,.74,4.2-.9,8.26-2.33,12.28-3.78,3.8,9.2-.86,15.48-7.72,17.45-.91-1.08-.28-2.29-.2-3.42,.06-.88,.1-2,1.64-1.38,.71,.29,1.41-.33,1.59-.92,.45-1.49,2.21-2.95,1.15-4.44-1.29-1.81-2.86,.14-4.3,.43-.77,.15-1.5,.59-2.22,.95-1.36,.68-1.89,1.58-1.45,3.25,1.89,7.09-1.68,17.01-7.69,21.06-1.91,1.28-3.36,2.59-3.72,4.92-.32,2.05-1.59,2.24-3.26,1.54-1.75-.73-3.39-1.64-4.94-2.74-3.46-2.46-3.22-2.41-2.55-6.84,.82-5.45,1.14-10.97,1.74-16.46,.54-4.95,1.18-9.89,1.76-14.84,.3-2.58,1.07-5.04,2.59-7.13,3.19-4.35,6.44-8.65,9.82-12.85,2.02-2.51,3.65-2.07,4.73,1.06,.04,.13,.05,.27,.09,.39q1.56,4.82-3.02,6.75c-1.98,.83-3.99,1.62-5.99,2.42-1.04,.42-2.16,.89-1.65,2.28,.52,1.44,1.57,.99,2.65,.52,3.09-1.33,6.18-2.68,9.34-3.83,4.18-1.53,4.36-1.4,6.52,2.65,.18,.33,.23,.74,.45,1.52Z"></path><path class="cls-3" d="M164.93,81.31c-1.1,.89-2.05,1.65-2.97,2.42-.74,.62-1.57,1.32-.86,2.35,.71,1.03,1.63,.63,2.46,.02,.65-.48,1.3-.96,1.92-1.47,3.33-2.72,3.32-2.76,1.01-6.46-.42-.67-1-1.31-.82-2.21,4.78-1.67,4.84-1.59,5.04,3.28,.27,6.44-1.49,12.52-3.07,18.66-.6,2.35-.8,4.82-3.4,6.31-1.19-2.34-1.02-5.42-3.81-7.08,1.8-.85,3.24-1.49,4.66-2.2,.64-.32,1.02-.91,.8-1.65-.31-1.01-1.16-1.07-1.97-.83-1.67,.51-3.17,1.46-4.92,1.77-1.6,.28-3.16,.7-4.8,.29-.86-.21-1.75-.02-2.07,.81-.46,1.16,.44,1.66,1.37,2.04,.2,.08,.33,.29,.56,.5-2.25,2.88-4.54,5.71-6.71,8.62-.9,1.2-1.66,1.36-3.01,.65-3.21-1.7-6.57-3.15-10.1-4.05-1.62-.41-2.16-1.37-2.44-2.78-.65-3.3-1.33-6.59-1.98-9.89-.65-3.3-1.09-3.59-3.62-1.59-1.54,1.22-2.61,.89-3.85-.21-1.66-1.47-2.93-3.24-3.44-5.37-.79-3.31-.79-6.68-.3-10.05,.25-1.69,1.06-2.31,2.8-1.76,1.87,.6,3.39,1.35,3.98,3.47,.35,1.26,1.14,2.84,2.82,2.08,1.49-.68,4.19,.01,4.07-2.93-.04-1.04,.03-1.86,1.44-1.77,1.41,.08,1.31,1.06,1.35,2,.02,.54,.02,1.08,.09,1.61,.42,3.28,.88,3.66,4.13,3.18,4.41-.64,8.85-.93,13.29-.97,1.85-.01,3.32-.19,3.17-2.49-.14-2.03,1.2-2.45,2.73-2.82,1.61-.39,2.09,.74,2.68,1.83,1.16,2.12,2.37,4.21,3.77,6.7Z"></path><path class="cls-10" d="M302.28,131.27c.27,5.96,.65,11.73,.77,17.51,.38,17.93-.19,35.85-1.63,53.72-.37,4.52-.58,9.12-3.7,12.97-1.11,1.37-1.82,2.22-3.51,1.07-.77-.52-1.65-.96-2.53-1.24-4.18-1.29-5-4.98-4.88-9.46,.03-1.34,.36-2.68,.32-4.02-.35-12.59,1.69-24.96,3.55-37.34,1.44-9.58,3.24-19.1,5.35-28.56,1.17-5.26,.92-4.53,6.26-4.65Z"></path><path class="cls-3" d="M198.79,297.65c-3.13,1.86-6.41,2.65-9.95,3.14-4.63,.64-9.19,1.89-13.67,3.36-7.53,2.47-15.13,4.73-22.92,6.26-.89,.17-1.87,.84-2.66,.02-1.53-1.59-3.45-1.4-5.29-1.18-1.45,.17-2.37-.19-2.8-1.55-1.5-4.75-2.21-9.68-3.28-14.53-.21-.95,.36-1.5,1.28-1.69,7.4-1.48,14.48-4.04,21.53-6.65,.83-.31,1.54-.21,2.33-.01,10.42,2.64,20.88,5.13,30.71,9.62,1.22,.56,2.39,1.23,3.57,1.86,.47,.25,.98,.48,1.15,1.34Z"></path><path class="cls-3" d="M168.85,57.76c-1.75,.23-3.25,.77-4.6,.52-3.17-.56-4.5,1.69-6.09,3.55-1.53,1.78-.91,3.79-.36,5.75,.14,.51,.47,1,.49,1.52,.03,.64-.62,.75-1.1,.95-.5,.2-1.01,.43-1.31-.25-.21-.49-.32-1.02-.52-1.52-.29-.73-.89-1.02-1.61-.83-.73,.19-1.05,.81-1.04,1.53,0,1.48,.03,2.96,.11,4.44,.08,1.36-.46,1.89-1.86,1.9-3.63,.03-7.27-.04-10.85,.75-1.32,.29-2.05-.21-2.05-1.64,0-1.75-.05-3.5-.08-5.25-.02-.99-.22-1.97-1.34-2.19-.94-.18-1.45,.48-1.63,1.37-.28,1.45-1.34,.95-2.22,.89-1.04-.08-1.27-.75-1.29-1.66-.04-1.9-.07-3.82,.99-5.48,1.03-1.62,.93-3.26,.54-5.04-.52-2.36-.97-4.74-1.26-7.14-.51-4.23,.41-5.76,4.3-7.51,.85-.38,1.79-.85,2.67-.82,2.36,.09,3.17-.89,2.33-3.3,2.95,.14,5.55-.16,8.26,.51,1.97,.48,4.24-.1,6.35-.35,5.77-.7,6.57-.31,8.56,5.31,1.61,4.52,3.01,9.11,4.61,13.98Z"></path><path class="cls-10" d="M411.47,169.63c.62,1.57-.08,2.34-.38,3.19-1.68,4.83-3.31,9.67-5.07,14.47-2.02,5.5-2.54,11.26-3.08,17.01-.79,8.58-1.57,17.16-2.29,25.74-.17,2.01-.22,4.02,.23,6.03,1.24,5.65,2.32,11.33,3.61,16.97,1.01,4.43,2.36,8.76,5.95,11.93,.47,.42,.48,.92,.48,1.43,.02,2.25,0,4.49,0,7.43-3.11-2.11-5.27-4.21-7.03-6.73-1.55-2.22-2.91-4.56-3.82-7.1-4.37-12.14-9.33-24.09-12.29-36.71-.7-2.99-.7-5.39,1.73-7.69,2.14-2.02,3.86-4.49,5.75-6.77,1.01-1.23,2.03-1.74,3.25-.23,.33,.41,.71,.83,1.16,1.07,.31,.16,.86,.15,1.15-.03,.45-.28,.68-.77,.59-1.38-.15-1.01-.77-1.74-1.52-2.3-1.29-.96-2.63-1.87-4.02-2.68-3.64-2.13-3.98-2.92-2.43-6.92,.38-.99,1-1.91,1.6-2.8,5.05-7.48,10.11-14.95,15.18-22.42,.29-.42,.65-.8,1.25-1.52Z"></path><path class="cls-10" d="M414.96,275.82c-1.14-2.06-.97-3.53-1.06-4.97-.37-6.36,.92-12.62,.94-18.96,0-1.4,.75-2.57,1.37-3.76,4.94-9.44,11.06-18.17,16.46-27.33,.73-1.24,1.7-1.51,3-1.48,3.53,.07,6.91,1.01,10.35,1.64,.74,.14,1.23,.47,1.35,1.25,.04,.27,.04,.54,.11,.8q2.26,8.6-3.91,15.01c-7.51,7.76-14.69,15.78-20.8,24.72-2.72,3.98-5.17,8.13-7.8,13.08Z"></path><path class="cls-10" d="M165.85,214.23c-.27-2.96-.12-5.84,1.63-8.46,.75-1.13,1.12-2.44,1.29-3.79,1.73-13.19,3.61-26.37,4.13-39.68,.2-5.11,.04-10.23,.07-15.34,.02-2.46,.37-2.75,2.8-2.63,1.39,.07,2.63,.52,3.75,1.31,5.04,3.6,8.36,7.65,6.91,14.71-1.76,8.53-2.47,17.27-3.66,25.92-.89,6.46-3.09,12.61-5.98,18.31-2.19,4.34-4.81,9.16-10.93,9.64Z"></path><path class="cls-1" d="M277.3,207.72c-.63-.16-1.01-.24-1.38-.36-5.6-1.79-8.43-4.96-8.82-11.51-.69-11.53-2.73-22.98-4.31-34.45-.4-2.93-1.03-5.84-1.86-8.68-.45-1.53,.03-2.22,1.19-2.93,4.17-2.55,8.69-4.25,13.35-5.63,1.5-.44,2.25-.06,2.22,1.68-.05,3.78,.11,7.55,.06,11.33-.23,15.78-.51,31.56-.31,47.34,.01,1.02-.1,2.05-.16,3.2Z"></path><path class="cls-1" d="M411.45,259.31c-2.92-.8-3.2-3-3.66-4.89-.98-4.05-1.43-8.25-2.64-12.23-2.77-9.1-1.03-18.17-.34-27.26,.2-2.64,.52-5.26,.89-8.86,7.68,8.42,16.91,9.57,26.71,8.34,.35,1.52-.6,2.25-1.13,3.12-4.79,7.81-9.62,15.6-14.42,23.4-3.06,4.97-5.88,10.02-5.18,16.21,.07,.63-.12,1.29-.22,2.17Z"></path><path class="cls-10" d="M457.05,157.94c2.85,1.24,4.41,3.2,4.89,6.05,.09,.53-.01,1.12,.19,1.59,3.56,8.35,2.26,16.95,1.06,25.45-1.27,9.07-3.74,17.88-6.69,26.55-.59,1.73-1.13,2.39-3.06,1.96-5.76-1.26-11.57-2.33-17.35-3.47-.02-1.43,.92-2.32,1.53-3.32,6.77-11.01,13.06-22.28,19.18-33.66,.82-1.53,1.06-3.02,.98-4.61-.21-3.9-.51-7.79-.83-11.67-.13-1.57-.2-3.11,.09-4.88Z"></path><path class="cls-3" d="M359.47,289.6c3.13-2.13,6.79-3.24,9.67-5.76,1.31-1.15,2.9-1.28,4.54-1.24,.91,.02,1.62-.48,1.63-1.41,.01-1.07-.9-1.19-1.72-1.22-2.02-.08-4.02-.19-5.77,1.23-1.66,1.35-3.72,2.12-5.29,3.67-.94,.93-2.26,1.44-3.59,1.75-.56,.14-1.17,.07-1.43-.43-.25-.48,0-1.02,.33-1.49,.47-.69,1-1.19,1.89-1.35,3.4-.58,6.3-2.33,9.1-4.19,1.73-1.15,3.86-1.12,5.53-2.31,.57-.4,1.33-.16,1.96,.07,4.16,1.52,8.42,2.82,11.92,5.75,1.84,1.54,3.57,3.4,6.13,3.71,1.57,.19,1.44,1.47,1.64,2.4,1.17,5.51,2.23,11.05,3.34,16.63-2.78,1.61-5.85,1.32-8.68,1.97-2.05,.46-3.75-1.22-5.57-2.04-.48-.22-1-.51-1.31-.92-5.07-6.59-12.12-5.87-19.15-5.21-.8,.08-1.6,.25-2.41,.27-.69,.02-1.77,.51-1.73-.83,.03-1.05,.92-1.13,1.77-1.17,2.15-.09,4.31-.14,6.45-.36,1.19-.12,2.37-.49,3.51-.87,.5-.17,.75-.76,.65-1.34-.1-.59-.54-.92-1.12-.94-.67-.02-1.37-.08-2.01,.06-2.65,.62-5.34,.66-8.03,.61-1.54-.02-2.95,.23-4.02,1.47-.36,.42-.74,.89-1.28,.35-.75-.76,.11-1.12,.48-1.6,1.16-1.5,2.92-1.9,4.57-2.37,4.13-1.2,8.29-2.26,12.44-3.37,.51-.14,1.07-.16,1.56-.35,.51-.21,.87-.63,.82-1.25-.06-.8-.65-1.36-1.29-1.28-1.32,.16-2.62,.54-3.89,.93-3.8,1.16-7.56,2.43-11.65,2.42Z"></path><path class="cls-3" d="M299.85,263.92c-1.84,.58-3.49,.94-5.27,.49-1.17-.29-2.4-.57-3.59-.53-5.22,.16-8.31-3.03-11.16-6.76-.96-1.26-1.16-2.41-.38-3.7,2.67-4.38,4.81-9.03,6.83-13.73,.81-1.88,2.15-1.83,3.62-1.26,4.01,1.56,7.93,3.4,12,4.78,7.2,2.46,12.7,6.68,16.09,13.65,1.32,2.7,3.46,4.98,5.34,7.39-3.95-2.54-7.08-5.92-10.32-9.18-1.04-1.05-2.16-2.04-3.33-2.94-.68-.53-1.6-.57-2.16,.21-.55,.77-.19,1.46,.48,2.09,3.44,3.23,6.84,6.49,10.24,9.75,1.36,1.31,2.71,2.62,4.02,3.98,.48,.49,.21,1-.31,1.3-.39,.22-.71,.04-.97-.34-3.82-5.53-9.87-8.65-14.44-13.38-.58-.6-1.41-.97-2.14-.28-.91,.87-.43,1.73,.34,2.41,3.44,3.03,6.9,6.03,10.33,9.06,.79,.7,1.86,1.14,2.21,2.29-.67,.95-1.41,.33-2.07,.06-3.52-1.42-6.97-3.09-9.73-5.68-2.67-2.51-5.75-3.87-9.17-4.8-1.69-.46-3.34-1.05-4.99-1.65-1.06-.38-1.94-.23-2.34,.83-.45,1.18,.4,1.69,1.37,2,2.44,.77,4.87,1.53,7.31,2.28,.76,.24,1.62,.28,2.14,1.65Z"></path><path class="cls-1" d="M322.31,98.71c1.92,.98,3.21,1.66,4.52,2.3,3.27,1.6,4.7,4.31,4.58,7.84-.25,7.54-.51,15.07-.91,22.6-.29,5.51-.91,10.99-1.22,16.5-.13,2.29-.6,4.16-2.75,5.37-.8,.45-1.46,1.2-2.07,1.91-.99,1.17-1.84,1.24-2.99,.15-1.36-1.29-2.84-2.48-4.37-3.58-2.98-2.15-3.02-2.11-2.32-5.39,2.58-12.09,5.03-24.22,7.43-36.35,.73-3.7,.12-7.2,.1-11.36Z"></path><path class="cls-3" d="M284.57,211.29c-3.44-.67-4.19-2.31-4.2-5.03-.15-25.86,.64-51.71,.09-77.57,0-.26,.09-.53,.15-.79,.24,.02,.59-.06,.7,.07q2.97,3.39,5.68-.23c1.35-1.82,2.65-3.68,4.28-5.95,1.16,3.26,1.13,6.52,2.85,9.19,.24,.38-.31,1.25-.45,1.9-3.84,17.48-6.8,35.1-8.78,52.89-.42,3.74-.46,7.52-.59,11.29-.1,3.08,.4,6.16-.49,9.22-.44,1.54,.09,3.15,.77,5Z"></path><path class="cls-1" d="M313.48,152.84c5.27,3.49,9.22,7.5,13.23,11.44,1.03,1.01,.54,1.84,.03,2.86-4.31,8.67-8.5,17.39-12.88,26.03-3.04,6-5.95,12.05-8.16,18.42-.89,2.55-2.13,4.93-3.58,7.21-.48,.76-1.05,1.14-1.99,.66-1.09-.55-.72-1.24-.29-1.97,.68-1.16,1.33-2.34,2.06-3.47,1.13-1.73,1.73-3.64,1.9-5.68,.39-4.69,.77-9.38,1.13-14.08,.16-2.09-.36-4.28,1.63-5.97,.55-.47,.4-1.78,.53-2.7,1.54-10.77,4.04-21.35,6.39-32.75Z"></path><path class="cls-8" d="M46.62,138.9c.09-8.29,2.89-15.51,8.66-21.49,10.69-11.08,23.46-18.33,38.8-20.7,4.67-.72,9.38-.81,14.1-.78,1.45,0,1.83,.68,1.81,1.99-.03,2.04,.03,3.88-2.23,5.13-2.19,1.22-2.86,3.82-4.09,5.89-1.91,3.2-1.92,3.21-5.22,1.79-7.58-3.24-15.37-3.66-23.31-1.72-1.94,.47-3.93,.95-5.38,2.56-.34,.38-.85,.69-1.34,.83-9.55,2.65-14.36,9.86-17.58,18.47-2.09,5.58-2.47,11.54-3.39,17.38-2.21-1.12-.9-3.13-1.1-4.71-.2-1.52-.28-3.12,.27-4.64Z"></path><path class="cls-3" d="M152.85,162.57c.18-1.93,.41-3.59,2.1-4.34,4.33-1.91,5.97-5.93,7.89-9.75,.18-.36,.38-.74,.41-1.13,.35-3.62,2.29-5.41,6.42-5.11,1.77,19.99-1.21,39.84-3.88,60.1-1.92-1.57-2.85-3.24-3.19-5.19-.95-5.32-2.52-10.45-4.53-15.44-.61-1.52-.66-2.74,.18-4.17,.75-1.26,1.29-2.66,1.77-4.05,1.02-2.97,1.02-3.05-1.85-4.95-.79-.52-.68-.99-.54-1.62q.88-4.05-3.27-4.2c-.4-.02-.8-.07-1.5-.14Z"></path><path class="cls-3" d="M238.72,311.8c-3.49,.86-6.96,1.76-10.47,2.56-1.97,.45-3.45,1.38-4.21,3.33-1.24,3.2-3.67,4.77-6.99,5.3-2.64,.42-5.23,1.09-8.29,1.74-.16-7.23,.26-14.44-5.75-19.48,.41-1.22,1.2-1.58,2.13-1.78,3.99-.87,7.61-2.68,11.11-4.69,2.69-1.55,5.41-2.26,8.71-1.55-.67,1.59-2.16,1.9-3.4,2.4-2.37,.95-4.8,1.73-7.19,2.64-.89,.34-1.88,.86-1.53,2.02,.41,1.34,1.5,1.35,2.63,.85,3.43-1.53,7.18-2.34,10.36-4.42,1.33-.87,2.75-1.22,4.23-.94,3.77,.71,7.52,1.57,11.81,2.47-3.04,.92-4.75,1.1-8.93,.27-4.66-.92-8.69,1.18-12.92,2.3-1.02,.27-1.5,1.17-.94,2.24,.47,.89,1.27,.81,2.1,.51,1.14-.41,2.28-.8,3.42-1.19,3.51-1.2,7.03-1.33,10.72-.73,3.16,.52,6.44,.34,9.67,.44,.83,.03,1.76-.04,1.86,1.02,.09,.98-.66,1.37-1.56,1.46-.93,.1-1.93,.52-2.76,.28-4.39-1.27-8.83-.27-13.23-.44-.52-.02-1.08,.09-1.59,.25-.83,.24-1.5,.76-1.33,1.72,.2,1.14,1.11,1.63,2.11,1.27,3.4-1.2,6.84-.3,10.25-.66,0,.27,0,.53,0,.8Z"></path><path class="cls-1" d="M239.4,122.23c1.15,.77,1.17,1.75,1.4,2.62,1.81,7.01,2.7,14.26,5.54,21.02,.39,.92,.14,2.13,.13,3.2-.02,9.03-.44,18.08,.97,27.04,.9,5.73,1.36,11.47,1.68,17.51-3.36-.88-6.01-2.76-8.9-4.05-.53-.23-.87-.56-.85-1.2,.13-4.57-1.21-8.99-1.13-13.61,.24-12.53-.06-25.08,.38-37.61,.17-4.91,.5-9.81,.78-14.92Z"></path><path class="cls-1" d="M277.28,97.2c-.19,3.67-.74,7.17-.48,10.62,.7,9.4,.6,18.81,.73,28.23,.01,.81-.04,1.62,.03,2.42,.15,1.57-.31,2.47-2.08,2.71-1.44,.2-2.8,.94-4.24,1.27-1.1,.25-2.03,1.28-3.41,.53-2.02-1.1-3.93-2.32-5.56-3.94-.41-.4-.25-.98-.14-1.52,1.83-8.38,3.64-16.76,5.46-25.14,.63-2.89,1.45-5.74,1.9-8.66,.67-4.27,3.1-6.33,7.77-6.52Z"></path><path class="cls-10" d="M161.18,216.71c-12.15,5.33-23.98,10.5-35.78,15.73-1.48,.65-2.75,.77-4.19-.06-.91-.53-2-.76-3.01-1.14,.08-.88,.75-1.48,1.47-1.74,4.02-1.44,6.53-4.62,9.1-7.74,5.14-6.24,10.29-12.46,14.61-19.32,.21-.33,.46-.63,.8-1.09,4.49,6.38,10.71,10.47,17,15.35Z"></path><path class="cls-10" d="M124.28,160.4c.17-1.59,.32-3.06-.57-4.66-1.93-3.44-.61-6.33,3.08-7.42,.38-.11,.79-.15,1.19-.2,1.12-.14,2.37-.37,1.97-1.85-.35-1.33-1.69-1.22-2.73-1.02-2.13,.41-4.14,1.28-5.92,2.49-1.54,1.04-2.36,.57-3.22-.82-1.01-1.63-1.91-3.2-1.5-5.26,.47-2.34-.27-4.53-1.21-6.64-2.3-5.16-4.64-10.3-6.92-15.47-1-2.28-2.85-3.89-4.56-5.84,1.51-1.84,2.66-3.92,3.88-6.25,1.44,8.86,6.82,14.93,12.71,20.6,6.27,6.03,11.39,12.89,15.44,20.55,1.45,2.75,1.23,3.36-1.75,4.54-1.71,.68-1.89,2.2-2.35,3.52-.52,1.5-1.23,2.27-2.92,2.01-1.56-.24-2.95,.16-3.81,1.64-.24,.37-.52,.41-.82,.07Z"></path><path class="cls-6" d="M346.68,361.27c10.15-.35,19.17,2.38,27.51,7.51,10.68,6.57,19.56,15.17,27.6,24.72,1.28,1.52,1.4,2.68,.01,4.11-1.02,1.04-1.89,2.22-3.07,3.63-3.77-4.83-7.69-9.2-11.62-13.57-6.46-7.16-13.88-13.16-21.74-18.67-4.84-3.39-10.37-5.06-16.06-6.32-.87-.19-1.93,.05-2.63-1.43Z"></path><path class="cls-10" d="M47.06,194.68c.68-1.83,1.23-3.74,2.63-5.76,1.3,2.2,3.39,2.78,5.44,3.6,10.87,4.37,21.6,9.07,31.56,15.32,4.83,3.03,5.12,1.57,3.51,8.5-7.26-1.69-35.15-16.05-43.14-21.66Z"></path><path class="cls-3" d="M112.85,104.36c1.23,1.54,2.37,3.18,3.73,4.62,5.7,6.03,12.56,9.97,20.78,11.49,2.45,.45,3.6,2.82,1.84,4.32-1.89,1.6-2.12,3.62-2.71,5.6-.45,1.52-1.21,1.93-2.65,1.5-4.28-1.28-8.34-2.93-11.65-6.11-3.21-3.09-6.01-6.5-8.42-10.25-2.23-3.47-3.67-6.95-.92-11.16Z"></path><path class="cls-3" d="M283.77,126.11c-1.83-3.52-2.98-7.15-3.49-11.04-.8-6.04-.8-12.06,.2-18.06,.22-1.31,.66-2.61,1.14-3.85,.26-.68,.99-.85,1.72-.7,1.09,.23,.61,.96,.47,1.55-.55,2.3,.37,4.21,1.58,6.05,2.17,3.33,5.05,5.95,8.41,7.99,1.68,1.02,1.83,1.87,.7,3.47-2.78,3.96-5.38,8.04-8.03,12.09-.66,1-1.34,1.93-2.68,2.5Z"></path><path class="cls-10" d="M155.37,182.84c1.73,4.13,2.8,7.6,3.6,11.13,.84,3.68,1.53,7.39,4.02,10.38,1.07,1.28,.42,2.49,.26,3.77-.22,1.72-.09,3.5-1.22,5.4-5.48-3.87-11-7.6-14.9-13.21-.59-.85-1.32-1.77-.6-2.95,2.85-4.67,5.69-9.34,8.85-14.51Z"></path><path class="cls-3" d="M309.97,126.95c-1.7-1.79-1.34-4.28-2.24-6.32-1.41-3.19-2.5-6.52-3.8-9.75-.46-1.14-.63-1.85,.79-2.52,6.23-2.93,10.45-7.8,13.09-14.28,4.09,9.79,.51,21.91-7.84,32.87Z"></path><path class="cls-6" d="M410.77,278.49c-3.57,0-7.13,.07-10.69-.02-4.98-.13-4.98-.18-5.74,5.06-2.71-1.92-5.26-3.83-7.92-5.57-2.7-1.77-5.94-2.37-9.2-3.99,2.64-2.66,5.17-5.19,7.67-7.74,.69-.7,1.35-.59,2.16-.18,7.96,4,15.92,7.97,23.89,11.95-.06,.17-.12,.33-.17,.5Z"></path><path class="cls-11" d="M306.43,172.33c-.66-14.68-.43-29.29-1.35-43.87-.04-.61,.4-1.24,.73-2.17,.99,1.06,1.16,2.2,1.6,3.23,.9,2.13,1.91,2.34,3.63,.81,1.63-1.45,2.68-3.35,3.84-5.16,.26-.4,.36-1.06,1.64-.99-3.38,16.11-6.74,32.14-10.1,48.17Z"></path><path class="cls-10" d="M172.64,105.24c2.31-.11,2.87,1.36,3.48,2.67,4.08,8.68,6.84,17.76,8.18,27.27,.19,1.33,.36,2.66,.52,3.99,.35,3.12-1.13,4.55-4.19,3.52-2.22-.75-4.37-1.07-6.68-1.1-1.78-.02-2.24-1.19-1.24-2.74,.44-.67,.93-1.38,1.58-1.82,2.83-1.92,3.18-4.67,2.97-7.78-.3-4.28-.24-8.61-3.39-12.1-.42-.46-.85-1.24-.75-1.78,.59-3.36-.44-6.63-.47-10.14Z"></path><path class="cls-3" d="M286.44,89.46c4.28,4.89,8.97,8.46,15.96,7.54,6.91-.91,10.58-5.54,13.27-12.4,1.65,10.21-6.81,19.45-12.74,21.34-3.23,1.03-6.53,1.05-9.43-1.48-2.55-2.22-5.08-4.2-5.37-8.02-.18-2.35-1.1-4.65-1.69-6.98Z"></path><path class="cls-10" d="M386.24,230.09c5.15,13.43,8.48,27.2,15.62,39.75-2.63-.55-4.37-1.56-4.9-4.23-.61-3.08-2.92-5.1-5.05-7.14-4.27-4.07-7.24-8.98-9.77-14.25-1.08-2.24-1.22-4.26,.09-6.48,1.42-2.4,2.6-4.95,4.01-7.67Z"></path><path class="cls-9" d="M291.51,338.28c.09-1.44,1.22-1.69,1.68-2.45,1.03-1.7,2.37-1.67,4.14-1.24,12.12,2.98,23.36,8.14,34.45,13.67,2.66,1.33,5.12,2.99,7.4,4.9,1.03,.86,2.02,1.81,2.1,3.32,.05,.93-.47,1.59-1.18,1.97-.77,.43-1.1-.35-1.56-.83-2.38-2.5-5.52-3.84-8.52-5.31-7.49-3.67-15.09-7.12-22.64-10.68-5.02-2.37-10.29-3.57-15.88-3.35Z"></path><path class="cls-8" d="M46.62,138.9c.02,2.13,.04,4.26,.08,6.38,.02,1.04-.21,2.16,.75,2.96,.23,4.29-.31,8.6,.41,12.86,1,5.93,3.38,11.27,7,16.07,.94,1.24,2.23,2.38,1.99,4.2-.34,2.49-4.46,5.62-7.29,4.85-1.05-.28-1.04-.95-1.22-1.75-3.1-13.76-2.26-27.74-2.32-41.67,0-1.32-.19-2.7,.6-3.92Z"></path><path class="cls-3" d="M90.21,206.61c-11.29-7.31-23.51-12.32-35.49-17.96,1.69-.94,3.25-1.21,4.91-.51,7.67,3.22,15.55,5.97,22.79,10.15,2.69,1.55,5.26,3.25,7.36,5.58,.55,.62,.99,1.26,.43,2.75Z"></path><path class="cls-10" d="M298.21,117.54c.13,0,.27,0,.4,0,5.7,.16,6.61,1.46,4.71,6.76-1.41,3.93-1.83,4.2-5.52,4.41-1.37,.08-2.02-.48-2.29-1.67-.38-1.7-.78-3.41-1.05-5.13-.56-3.51,.21-4.36,3.74-4.38Z"></path><path class="cls-7" d="M154.6,165.4c.05,2.06-.39,3.34-2.45,3.09-5.9-.72-11.67-1.92-16.51-5.67-2.48-1.92-2.41-2.01-.68-5.67,5.76,4.73,11.6,9.34,19.64,8.24Z"></path><path class="cls-3" d="M353.15,294.46c-3.17-.53-3.19-.53-2.9-3.17,.17-1.59,.36-3.19,.65-4.77,1.31-7.13,10.14-12.47,16.74-10.03-2.77,1.8-5.43,3.64-8.73,4.02-2.17,.25-3.35,1.58-4.09,3.4-1.06,2.62-2.02,5.28-1.51,8.2,.14,.79,.31,1.6-.17,2.35Z"></path><path class="cls-3" d="M203.47,328.51c1.11-10.18-1.59-18.8-10.36-24.99,1.55-1.01,2.5-.9,3.62-.17,7.12,4.65,11.07,14.68,8.94,22.95-.22,.86-.22,1.94-2.2,2.21Z"></path><path class="cls-3" d="M347.07,279.86c4.35-6.72,11.19-8.62,18.52-9.48,3.04-.35,5.05,1.49,7.09,3.38-.85,.79-1.43,.56-2.08,.26-4.68-2.11-9.17-1.36-13.54,.96-2.5,1.33-4.9,2.84-6.96,4.78-1.15,1.08-2.08,.89-3.03,.11Z"></path><path class="cls-3" d="M168.57,61.32c-.57,2.8-.75,5.43,.14,8.05,.54,1.61,.42,2.57-1.68,3.08-3.18,.77-3.14,1.01-4.59-1.83-.67-1.3-1.37-2.59-1.87-3.96-.89-2.43-.12-4.33,2.27-5,1.72-.48,3.54-1.28,5.73-.33Z"></path><path class="cls-3" d="M282.67,233.62c1.84,1.16,2.35,2.17,1.55,3.9-2.42,5.22-4.85,10.42-7.67,15.45-.37,.66-.61,1.12-1.46,.75-1.04-.46-.85-1.08-.48-1.93,2.68-5.97,5.31-11.97,8.05-18.18Z"></path><path class="cls-3" d="M398.64,282.86c3.52,8.69,4.83,17.84,5.21,27.19-2.1-4.23-2.22-8.95-3.31-13.43-1.1-4.51-1.86-9.11-2.77-13.68,.29-.03,.59-.06,.88-.09Z"></path><path class="cls-3" d="M129.75,133.88c3.14,.37,5.58,1.87,8.43,.81,.14,3.3-.28,6.28-1.08,9.96-2.31-3.91-4.58-7.15-7.35-10.77Z"></path><path class="cls-2" d="M272.53,53.65c1.8,4.33,2.72,8.17,3.68,12.06-4.79-1.09-6.07-4.83-3.68-12.06Z"></path><path class="cls-4" d="M320.81,63.01c0-3.72-.01-6.72,.01-9.73,0-.49-.06-1.07,.6-1.29,.6-.19,1.02,.1,1.4,.49,1.65,1.72,1.78,3.82,1.21,5.95-.4,1.52-1.12,2.95-3.22,4.57Z"></path><path class="cls-3" d="M303.06,113.98c-2.23,1.02-4.17,.5-5.77,1.43-.23-.52-.47-.81-.41-.96,.74-1.66,.44-4.56,2.17-4.78,2.07-.27,2.37,2.76,4,4.31Z"></path><path class="cls-9" d="M389.37,260.06c2.02,1.73,3.62,3.29,5,5.96-2.62-.4-4.36-1.4-5.85-2.48-1.66-1.2,.14-2.18,.86-3.48Z"></path><path class="cls-3" d="M392.07,309.97c2.19-.97,4.54-.65,6.74-1.4,.71-.24,1.28,.25,1.4,1.04,.14,.83-.3,1.32-1.09,1.28-2.35-.1-4.75,.1-7.06-.92Z"></path><path class="cls-10" d="M104.9,121.6c.27-.26,.54-.53,.81-.79,2.5,3.1,2.66,6.08,.28,10.53-.33-3.55,.61-6.83-1.09-9.73Z"></path><path class="cls-3" d="M116.66,174.48c.29,1.4,.9,2.99-.4,3.71-1.34,.74-2.62-.42-3.95-1.28,1.05-1.86,2.55-2.31,4.35-2.43Z"></path><path class="cls-3" d="M319.87,254.38c2.73,1.26,4.3,2.54,5.5,4.3,.49,.71,.73,1.52-.1,2.08-.73,.5-1.18-.2-1.58-.7-1.23-1.54-2.52-3.03-3.83-5.68Z"></path><path class="cls-3" d="M170.54,110.97c-1.83-1.9-2.61-3.48-4.05-4.39,.54-1.01,.98-2.06,1.98-2.05,1.19,.01,1.17,1.23,1.34,2.1,.23,1.16,.39,2.33,.72,4.33Z"></path><path class="cls-3" d="M393.07,135.43c-.75,1.94-1.77,3.03-3.33,3.68q-1.26-3.39,3.33-3.68Z"></path><path class="cls-10" d="M399.63,93.15c.27-.27,.55-.54,.82-.82,1.38,1.48,2.02,3.38,2.8,5.26-1.63-1.12-2.88-2.56-3.61-4.44Z"></path><path class="cls-10" d="M124.28,160.4c.27-.02,.55-.05,.82-.07-.53,1.85-1.42,3.49-2.95,4.74,.24-1.79,.83-3.39,2.12-4.66Z"></path><path class="cls-3" d="M129.17,73.11c-.19,.34-.38,.72-.88,.56-.41-.13-.67-.42-.68-.86-.03-.8,.56-.82,1.06-.67,.36,.11,.58,.52,.51,.97Z"></path><path class="cls-3" d="M257.23,261.05c-1.87,1.61-3.93,2.6-5.93,3.66-9.17,4.86-18.24,9.88-26.94,15.55-1.44,.93-2.55,1.39-4.3,.31-17.07-10.56-34.97-19.72-51.89-30.54-.56-.36-1.12-.7-1.65-1.04,.14-1.32,1.29-1.41,2.05-1.79,11.59-5.73,23.22-11.37,34.8-17.12,1.54-.77,2.59-.66,3.97,.39,11.7,8.98,24.44,16.24,37.7,22.65,4.36,2.11,8.57,4.48,12.18,7.92Z"></path><path class="cls-5" d="M395.17,109.94c-.27,1.59-.16,3.32-1.92,3.39-1.59,.06-2.72-1.02-2.94-2.76-.2-1.64-.17-3.24,1.12-4.5,.55-.54,1.27-.5,1.86-.12,1.55,1,1.49,2.73,1.88,3.98Z"></path><path class="cls-5" d="M391.93,103.21c-.6,.08-1.66,.27-2.72,.37-.4,.04-.78-.18-.9-.63-.12-.42,0-.77,.31-1.07,1.4-1.33,7.07-1.21,8.39,.21,.16,.16,.2,.49,.19,.74-.01,.47-.39,.73-.78,.71-1.34-.06-2.68-.19-4.5-.33Z"></path><path class="cls-5" d="M417.15,122.91c.8,.17,1.55,.24,1.52,1.09-.03,.99-.54,1.72-1.65,1.75-.71,.02-1.26-.3-1.32-1.08-.09-1.14,.63-1.57,1.45-1.76Z"></path><path class="cls-5" d="M214.63,207.26c-.51-.21-.95-.51-1.11-1.07-.16-.55-.11-1.14,.35-1.47,2.75-1.95,5.77-3.37,9-4.3,.68-.19,1.31,.26,1.59,.94,.23,.56,0,1.14-.48,1.39-2.97,1.52-5.96,2.99-8.95,4.47-.11,.05-.26,.02-.4,.04Z"></path><path class="cls-5" d="M299.59,82.65c-2.61-.13-6.94-3.62-7.44-6.06-.19-.95,.35-1.66,1.26-1.68,4.17-.08,8.27-.67,12.4-1.22,2.02-.27,2.84,1,2.42,3.1-.66,3.34-4.68,6.07-8.65,5.87Z"></path><path class="cls-5" d="M299.95,65.21c0,1.2,.05,2.4-.02,3.6-.05,.85-.48,1.59-1.41,1.63-.94,.05-1.45-.68-1.52-1.51-.12-1.46-.07-2.93-.14-4.39-.08-1.86-.2-3.73-.3-5.59-.05-.85,.11-1.66,1.09-1.82,.95-.16,1.49,.5,1.68,1.34,.49,2.22,.75,4.47,.61,6.75Z"></path><path class="cls-5" d="M310.57,46.77c.4,.05,.8,.08,1.19,.15,1.06,.18,2.37,.32,2.18,1.75-.2,1.5-1.55,1.12-2.58,1.01-2.41-.24-4.78-.22-7.07,.71-.83,.34-1.63,.24-1.99-.65-.35-.87,.11-1.57,.87-2,2.33-1.31,4.87-1.17,7.41-.97Z"></path><path class="cls-5" d="M287.96,50.9c-1.81-.12-3.25-.08-4.6,.66-.65,.36-1.32,.16-1.74-.46-.42-.62-.29-1.24,.19-1.82,1.38-1.69,7.73-2.15,9.35-.64,.95,.89,.58,1.87-.39,2.19-.95,.31-2.09,.07-2.81,.07Z"></path><path class="cls-5" d="M288.07,53.54c1.28-.01,1.91,.82,2.04,1.98,.16,1.33-.32,2.57-1.79,2.67-1.29,.09-2.41-.64-2.44-2.13-.03-1.37,.75-2.24,2.18-2.52Z"></path><path class="cls-5" d="M308.43,52.42c1.32,.14,2.01,.89,2.12,2.13,.13,1.46-.45,2.51-2.11,2.59-1.38,.06-2.1-.76-2.19-2.04-.11-1.46,.57-2.39,2.18-2.68Z"></path><path class="cls-5" d="M113.98,149.13c-.07,.8-.06,1.34-.17,1.86-.2,.99-.79,1.86-1.78,1.95-.98,.09-1.71-.62-2.11-1.58-.8-1.93-1.23-3.83,.03-5.75,.47-.72,1.03-1.31,1.93-1.12,.68,.14,1.16,.69,1.34,1.37,.31,1.16,.54,2.34,.75,3.26Z"></path><path class="cls-5" d="M141.39,65.03c-1.07,0-1.99,.06-2.25-.9-.33-1.21,.55-1.62,1.54-1.86,3.41-.83,6.89-.98,10.37-1,1.11,0,2.29,.35,2.2,1.76-.08,1.24-1.15,1.3-2.13,1.21-3.38-.31-6.67,.44-9.72,.8Z"></path><path class="cls-5" d="M149.35,69.37c-.07,1.86-1.33,3.48-2.52,3.45-1.18-.03-2.26-1.52-2.04-3.01,.21-1.41,.8-2.67,2.5-2.65,1.52,.02,2.03,1.08,2.06,2.21Z"></path><path class="cls-5" d="M164.56,70.59c-1.49-.11-1.91-1.23-1.91-2.46,0-1.38,.47-2.72,2.09-2.85,1.25-.1,1.82,.82,1.94,2.01,.17,1.66-.81,3.22-2.13,3.31Z"></path><path class="cls-3" d="M296.64,77.88c2.83-.4,5.39-.75,8.19-1.14-2.55,3.52-4.82,3.85-8.19,1.14Z"></path></g></g></svg>