<?xml version="1.0" encoding="UTF-8"?><svg id="Layer_2" xmlns="http://www.w3.org/2000/svg" viewBox="0 0 73.81 73.81"><defs><style>.cls-1 {
  fill: #fff;
}

.cls-2 {
  fill: #1d9bf0;
}

</style></defs><g id="upward_lp"><g><rect class="cls-2" width="73.81" height="73.81" rx="15.5" ry="15.5"></rect><path class="cls-1" d="M28.35,55.65c17.41,0,26.93-14.42,26.93-26.93,0-.41,0-.82-.03-1.22,1.85-1.34,3.45-3,4.72-4.9-1.7,.75-3.52,1.26-5.44,1.49,1.95-1.17,3.45-3.03,4.16-5.24-1.83,1.08-3.85,1.87-6.01,2.3-1.73-1.84-4.19-2.99-6.91-2.99-5.23,0-9.47,4.24-9.47,9.46,0,.74,.08,1.47,.25,2.16-7.87-.4-14.84-4.16-19.51-9.89-.81,1.4-1.28,3.02-1.28,4.76,0,3.28,1.67,6.18,4.21,7.88-1.55-.05-3.01-.47-4.29-1.18,0,.04,0,.08,0,.12,0,4.58,3.26,8.41,7.59,9.28-.79,.22-1.63,.33-2.49,.33-.61,0-1.2-.06-1.78-.17,1.2,3.76,4.7,6.5,8.84,6.57-3.24,2.54-7.32,4.05-11.75,4.05-.76,0-1.52-.04-2.26-.13,4.19,2.68,9.16,4.25,14.51,4.25"></path></g></g></svg>