<?xml version="1.0" encoding="UTF-8"?><svg id="Layer_2" xmlns="http://www.w3.org/2000/svg" xmlns:xlink="http://www.w3.org/1999/xlink" viewBox="0 0 77.02 77.02"><defs><style>.cls-1 {
  fill: url("#_称未設定グラデーション_23");
}

</style><linearGradient id="_称未設定グラデーション_23" x1="38.51" y1="-2.64" x2="38.51" y2="77.78" gradientTransform="matrix(1, 0, 0, 1, 0, 0)" gradientUnits="userSpaceOnUse"><stop offset="0" stop-color="#d76735"></stop><stop offset="1" stop-color="#f1ae2a"></stop></linearGradient></defs><g id="upward_lp"><path class="cls-1" d="M38.51,0C17.24,0,0,17.24,0,38.51c0,21.27,17.24,38.51,38.51,38.51,21.27,0,38.51-17.24,38.51-38.51C77.02,17.24,59.78,0,38.51,0ZM14.68,14.69c3.51-3.51,7.79-6.24,12.55-7.93-2.28,2.76-4.19,6.3-5.68,10.4H12.45c.7-.86,1.45-1.68,2.23-2.47Zm-4.81,6.08h10.53c-1.36,4.8-2.17,10.2-2.31,15.95H4.86c.31-5.84,2.1-11.27,5.01-15.95Zm0,35.5c-2.91-4.68-4.7-10.11-5.01-15.95h13.24c.14,5.73,.93,11.15,2.29,15.95H9.87Zm4.81,6.08c-.78-.78-1.53-1.61-2.23-2.47h9.11c.64,1.77,1.36,3.45,2.15,5,1.05,2.02,2.22,3.83,3.51,5.4-4.76-1.69-9.04-4.42-12.55-7.93Zm21.97,9.82c-.56-.03-1.12-.07-1.68-.13-.89-.4-1.76-.94-2.63-1.65-2.65-2.16-5.11-5.82-6.98-10.51h11.29v12.29h0Zm0-15.9h-12.55c-1.43-4.69-2.3-10.13-2.46-15.95h15.01v15.95h0Zm0-19.56h-15c.15-5.82,1.03-11.26,2.46-15.95h12.54v15.95h0Zm0-19.56h-11.27c.47-1.17,.96-2.3,1.49-3.34,1.6-3.1,3.49-5.55,5.47-7.17,.87-.71,1.75-1.25,2.63-1.65,.56-.06,1.12-.1,1.68-.13v12.29h0Zm30.5,3.61c2.91,4.68,4.7,10.11,5.01,15.95h-13.24c-.14-5.74-.93-11.15-2.29-15.95h10.52Zm-4.81-6.08c.78,.78,1.53,1.61,2.23,2.47h-9.11c-.64-1.77-1.36-3.45-2.15-5-1.05-2.02-2.22-3.83-3.51-5.4,4.76,1.69,9.04,4.42,12.55,7.93ZM40.26,4.87c.56,.03,1.12,.07,1.68,.13,.89,.4,1.76,.94,2.63,1.65,2.65,2.16,5.11,5.82,6.98,10.51h-11.29V4.87Zm0,15.9h12.55c1.43,4.69,2.3,10.13,2.46,15.95h-15.01v-15.95Zm0,19.56h15c-.15,5.82-1.03,11.25-2.46,15.95h-12.53v-15.95Zm4.31,30.06c-.87,.71-1.75,1.25-2.63,1.65-.56,.06-1.12,.1-1.68,.13v-12.29h11.27c-.47,1.17-.96,2.3-1.49,3.34-1.6,3.1-3.49,5.55-5.47,7.17Zm17.76-8.04c-3.51,3.51-7.79,6.24-12.55,7.93,2.28-2.76,4.19-6.3,5.68-10.4h9.11c-.7,.86-1.45,1.68-2.23,2.47Zm4.81-6.08h-10.53c1.36-4.8,2.17-10.21,2.31-15.95h13.22c-.31,5.84-2.1,11.27-5.01,15.95Z"></path></g></svg>