<?xml version="1.0" encoding="UTF-8"?><svg id="Layer_2" xmlns="http://www.w3.org/2000/svg" xmlns:xlink="http://www.w3.org/1999/xlink" viewBox="0 0 1485 716"><defs><style>.cls-1 {
  fill: #f7c44f;
}

.cls-2 {
  fill: #f5c047;
}

.cls-3 {
  fill: #f5be45;
}

.cls-4 {
  fill: #fcd369;
}

.cls-5 {
  fill: #f3b93d;
}

.cls-6 {
  fill: #f8c551;
}

.cls-7 {
  fill: #f1ae29;
}

.cls-8 {
  fill: #f9c857;
}

.cls-9 {
  fill: #f4ba3f;
}

.cls-10 {
  fill: #fbd065;
}

.cls-11 {
  fill: #f5be44;
}

.cls-12 {
  fill: #fcd167;
}

.cls-13 {
  fill: #fbce61;
}

.cls-14 {
  fill: #facc5e;
}

.cls-15 {
  fill: #f5bd43;
}

.cls-16 {
  fill: #fcd166;
}

.cls-17 {
  fill: #f7c550;
}

.cls-18 {
  fill: #f9c958;
}

.cls-19 {
  fill: #f8c654;
}

.cls-20 {
  fill: #f2b12f;
}

.cls-21 {
  fill: #fbcd5f;
}

.cls-22 {
  fill: #f7c34d;
}

.cls-23 {
  fill: #f8c755;
}

.cls-24 {
  fill: #fbcc5f;
}

.cls-25 {
  fill: #fbcf64;
}

.cls-26 {
  fill: #facb5c;
}

.cls-27 {
  fill: #f4ba40;
}

.cls-28 {
  fill: #fcd268;
}

.cls-29 {
  fill: #f4bc42;
}

.cls-30 {
  fill: #fbd064;
}

.cls-31 {
  fill: #fbce60;
}

.cls-32 {
  fill: #f8c652;
}

.cls-33 {
  fill: #f1b02d;
}

.cls-34 {
  fill: #f7c44d;
}

.cls-35 {
  fill: #faca5b;
}

.cls-36 {
  fill: #fbd165;
}

.cls-37 {
  fill: #fdd770;
}

.cls-38 {
  fill: #f9c755;
}

.cls-39 {
  fill: #f5bf45;
}

.cls-40 {
  fill: #f8c651;
}

.cls-41 {
  fill: #f2b334;
}

.cls-42 {
  fill: #f1af2b;
}

.cls-43 {
  fill: #f1af2c;
}

.cls-44 {
  fill: #f7c34c;
}

.cls-45 {
  fill: #f5bd44;
}

.cls-46 {
  fill: #f4b93e;
}

.cls-47 {
  fill: #f8c754;
}

.cls-48 {
  fill: #fcd267;
}

.cls-49 {
  fill: #faca5a;
}

.cls-50 {
  fill: #f2b230;
}

.cls-51 {
  fill: #fac95a;
}

.cls-52 {
  fill: #f4bb41;
}

.cls-53 {
  fill: #f8c653;
}

.cls-54 {
  fill: #fbcd60;
}

.cls-55 {
  fill: #f9c756;
}

.cls-56 {
  fill: #f7c54f;
}

.cls-57 {
  clip-path: url("#clippath");
}

.cls-58 {
  fill: #f2b436;
}

.cls-59 {
  fill: #fbcf63;
}

.cls-60 {
  fill: none;
}

.cls-61 {
  fill: #f5bf46;
}

.cls-62 {
  fill: #f4ba3e;
}

.cls-63 {
  fill: #f2b12e;
}

.cls-64 {
  fill: #f3b73b;
}

.cls-65 {
  fill: #f6c24a;
}

.cls-66 {
  fill: #f6c249;
}

.cls-67 {
  fill: #f3b73c;
}

.cls-68 {
  fill: #f3b538;
}

.cls-69 {
  fill: #f5bf47;
}

.cls-70 {
  fill: #f6c34b;
}

.cls-71 {
  fill: #f6c148;
}

.cls-72 {
  fill: #facb5d;
}

.cls-73 {
  fill: #f7c44e;
}

.cls-74 {
  fill: #f9c858;
}

.cls-75 {
  fill: #fdd66f;
}

.cls-76 {
  fill: #faca5c;
}

.cls-77 {
  fill: #f3b83d;
}

.cls-78 {
  fill: #f6c149;
}

.cls-79 {
  fill: #f2b536;
}

.cls-80 {
  fill: #fcd46a;
}

.cls-81 {
  fill: #fbce62;
}

.cls-82 {
  fill: #fac959;
}

.cls-83 {
  fill: #f4bb40;
}

.cls-84 {
  fill: #f4bc41;
}

.cls-85 {
  fill: #f3b83c;
}

.cls-86 {
  fill: #facc5d;
}

.cls-87 {
  fill: #f3b73a;
}

.cls-88 {
  fill: #fcd36a;
}

.cls-89 {
  fill: #f6c048;
}

.cls-90 {
  fill: #fcd368;
}

.cls-91 {
  fill: #f2b434;
}

</style><clipPath id="clippath"><polygon class="cls-60" points="0 716 1278.25 716 1485 0 0 0 0 716"></polygon></clipPath></defs><g id="upward_lp"><g id="triangle_texture"><g class="cls-57"><g><polygon class="cls-35" points="1051.85 -8.42 1099.53 74.16 1147.21 -8.42 1051.85 -8.42"></polygon><polygon class="cls-16" points="1004.17 74.16 1099.53 74.16 1051.85 -8.42 1004.17 74.16"></polygon><polygon class="cls-59" points="1146.66 -8.42 1194.34 74.16 1242.02 -8.42 1146.66 -8.42"></polygon><polygon class="cls-8" points="1098.99 74.16 1194.34 74.16 1146.66 -8.42 1098.99 74.16"></polygon><polygon class="cls-26" points="1241.48 -8.42 1289.16 74.16 1336.83 -8.42 1241.48 -8.42"></polygon><polygon class="cls-14" points="1193.8 74.16 1289.16 74.16 1241.48 -8.42 1193.8 74.16"></polygon><polygon class="cls-13" points="1336.29 -8.42 1383.97 74.16 1431.65 -8.42 1336.29 -8.42"></polygon><polygon class="cls-21" points="1288.61 74.16 1383.97 74.16 1336.29 -8.42 1288.61 74.16"></polygon><polygon class="cls-88" points="1431.11 -8.42 1478.78 74.16 1526.46 -8.42 1431.11 -8.42"></polygon><polygon class="cls-75" points="1383.43 74.16 1478.78 74.16 1431.11 -8.42 1383.43 74.16"></polygon><polygon class="cls-48" points="1478.24 74.16 1573.6 74.16 1525.92 -8.42 1478.24 74.16"></polygon><polygon class="cls-64" points="-85.92 -8.42 -38.24 74.16 9.44 -8.42 -85.92 -8.42"></polygon><polygon class="cls-46" points="8.9 -8.42 56.58 74.16 104.25 -8.42 8.9 -8.42"></polygon><polygon class="cls-50" points="-38.78 74.16 56.58 74.16 8.9 -8.42 -38.78 74.16"></polygon><polygon class="cls-63" points="103.71 -8.42 151.39 74.16 199.07 -8.42 103.71 -8.42"></polygon><polygon class="cls-41" points="56.03 74.16 151.39 74.16 103.71 -8.42 56.03 74.16"></polygon><polygon class="cls-62" points="577.78 -8.42 530.1 74.16 482.43 -8.42 577.78 -8.42"></polygon><polygon class="cls-39" points="625.46 74.16 530.1 74.16 577.78 -8.42 625.46 74.16"></polygon><polygon class="cls-27" points="482.97 -8.42 435.29 74.16 387.61 -8.42 482.97 -8.42"></polygon><polygon class="cls-77" points="530.64 74.16 435.29 74.16 482.97 -8.42 530.64 74.16"></polygon><polygon class="cls-61" points="388.15 -8.42 340.48 74.16 292.8 -8.42 388.15 -8.42"></polygon><polygon class="cls-27" points="435.83 74.16 340.48 74.16 388.15 -8.42 435.83 74.16"></polygon><polygon class="cls-87" points="293.34 -8.42 245.66 74.16 197.98 -8.42 293.34 -8.42"></polygon><polygon class="cls-52" points="341.02 74.16 245.66 74.16 293.34 -8.42 341.02 74.16"></polygon><polygon class="cls-43" points="246.2 74.16 150.85 74.16 198.53 -8.42 246.2 74.16"></polygon><polygon class="cls-65" points="1099.53 74.16 1004.17 74.16 1051.85 156.74 1099.53 74.16"></polygon><polygon class="cls-8" points="1099.53 74.16 1051.85 156.74 1147.21 156.74 1099.53 74.16"></polygon><polygon class="cls-14" points="1051.85 156.74 1099.53 239.32 1147.21 156.74 1051.85 156.74"></polygon><polygon class="cls-51" points="1004.17 239.32 1099.53 239.32 1051.85 156.74 1004.17 239.32"></polygon><polygon class="cls-4" points="1194.34 74.16 1098.99 74.16 1146.66 156.74 1194.34 74.16"></polygon><polygon class="cls-72" points="1194.34 74.16 1146.66 156.74 1242.02 156.74 1194.34 74.16"></polygon><polygon class="cls-16" points="1146.66 156.74 1194.34 239.32 1242.02 156.74 1146.66 156.74"></polygon><polygon class="cls-81" points="1098.99 239.32 1194.34 239.32 1146.66 156.74 1098.99 239.32"></polygon><polygon class="cls-59" points="1289.16 74.16 1193.8 74.16 1241.48 156.74 1289.16 74.16"></polygon><polygon class="cls-59" points="1289.16 74.16 1241.48 156.74 1336.83 156.74 1289.16 74.16"></polygon><polygon class="cls-26" points="1241.48 156.74 1289.16 239.32 1336.83 156.74 1241.48 156.74"></polygon><polygon class="cls-30" points="1193.8 239.32 1289.16 239.32 1241.48 156.74 1193.8 239.32"></polygon><polygon class="cls-48" points="1383.97 74.16 1288.61 74.16 1336.29 156.74 1383.97 74.16"></polygon><polygon class="cls-25" points="1383.97 74.16 1336.29 156.74 1431.65 156.74 1383.97 74.16"></polygon><polygon class="cls-13" points="1336.29 156.74 1383.97 239.32 1431.65 156.74 1336.29 156.74"></polygon><polygon class="cls-21" points="1288.61 239.32 1383.97 239.32 1336.29 156.74 1288.61 239.32"></polygon><polygon class="cls-28" points="1478.78 74.16 1383.43 74.16 1431.11 156.74 1478.78 74.16"></polygon><polygon class="cls-80" points="1478.78 74.16 1431.11 156.74 1526.46 156.74 1478.78 74.16"></polygon><polygon class="cls-88" points="1431.11 156.74 1478.78 239.32 1526.46 156.74 1431.11 156.74"></polygon><polygon class="cls-75" points="1383.43 239.32 1478.78 239.32 1431.11 156.74 1383.43 239.32"></polygon><polygon class="cls-10" points="1573.6 74.16 1478.24 74.16 1525.92 156.74 1573.6 74.16"></polygon><polygon class="cls-48" points="1478.24 239.32 1573.6 239.32 1525.92 156.74 1478.24 239.32"></polygon><polygon class="cls-68" points="-38.24 74.16 -85.92 156.74 9.44 156.74 -38.24 74.16"></polygon><polygon class="cls-64" points="-85.92 156.74 -38.24 239.32 9.44 156.74 -85.92 156.74"></polygon><polygon class="cls-50" points="56.58 74.16 -38.78 74.16 8.9 156.74 56.58 74.16"></polygon><polygon class="cls-79" points="56.58 74.16 8.9 156.74 104.25 156.74 56.58 74.16"></polygon><polygon class="cls-46" points="8.9 156.74 56.58 239.32 104.25 156.74 8.9 156.74"></polygon><polygon class="cls-50" points="-38.78 239.32 56.58 239.32 8.9 156.74 -38.78 239.32"></polygon><polygon class="cls-9" points="151.39 74.16 56.03 74.16 103.71 156.74 151.39 74.16"></polygon><polygon class="cls-58" points="151.39 74.16 103.71 156.74 199.07 156.74 151.39 74.16"></polygon><polygon class="cls-63" points="103.71 156.74 151.39 239.32 199.07 156.74 103.71 156.74"></polygon><polygon class="cls-41" points="56.03 239.32 151.39 239.32 103.71 156.74 56.03 239.32"></polygon><polygon class="cls-39" points="530.1 74.16 625.46 74.16 577.78 156.74 530.1 74.16"></polygon><polygon class="cls-53" points="530.1 74.16 577.78 156.74 482.43 156.74 530.1 74.16"></polygon><polygon class="cls-62" points="577.78 156.74 530.1 239.32 482.43 156.74 577.78 156.74"></polygon><polygon class="cls-44" points="625.46 239.32 530.1 239.32 577.78 156.74 625.46 239.32"></polygon><polygon class="cls-3" points="435.29 74.16 530.64 74.16 482.97 156.74 435.29 74.16"></polygon><polygon class="cls-64" points="435.29 74.16 482.97 156.74 387.61 156.74 435.29 74.16"></polygon><polygon class="cls-83" points="482.97 156.74 435.29 239.32 387.61 156.74 482.97 156.74"></polygon><polygon class="cls-77" points="530.64 239.32 435.29 239.32 482.97 156.74 530.64 239.32"></polygon><polygon class="cls-84" points="340.48 74.16 435.83 74.16 388.15 156.74 340.48 74.16"></polygon><polygon class="cls-29" points="340.48 74.16 388.15 156.74 292.8 156.74 340.48 74.16"></polygon><polygon class="cls-61" points="388.15 156.74 340.48 239.32 292.8 156.74 388.15 156.74"></polygon><polygon class="cls-27" points="435.83 239.32 340.48 239.32 388.15 156.74 435.83 239.32"></polygon><polygon class="cls-45" points="245.66 74.16 341.02 74.16 293.34 156.74 245.66 74.16"></polygon><polygon class="cls-5" points="245.66 74.16 293.34 156.74 197.98 156.74 245.66 74.16"></polygon><polygon class="cls-87" points="293.34 156.74 245.66 239.32 197.98 156.74 293.34 156.74"></polygon><polygon class="cls-52" points="341.02 239.32 245.66 239.32 293.34 156.74 341.02 239.32"></polygon><polygon class="cls-67" points="150.85 74.16 246.2 74.16 198.53 156.74 150.85 74.16"></polygon><polygon class="cls-43" points="246.2 239.32 150.85 239.32 198.53 156.74 246.2 239.32"></polygon><polygon class="cls-65" points="1099.53 239.32 1004.17 239.32 1051.85 321.9 1099.53 239.32"></polygon><polygon class="cls-8" points="1099.53 239.32 1051.85 321.9 1147.21 321.9 1099.53 239.32"></polygon><polygon class="cls-14" points="1051.85 321.9 1099.53 404.48 1147.21 321.9 1051.85 321.9"></polygon><polygon class="cls-24" points="1004.17 404.48 1099.53 404.48 1051.85 321.9 1004.17 404.48"></polygon><polygon class="cls-4" points="1194.34 239.32 1098.99 239.32 1146.66 321.9 1194.34 239.32"></polygon><polygon class="cls-72" points="1194.34 239.32 1146.66 321.9 1242.02 321.9 1194.34 239.32"></polygon><polygon class="cls-16" points="1146.66 321.9 1194.34 404.48 1242.02 321.9 1146.66 321.9"></polygon><polygon class="cls-81" points="1098.99 404.48 1194.34 404.48 1146.66 321.9 1098.99 404.48"></polygon><polygon class="cls-59" points="1289.16 239.32 1193.8 239.32 1241.48 321.9 1289.16 239.32"></polygon><polygon class="cls-59" points="1289.16 239.32 1241.48 321.9 1336.83 321.9 1289.16 239.32"></polygon><polygon class="cls-26" points="1241.48 321.9 1289.16 404.48 1336.83 321.9 1241.48 321.9"></polygon><polygon class="cls-30" points="1193.8 404.48 1289.16 404.48 1241.48 321.9 1193.8 404.48"></polygon><polygon class="cls-48" points="1383.97 239.32 1288.61 239.32 1336.29 321.9 1383.97 239.32"></polygon><polygon class="cls-12" points="1383.97 239.32 1336.29 321.9 1431.65 321.9 1383.97 239.32"></polygon><polygon class="cls-13" points="1336.29 321.9 1383.97 404.48 1431.65 321.9 1336.29 321.9"></polygon><polygon class="cls-21" points="1288.61 404.48 1383.97 404.48 1336.29 321.9 1288.61 404.48"></polygon><polygon class="cls-28" points="1478.78 239.32 1383.43 239.32 1431.11 321.9 1478.78 239.32"></polygon><polygon class="cls-80" points="1478.78 239.32 1431.11 321.9 1526.46 321.9 1478.78 239.32"></polygon><polygon class="cls-88" points="1431.11 321.9 1478.78 404.48 1526.46 321.9 1431.11 321.9"></polygon><polygon class="cls-75" points="1383.43 404.48 1478.78 404.48 1431.11 321.9 1383.43 404.48"></polygon><polygon class="cls-10" points="1573.6 239.32 1478.24 239.32 1525.92 321.9 1573.6 239.32"></polygon><polygon class="cls-48" points="1478.24 404.48 1573.6 404.48 1525.92 321.9 1478.24 404.48"></polygon><polygon class="cls-68" points="-38.24 239.32 -85.92 321.9 9.44 321.9 -38.24 239.32"></polygon><polygon class="cls-68" points="-85.92 321.9 -38.24 404.48 9.44 321.9 -85.92 321.9"></polygon><polygon class="cls-50" points="56.58 239.32 -38.78 239.32 8.9 321.9 56.58 239.32"></polygon><polygon class="cls-79" points="56.58 239.32 8.9 321.9 104.25 321.9 56.58 239.32"></polygon><polygon class="cls-58" points="8.9 321.9 56.58 404.48 104.25 321.9 8.9 321.9"></polygon><polygon class="cls-42" points="-38.78 404.48 56.58 404.48 8.9 321.9 -38.78 404.48"></polygon><polygon class="cls-9" points="151.39 239.32 56.03 239.32 103.71 321.9 151.39 239.32"></polygon><polygon class="cls-58" points="151.39 239.32 103.71 321.9 199.07 321.9 151.39 239.32"></polygon><polygon class="cls-87" points="103.71 321.9 151.39 404.48 199.07 321.9 103.71 321.9"></polygon><polygon class="cls-43" points="56.03 404.48 151.39 404.48 103.71 321.9 56.03 404.48"></polygon><polygon class="cls-39" points="530.1 239.32 625.46 239.32 577.78 321.9 530.1 239.32"></polygon><polygon class="cls-53" points="530.1 239.32 577.78 321.9 482.43 321.9 530.1 239.32"></polygon><polygon class="cls-62" points="577.78 321.9 530.1 404.48 482.43 321.9 577.78 321.9"></polygon><polygon class="cls-65" points="625.46 404.48 530.1 404.48 577.78 321.9 625.46 404.48"></polygon><polygon class="cls-85" points="435.29 239.32 530.64 239.32 482.97 321.9 435.29 239.32"></polygon><polygon class="cls-64" points="435.29 239.32 482.97 321.9 387.61 321.9 435.29 239.32"></polygon><polygon class="cls-83" points="482.97 321.9 435.29 404.48 387.61 321.9 482.97 321.9"></polygon><polygon class="cls-77" points="530.64 404.48 435.29 404.48 482.97 321.9 530.64 404.48"></polygon><polygon class="cls-84" points="340.48 239.32 435.83 239.32 388.15 321.9 340.48 239.32"></polygon><polygon class="cls-29" points="340.48 239.32 388.15 321.9 292.8 321.9 340.48 239.32"></polygon><polygon class="cls-61" points="388.15 321.9 340.48 404.48 292.8 321.9 388.15 321.9"></polygon><polygon class="cls-27" points="435.83 404.48 340.48 404.48 388.15 321.9 435.83 404.48"></polygon><polygon class="cls-52" points="245.66 239.32 341.02 239.32 293.34 321.9 245.66 239.32"></polygon><polygon class="cls-5" points="245.66 239.32 293.34 321.9 197.98 321.9 245.66 239.32"></polygon><polygon class="cls-67" points="293.34 321.9 245.66 404.48 197.98 321.9 293.34 321.9"></polygon><polygon class="cls-52" points="341.02 404.48 245.66 404.48 293.34 321.9 341.02 404.48"></polygon><polygon class="cls-67" points="150.85 239.32 246.2 239.32 198.53 321.9 150.85 239.32"></polygon><polygon class="cls-2" points="246.2 404.48 150.85 404.48 198.53 321.9 246.2 404.48"></polygon><polygon class="cls-65" points="1099.53 402.95 1004.17 402.95 1051.85 485.53 1099.53 402.95"></polygon><polygon class="cls-8" points="1099.53 402.95 1051.85 485.53 1147.21 485.53 1099.53 402.95"></polygon><polygon class="cls-36" points="1051.85 485.53 1099.53 568.11 1147.21 485.53 1051.85 485.53"></polygon><polygon class="cls-54" points="1004.17 568.11 1099.53 568.11 1051.85 485.53 1004.17 568.11"></polygon><polygon class="cls-4" points="1194.34 402.95 1098.99 402.95 1146.66 485.53 1194.34 402.95"></polygon><polygon class="cls-72" points="1194.34 402.95 1146.66 485.53 1242.02 485.53 1194.34 402.95"></polygon><polygon class="cls-16" points="1146.66 485.53 1194.34 568.11 1242.02 485.53 1146.66 485.53"></polygon><polygon class="cls-90" points="1098.99 568.11 1194.34 568.11 1146.66 485.53 1098.99 568.11"></polygon><polygon class="cls-31" points="1289.16 402.95 1193.8 402.95 1241.48 485.53 1289.16 402.95"></polygon><polygon class="cls-59" points="1289.16 402.95 1241.48 485.53 1336.83 485.53 1289.16 402.95"></polygon><polygon class="cls-26" points="1241.48 485.53 1289.16 568.11 1336.83 485.53 1241.48 485.53"></polygon><polygon class="cls-30" points="1193.8 568.11 1289.16 568.11 1241.48 485.53 1193.8 568.11"></polygon><polygon class="cls-48" points="1383.97 402.95 1288.61 402.95 1336.29 485.53 1383.97 402.95"></polygon><polygon class="cls-12" points="1383.97 402.95 1336.29 485.53 1431.65 485.53 1383.97 402.95"></polygon><polygon class="cls-13" points="1336.29 485.53 1383.97 568.11 1431.65 485.53 1336.29 485.53"></polygon><polygon class="cls-21" points="1288.61 568.11 1383.97 568.11 1336.29 485.53 1288.61 568.11"></polygon><polygon class="cls-28" points="1478.78 402.95 1383.43 402.95 1431.11 485.53 1478.78 402.95"></polygon><polygon class="cls-80" points="1478.78 402.95 1431.11 485.53 1526.46 485.53 1478.78 402.95"></polygon><polygon class="cls-88" points="1431.11 485.53 1478.78 568.11 1526.46 485.53 1431.11 485.53"></polygon><polygon class="cls-75" points="1383.43 568.11 1478.78 568.11 1431.11 485.53 1383.43 568.11"></polygon><polygon class="cls-10" points="1573.6 402.95 1478.24 402.95 1525.92 485.53 1573.6 402.95"></polygon><polygon class="cls-48" points="1478.24 568.11 1573.6 568.11 1525.92 485.53 1478.24 568.11"></polygon><polygon class="cls-20" points="-38.24 402.95 -85.92 485.53 9.44 485.53 -38.24 402.95"></polygon><polygon class="cls-68" points="-85.92 485.53 -38.24 568.11 9.44 485.53 -85.92 485.53"></polygon><polygon class="cls-50" points="56.58 402.95 -38.78 402.95 8.9 485.53 56.58 402.95"></polygon><polygon class="cls-79" points="56.58 402.95 8.9 485.53 104.25 485.53 56.58 402.95"></polygon><polygon class="cls-58" points="8.9 485.53 56.58 568.11 104.25 485.53 8.9 485.53"></polygon><polygon class="cls-42" points="-38.78 568.11 56.58 568.11 8.9 485.53 -38.78 568.11"></polygon><polygon class="cls-5" points="151.39 402.95 56.03 402.95 103.71 485.53 151.39 402.95"></polygon><polygon class="cls-63" points="151.39 402.95 103.71 485.53 199.07 485.53 151.39 402.95"></polygon><polygon class="cls-46" points="103.71 485.53 151.39 568.11 199.07 485.53 103.71 485.53"></polygon><polygon class="cls-7" points="56.03 568.11 151.39 568.11 103.71 485.53 56.03 568.11"></polygon><polygon class="cls-39" points="530.1 402.95 625.46 402.95 577.78 485.53 530.1 402.95"></polygon><polygon class="cls-35" points="530.1 402.95 577.78 485.53 482.43 485.53 530.1 402.95"></polygon><polygon class="cls-56" points="577.78 485.53 530.1 568.11 482.43 485.53 577.78 485.53"></polygon><polygon class="cls-64" points="625.46 568.11 530.1 568.11 577.78 485.53 625.46 568.11"></polygon><polygon class="cls-85" points="435.29 402.95 530.64 402.95 482.97 485.53 435.29 402.95"></polygon><polygon class="cls-3" points="435.29 402.95 482.97 485.53 387.61 485.53 435.29 402.95"></polygon><polygon class="cls-83" points="482.97 485.53 435.29 568.11 387.61 485.53 482.97 485.53"></polygon><polygon class="cls-23" points="530.64 568.11 435.29 568.11 482.97 485.53 530.64 568.11"></polygon><polygon class="cls-84" points="340.48 402.95 435.83 402.95 388.15 485.53 340.48 402.95"></polygon><polygon class="cls-89" points="340.48 402.95 388.15 485.53 292.8 485.53 340.48 402.95"></polygon><polygon class="cls-61" points="388.15 485.53 340.48 568.11 292.8 485.53 388.15 485.53"></polygon><polygon class="cls-27" points="435.83 568.11 340.48 568.11 388.15 485.53 435.83 568.11"></polygon><polygon class="cls-52" points="245.66 402.95 341.02 402.95 293.34 485.53 245.66 402.95"></polygon><polygon class="cls-41" points="245.66 402.95 293.34 485.53 197.98 485.53 245.66 402.95"></polygon><polygon class="cls-67" points="293.34 485.53 245.66 568.11 197.98 485.53 293.34 485.53"></polygon><polygon class="cls-66" points="341.02 568.11 245.66 568.11 293.34 485.53 341.02 568.11"></polygon><polygon class="cls-9" points="150.85 402.95 246.2 402.95 198.53 485.53 150.85 402.95"></polygon><polygon class="cls-2" points="246.2 568.11 150.85 568.11 198.53 485.53 246.2 568.11"></polygon><polygon class="cls-65" points="1099.53 566.58 1004.17 566.58 1051.85 649.16 1099.53 566.58"></polygon><polygon class="cls-86" points="1099.53 566.58 1051.85 649.16 1147.21 649.16 1099.53 566.58"></polygon><polygon class="cls-36" points="1051.85 649.16 1099.53 731.74 1147.21 649.16 1051.85 649.16"></polygon><polygon class="cls-54" points="1004.17 731.74 1099.53 731.74 1051.85 649.16 1004.17 731.74"></polygon><polygon class="cls-14" points="1194.34 566.58 1098.99 566.58 1146.66 649.16 1194.34 566.58"></polygon><polygon class="cls-70" points="1194.34 566.58 1146.66 649.16 1242.02 649.16 1194.34 566.58"></polygon><polygon class="cls-1" points="1146.66 649.16 1194.34 731.74 1242.02 649.16 1146.66 649.16"></polygon><polygon class="cls-90" points="1098.99 731.74 1194.34 731.74 1146.66 649.16 1098.99 731.74"></polygon><polygon class="cls-31" points="1289.16 566.58 1193.8 566.58 1241.48 649.16 1289.16 566.58"></polygon><polygon class="cls-59" points="1289.16 566.58 1241.48 649.16 1336.83 649.16 1289.16 566.58"></polygon><polygon class="cls-26" points="1241.48 649.16 1289.16 731.74 1336.83 649.16 1241.48 649.16"></polygon><polygon class="cls-16" points="1193.8 731.74 1289.16 731.74 1241.48 649.16 1193.8 731.74"></polygon><polygon class="cls-76" points="1383.97 566.58 1288.61 566.58 1336.29 649.16 1383.97 566.58"></polygon><polygon class="cls-12" points="1383.97 566.58 1336.29 649.16 1431.65 649.16 1383.97 566.58"></polygon><polygon class="cls-13" points="1336.29 649.16 1383.97 731.74 1431.65 649.16 1336.29 649.16"></polygon><polygon class="cls-21" points="1288.61 731.74 1383.97 731.74 1336.29 649.16 1288.61 731.74"></polygon><polygon class="cls-37" points="1478.78 566.58 1383.43 566.58 1431.11 649.16 1478.78 566.58"></polygon><polygon class="cls-80" points="1478.78 566.58 1431.11 649.16 1526.46 649.16 1478.78 566.58"></polygon><polygon class="cls-88" points="1431.11 649.16 1478.78 731.74 1526.46 649.16 1431.11 649.16"></polygon><polygon class="cls-75" points="1383.43 731.74 1478.78 731.74 1431.11 649.16 1383.43 731.74"></polygon><polygon class="cls-10" points="1573.6 566.58 1478.24 566.58 1525.92 649.16 1573.6 566.58"></polygon><polygon class="cls-48" points="1478.24 731.74 1573.6 731.74 1525.92 649.16 1478.24 731.74"></polygon><polygon class="cls-20" points="-38.24 566.58 -85.92 649.16 9.44 649.16 -38.24 566.58"></polygon><polygon class="cls-68" points="-85.92 649.16 -38.24 731.74 9.44 649.16 -85.92 649.16"></polygon><polygon class="cls-50" points="56.58 566.58 -38.78 566.58 8.9 649.16 56.58 566.58"></polygon><polygon class="cls-91" points="56.58 566.58 8.9 649.16 104.25 649.16 56.58 566.58"></polygon><polygon class="cls-11" points="8.9 649.16 56.58 731.74 104.25 649.16 8.9 649.16"></polygon><polygon class="cls-58" points="-38.78 731.74 56.58 731.74 8.9 649.16 -38.78 731.74"></polygon><polygon class="cls-5" points="151.39 566.58 56.03 566.58 103.71 649.16 151.39 566.58"></polygon><polygon class="cls-63" points="151.39 566.58 103.71 649.16 199.07 649.16 151.39 566.58"></polygon><polygon class="cls-61" points="103.71 649.16 151.39 731.74 199.07 649.16 103.71 649.16"></polygon><polygon class="cls-5" points="56.03 731.74 151.39 731.74 103.71 649.16 56.03 731.74"></polygon><polygon class="cls-62" points="530.1 566.58 625.46 566.58 577.78 649.16 530.1 566.58"></polygon><polygon class="cls-78" points="530.1 566.58 577.78 649.16 482.43 649.16 530.1 566.58"></polygon><polygon class="cls-56" points="577.78 649.16 530.1 731.74 482.43 649.16 577.78 649.16"></polygon><polygon class="cls-64" points="625.46 731.74 530.1 731.74 577.78 649.16 625.46 731.74"></polygon><polygon class="cls-23" points="435.29 566.58 530.64 566.58 482.97 649.16 435.29 566.58"></polygon><polygon class="cls-55" points="435.29 566.58 482.97 649.16 387.61 649.16 435.29 566.58"></polygon><polygon class="cls-3" points="482.97 649.16 435.29 731.74 387.61 649.16 482.97 649.16"></polygon><polygon class="cls-23" points="530.64 731.74 435.29 731.74 482.97 649.16 530.64 731.74"></polygon><polygon class="cls-77" points="340.48 566.58 435.83 566.58 388.15 649.16 340.48 566.58"></polygon><polygon class="cls-89" points="340.48 566.58 388.15 649.16 292.8 649.16 340.48 566.58"></polygon><polygon class="cls-29" points="388.15 649.16 340.48 731.74 292.8 649.16 388.15 649.16"></polygon><polygon class="cls-27" points="435.83 731.74 340.48 731.74 388.15 649.16 435.83 731.74"></polygon><polygon class="cls-52" points="245.66 566.58 341.02 566.58 293.34 649.16 245.66 566.58"></polygon><polygon class="cls-41" points="245.66 566.58 293.34 649.16 197.98 649.16 245.66 566.58"></polygon><polygon class="cls-64" points="293.34 649.16 245.66 731.74 197.98 649.16 293.34 649.16"></polygon><polygon class="cls-66" points="341.02 731.74 245.66 731.74 293.34 649.16 341.02 731.74"></polygon><polygon class="cls-33" points="150.85 566.58 246.2 566.58 198.53 649.16 150.85 566.58"></polygon><polygon class="cls-52" points="246.2 731.74 150.85 731.74 198.53 649.16 246.2 731.74"></polygon><polygon class="cls-23" points="577.78 -8.42 625.46 74.16 673.14 -8.42 577.78 -8.42"></polygon><polygon class="cls-22" points="672.59 -8.42 720.27 74.16 767.95 -8.42 672.59 -8.42"></polygon><polygon class="cls-55" points="624.92 74.16 720.27 74.16 672.59 -8.42 624.92 74.16"></polygon><polygon class="cls-38" points="767.41 -8.42 815.09 74.16 862.76 -8.42 767.41 -8.42"></polygon><polygon class="cls-18" points="719.73 74.16 815.09 74.16 767.41 -8.42 719.73 74.16"></polygon><polygon class="cls-40" points="862.22 -8.42 909.9 74.16 957.58 -8.42 862.22 -8.42"></polygon><polygon class="cls-74" points="814.55 74.16 909.9 74.16 862.22 -8.42 814.55 74.16"></polygon><polygon class="cls-65" points="957.04 -8.42 1004.71 74.16 1052.39 -8.42 957.04 -8.42"></polygon><polygon class="cls-73" points="909.36 74.16 1004.71 74.16 957.04 -8.42 909.36 74.16"></polygon><polygon class="cls-17" points="625.46 74.16 577.78 156.74 673.14 156.74 625.46 74.16"></polygon><polygon class="cls-23" points="577.78 156.74 625.46 239.32 673.14 156.74 577.78 156.74"></polygon><polygon class="cls-15" points="720.27 74.16 624.92 74.16 672.59 156.74 720.27 74.16"></polygon><polygon class="cls-17" points="720.27 74.16 672.59 156.74 767.95 156.74 720.27 74.16"></polygon><polygon class="cls-6" points="672.59 156.74 720.27 239.32 767.95 156.74 672.59 156.74"></polygon><polygon class="cls-55" points="624.92 239.32 720.27 239.32 672.59 156.74 624.92 239.32"></polygon><polygon class="cls-18" points="815.09 74.16 719.73 74.16 767.41 156.74 815.09 74.16"></polygon><polygon class="cls-34" points="815.09 74.16 767.41 156.74 862.76 156.74 815.09 74.16"></polygon><polygon class="cls-38" points="767.41 156.74 815.09 239.32 862.76 156.74 767.41 156.74"></polygon><polygon class="cls-19" points="719.73 239.32 815.09 239.32 767.41 156.74 719.73 239.32"></polygon><polygon class="cls-70" points="909.9 74.16 814.55 74.16 862.22 156.74 909.9 74.16"></polygon><polygon class="cls-32" points="909.9 74.16 862.22 156.74 957.58 156.74 909.9 74.16"></polygon><polygon class="cls-40" points="862.22 156.74 909.9 239.32 957.58 156.74 862.22 156.74"></polygon><polygon class="cls-74" points="814.55 239.32 909.9 239.32 862.22 156.74 814.55 239.32"></polygon><polygon class="cls-35" points="1004.71 74.16 909.36 74.16 957.04 156.74 1004.71 74.16"></polygon><polygon class="cls-54" points="1004.71 74.16 957.04 156.74 1052.39 156.74 1004.71 74.16"></polygon><polygon class="cls-47" points="957.04 156.74 1004.71 239.32 1052.39 156.74 957.04 156.74"></polygon><polygon class="cls-73" points="909.36 239.32 1004.71 239.32 957.04 156.74 909.36 239.32"></polygon><polygon class="cls-17" points="625.46 239.32 577.78 321.9 673.14 321.9 625.46 239.32"></polygon><polygon class="cls-49" points="577.78 321.9 625.46 404.48 673.14 321.9 577.78 321.9"></polygon><polygon class="cls-69" points="720.27 239.32 624.92 239.32 672.59 321.9 720.27 239.32"></polygon><polygon class="cls-17" points="720.27 239.32 672.59 321.9 767.95 321.9 720.27 239.32"></polygon><polygon class="cls-82" points="672.59 321.9 720.27 404.48 767.95 321.9 672.59 321.9"></polygon><polygon class="cls-56" points="624.92 404.48 720.27 404.48 672.59 321.9 624.92 404.48"></polygon><polygon class="cls-18" points="815.09 239.32 719.73 239.32 767.41 321.9 815.09 239.32"></polygon><polygon class="cls-34" points="815.09 239.32 767.41 321.9 862.76 321.9 815.09 239.32"></polygon><polygon class="cls-38" points="767.41 321.9 815.09 404.48 862.76 321.9 767.41 321.9"></polygon><polygon class="cls-22" points="719.73 404.48 815.09 404.48 767.41 321.9 719.73 404.48"></polygon><polygon class="cls-70" points="909.9 239.32 814.55 239.32 862.22 321.9 909.9 239.32"></polygon><polygon class="cls-32" points="909.9 239.32 862.22 321.9 957.58 321.9 909.9 239.32"></polygon><polygon class="cls-40" points="862.22 321.9 909.9 404.48 957.58 321.9 862.22 321.9"></polygon><polygon class="cls-74" points="814.55 404.48 909.9 404.48 862.22 321.9 814.55 404.48"></polygon><polygon class="cls-86" points="1004.71 239.32 909.36 239.32 957.04 321.9 1004.71 239.32"></polygon><polygon class="cls-54" points="1004.71 239.32 957.04 321.9 1052.39 321.9 1004.71 239.32"></polygon><polygon class="cls-47" points="957.04 321.9 1004.71 404.48 1052.39 321.9 957.04 321.9"></polygon><polygon class="cls-73" points="909.36 404.48 1004.71 404.48 957.04 321.9 909.36 404.48"></polygon><polygon class="cls-71" points="625.46 402.95 577.78 485.53 673.14 485.53 625.46 402.95"></polygon><polygon class="cls-84" points="577.78 485.53 625.46 568.11 673.14 485.53 577.78 485.53"></polygon><polygon class="cls-69" points="720.27 402.95 624.92 402.95 672.59 485.53 720.27 402.95"></polygon><polygon class="cls-17" points="720.27 402.95 672.59 485.53 767.95 485.53 720.27 402.95"></polygon><polygon class="cls-82" points="672.59 485.53 720.27 568.11 767.95 485.53 672.59 485.53"></polygon><polygon class="cls-35" points="624.92 568.11 720.27 568.11 672.59 485.53 624.92 568.11"></polygon><polygon class="cls-18" points="815.09 402.95 719.73 402.95 767.41 485.53 815.09 402.95"></polygon><polygon class="cls-34" points="815.09 402.95 767.41 485.53 862.76 485.53 815.09 402.95"></polygon><polygon class="cls-38" points="767.41 485.53 815.09 568.11 862.76 485.53 767.41 485.53"></polygon><polygon class="cls-22" points="719.73 568.11 815.09 568.11 767.41 485.53 719.73 568.11"></polygon><polygon class="cls-70" points="909.9 402.95 814.55 402.95 862.22 485.53 909.9 402.95"></polygon><polygon class="cls-32" points="909.9 402.95 862.22 485.53 957.58 485.53 909.9 402.95"></polygon><polygon class="cls-40" points="862.22 485.53 909.9 568.11 957.58 485.53 862.22 485.53"></polygon><polygon class="cls-74" points="814.55 568.11 909.9 568.11 862.22 485.53 814.55 568.11"></polygon><polygon class="cls-86" points="1004.71 402.95 909.36 402.95 957.04 485.53 1004.71 402.95"></polygon><polygon class="cls-54" points="1004.71 402.95 957.04 485.53 1052.39 485.53 1004.71 402.95"></polygon><polygon class="cls-40" points="957.04 485.53 1004.71 568.11 1052.39 485.53 957.04 485.53"></polygon><polygon class="cls-47" points="909.36 568.11 1004.71 568.11 957.04 485.53 909.36 568.11"></polygon><polygon class="cls-71" points="625.46 566.58 577.78 649.16 673.14 649.16 625.46 566.58"></polygon><polygon class="cls-84" points="577.78 649.16 625.46 731.74 673.14 649.16 577.78 649.16"></polygon><polygon class="cls-17" points="720.27 566.58 624.92 566.58 672.59 649.16 720.27 566.58"></polygon><polygon class="cls-17" points="720.27 566.58 672.59 649.16 767.95 649.16 720.27 566.58"></polygon><polygon class="cls-82" points="672.59 649.16 720.27 731.74 767.95 649.16 672.59 649.16"></polygon><polygon class="cls-35" points="624.92 731.74 720.27 731.74 672.59 649.16 624.92 731.74"></polygon><polygon class="cls-18" points="815.09 566.58 719.73 566.58 767.41 649.16 815.09 566.58"></polygon><polygon class="cls-34" points="815.09 566.58 767.41 649.16 862.76 649.16 815.09 566.58"></polygon><polygon class="cls-38" points="767.41 649.16 815.09 731.74 862.76 649.16 767.41 649.16"></polygon><polygon class="cls-22" points="719.73 731.74 815.09 731.74 767.41 649.16 719.73 731.74"></polygon><polygon class="cls-70" points="909.9 566.58 814.55 566.58 862.22 649.16 909.9 566.58"></polygon><polygon class="cls-73" points="909.9 566.58 862.22 649.16 957.58 649.16 909.9 566.58"></polygon><polygon class="cls-47" points="862.22 649.16 909.9 731.74 957.58 649.16 862.22 649.16"></polygon><polygon class="cls-74" points="814.55 731.74 909.9 731.74 862.22 649.16 814.55 731.74"></polygon><polygon class="cls-32" points="1004.71 566.58 909.36 566.58 957.04 649.16 1004.71 566.58"></polygon><polygon class="cls-90" points="1004.71 566.58 957.04 649.16 1052.39 649.16 1004.71 566.58"></polygon><polygon class="cls-40" points="957.04 649.16 1004.71 731.74 1052.39 649.16 957.04 649.16"></polygon><polygon class="cls-47" points="909.36 731.74 1004.71 731.74 957.04 649.16 909.36 731.74"></polygon></g></g></g></g></svg>