<?xml version="1.0" encoding="UTF-8"?><svg id="Layer_2" xmlns="http://www.w3.org/2000/svg" viewBox="0 0 75 75"><defs><style>.cls-1{fill:#fff;}.cls-2{fill:#1877f2;}</style></defs><g id="upward_lp"><g><path class="cls-2" d="M75,37.5C75,16.79,58.21,0,37.5,0S0,16.79,0,37.5c0,18.72,13.71,34.23,31.64,37.04v-26.2h-9.52v-10.84h9.52v-8.26c0-9.4,5.6-14.59,14.16-14.59,4.1,0,8.39,.73,8.39,.73v9.23h-4.73c-4.66,0-6.11,2.89-6.11,5.86v7.03h10.4l-1.66,10.84h-8.74v26.2c17.93-2.81,31.64-18.33,31.64-37.04Z"/><path class="cls-1" d="M52.1,48.34l1.66-10.84h-10.4v-7.03c0-2.97,1.45-5.86,6.11-5.86h4.73V15.38s-4.29-.73-8.39-.73c-8.57,0-14.16,5.19-14.16,14.59v8.26h-9.52v10.84h9.52v26.2c1.91,.3,3.87,.46,5.86,.46s3.95-.16,5.86-.46v-26.2h8.74Z"/></g></g></svg>