<?xml version="1.0" encoding="UTF-8"?><svg id="Layer_2" xmlns="http://www.w3.org/2000/svg" viewBox="0 0 74.4 74.4"><defs><style>.cls-1{fill:#fff;}.cls-2{fill:#06c755;}</style></defs><g id="upward_lp"><g><rect class="cls-2" width="74.4" height="74.4" rx="28.18" ry="28.18"/><g><path class="cls-1" d="M62,33.7c0-11.1-11.13-20.13-24.81-20.13S12.39,22.6,12.39,33.7c0,9.95,8.83,18.29,20.75,19.86,.81,.17,1.91,.53,2.19,1.22,.25,.63,.16,1.61,.08,2.24,0,0-.29,1.75-.35,2.12-.11,.63-.5,2.45,2.15,1.34,2.65-1.12,14.29-8.41,19.49-14.4h0c3.59-3.94,5.32-7.94,5.32-12.39Z"/><g><path class="cls-2" d="M53.75,40.11h-6.97c-.26,0-.47-.21-.47-.47h0v-10.82h0c0-.27,.21-.48,.47-.48h6.97c.26,0,.47,.21,.47,.47v1.76c0,.26-.21,.47-.47,.47h-4.74v1.83h4.74c.26,0,.47,.21,.47,.47v1.76c0,.26-.21,.47-.47,.47h-4.74v1.83h4.74c.26,0,.47,.21,.47,.47v1.76c0,.26-.21,.47-.47,.47Z"/><path class="cls-2" d="M27.97,40.11c.26,0,.47-.21,.47-.47v-1.76c0-.26-.21-.47-.47-.47h-4.74v-8.59c0-.26-.21-.47-.47-.47h-1.76c-.26,0-.47,.21-.47,.47v10.82h0c0,.27,.21,.48,.47,.48h6.97Z"/><rect class="cls-2" x="29.93" y="28.33" width="2.71" height="11.77" rx=".47" ry=".47"/><path class="cls-2" d="M44.14,28.33h-1.76c-.26,0-.47,.21-.47,.47v6.43l-4.95-6.69s-.02-.03-.04-.05h0s-.02-.02-.03-.03h0l-.03-.03h-.01l-.03-.03h-.01l-.03-.02h-.02l-.03-.02h-.04l-.02-.02h-1.86c-.26-.01-.47,.2-.47,.46v10.83c0,.26,.21,.47,.47,.47h1.76c.26,0,.47-.21,.47-.47v-6.43l4.96,6.7s.08,.09,.12,.12h0l.03,.02h.01l.02,.02h.02l.02,.02h.04s.08,.03,.12,.03h1.75c.26,0,.47-.21,.47-.47v-10.83c0-.26-.21-.47-.47-.47Z"/></g></g></g></g></svg>