<?xml version="1.0" encoding="UTF-8"?><svg id="Layer_2" xmlns="http://www.w3.org/2000/svg" xmlns:xlink="http://www.w3.org/1999/xlink" viewBox="0 0 80.64 63"><defs><style>.cls-1{fill:url(#_称未設定グラデーション_23);}</style><linearGradient id="_称未設定グラデーション_23" x1="17.57" y1="-7.24" x2="61" y2="66.72" gradientTransform="matrix(1, 0, 0, 1, 0, 0)" gradientUnits="userSpaceOnUse"><stop offset="0" stop-color="#d76735"/><stop offset="1" stop-color="#f1ae2a"/></linearGradient></defs><g id="upward_lp"><path class="cls-1" d="M73.08,0V6.3h-6.3V0H13.86V6.3H7.56V0H0V63H7.56v-6.3h6.3v6.3h52.92v-6.3h6.3v6.3h7.56V0h-7.56ZM13.86,46.93H7.56v-10.08h6.3v10.08Zm0-20.95H7.56V15.91h6.3v10.08Zm34.7,7.05l-16.02,9.57c-.12,.07-.26,.07-.38,0-.12-.07-.19-.19-.19-.33V23.15c0-.14,.07-.26,.19-.33,.12-.06,.26-.06,.38,0l16.02,9.57c.11,.06,.18,.19,.18,.32s-.07,.26-.18,.32Zm24.52,13.9h-6.3v-10.08h6.3v10.08Zm0-20.95h-6.3V15.91h6.3v10.08Z"/></g></svg>