<?xml version="1.0" encoding="UTF-8"?><svg id="Layer_2" xmlns="http://www.w3.org/2000/svg" viewBox="0 0 213.51 239.39"><defs><style>.cls-1{fill:#fff;}.cls-1,.cls-2,.cls-3{fill-rule:evenodd;}.cls-2{fill:#687a8f;}.cls-3{fill:#8fb0a9;}</style></defs><g id="upward_lp"><g><path class="cls-3" d="M207,129.75c-.43,4.31-.9,8.61-1.37,12.92-.75,6.87-1.53,13.73-2.25,20.6-.66,6.36-1.23,12.72-1.89,19.08-.1,1.01-.27,2.09-.72,2.98-.81,1.65-1.87,3.18-2.77,4.79-4,7.19-9.12,13.48-15.07,19.13-1.33,1.26-2.5,2.77-4.56,2.86-.89,1.11-2.02,.71-3.12,.51-3.28-.61-6.33-1.87-9.27-3.35-1.99-1-4.23-1.75-5.26-4.03-1.99-1.04-2.77-3.07-3.6-4.87-2.2-4.77-4.23-9.63-6.12-14.53-1.22-3.17-2.15-6.45-3.07-9.72-.38-1.35-.77-2.71-.38-4.23,.2-.77-.35-1.76-.66-2.61-.07-.2-.53-.38-.78-.35-.25,.03-.61,.28-.7,.51-.17,.47-.2,.99-.26,1.5-.27,2.46-.46,4.93-.82,7.38-1.12,7.65-2.24,15.3-3.5,22.93-.96,5.79-1.99,11.58-3.87,17.18-.26,.76-.32,1.6-.38,2.42-.23,3.39-.38,6.79-.62,10.18-.14,2.09-.97,3.95-1.99,5.67-3.63,.37-23.26-1.35-26.96-2.37-.05-.64-.23-1.35-.16-2.03,.45-4.2,1-8.4,1.43-12.6,.54-5.33,1.01-10.67,1.48-16.01,.06-.71,.06-1.45-.07-2.15-.06-.32-.46-.73-.78-.82-.34-.09-.85,.05-1.13,.28-.26,.23-.52,.76-.43,1.05,.49,1.64,.22,3.29,.08,4.91-.46,5.34-.98,10.68-1.52,16.01-.34,3.28-.76,6.56-1.14,9.83-.28,2.34-1,3.01-3.35,3.11-.62,.02-1.24,.01-1.86,0-7.01-.16-14.02-.32-21.03-.48-5.26-.12-10.51-.18-15.77-.39-4.22-.17-8.44-.5-12.65-.78-1.74-.11-3.43-.45-5.19-1.17,0-1.42,.15-2.77-.04-4.08-.19-1.3-.79-2.54-1.09-3.83-1.17-5.23-2.84-10.32-4.26-15.47-3.21-11.62-6-23.36-8.97-35.04-.18-.7-.33-1.42-.65-2.05-.13-.26-.7-.5-.99-.42-.3,.08-.69,.54-.71,.85-.04,.59,.12,1.21,.26,1.8,1.35,5.61,2.73,11.21,4.08,16.83,.19,.79,.41,1.63,.32,2.42-.59,5.33-1.25,10.65-1.91,15.97-.76,6.14-1.53,12.27-2.29,18.41-.11,.9-.13,1.84-.72,2.56-2.6,.68-5.2,.58-7.75,.83-4.6,.45-9.05-.32-13.47-1.38-1.19-.28-2.32-.84-3.44-1.36-.8-.37-1.26-1-1.21-1.96,.21-3.7,.39-7.4,.58-11.1,.11-2.06,.27-4.12,.29-6.18,.06-6.2,.62-12.36,1.38-18.5,.9-7.26,1.83-14.53,2.93-21.76,.41-2.71,.07-5.61,1.63-8.1,.15-.24,.12-.6,.12-.91,.05-4.02,.08-8.04,.13-12.07,.03-2.06,.06-4.12,.13-6.17,.04-1.24,.2-2.47,.27-3.7,.25-4.53,.35-9.07,.78-13.59,.38-3.99,1.13-7.95,1.74-11.92,.1-.6,.35-1.18,.59-1.75,.19-.45,.94-.51,1.33-.19,.85,.7,1.12,1.69,1.4,2.7,1.98,7.15,4.06,14.27,5.95,21.45,1.86,7.08,3.56,14.2,4.53,21.47,.43,3.27,.73,6.56,1.16,9.82,.15,1.1,.49,2.18,.83,3.24,.05,.16,.51,.25,.78,.26,.16,0,.41-.19,.47-.35,.14-.37,.3-.78,.27-1.16-.23-2.36-.49-4.72-.77-7.07-.93-7.9-2.45-15.69-4.47-23.37-2.3-8.77-4.74-17.51-7.25-26.22-.56-1.96-.04-3.48,2.07-3.97,2.51-.59,5.02-1.16,7.52-1.78,.89-.22,1.78-.48,2.61-.87,2.62-1.21,5.19-2.51,7.81-3.72,6.38-2.94,12.58-6.19,18.19-10.47,.38-.29,.85-.48,1.46-.82,.15,2.44-.35,4.57-.78,6.65-1.63,7.8-2.28,15.71-2.78,23.63-.09,1.44-.08,2.89-.06,4.33,0,.47,.2,.93,.29,1.31,.42,.09,.62,.19,.81,.16,.29-.04,.66-.09,.85-.28,1.8-1.85,4.01-1.5,6.56-1.4-.4,.72-.6,1.16-.88,1.56-.7,1.02-1.49,1.98-2.13,3.04-1.17,1.94-2.28,3.92-3.37,5.9-.55,1-.42,1.9,.37,2.82,3.22,3.75,6.3,7.64,9.6,11.32,4.76,5.3,9.45,10.65,13.81,16.28,3.86,4.98,7.86,9.82,12.32,14.29,1.09,1.09,2.06,2.28,2.72,3.73,.42,.92,1.08,1.75,1.74,2.53,.17,.2,.75,.17,1.08,.07,.15-.04,.31-.57,.23-.8-.87-2.33-1.99-4.52-3.76-6.32-4.85-4.94-9.23-10.27-13.53-15.69-3.59-4.52-7.42-8.85-11.16-13.25-3.21-3.77-6.48-7.48-9.68-11.26-.72-.85-1.57-1.66-1.77-3.06,1.72-4.09,4.67-7.55,7.22-11.22,1.96-.25,3.77,.23,5.61,.48,1.9,.26,2.88,1.24,3.31,3.1,.55,2.3,1.28,4.57,2.02,6.81,.32,.96,.71,2.02,1.38,2.72,1.03,1.08,1.67,2.35,2.3,3.63,3.71,7.48,7.38,14.99,11.07,22.48,.91,1.85,1.86,3.68,2.78,5.53,.74,1.47,1.63,2.89,2.15,4.44,1.4,4.13,3.44,7.92,5.6,11.67,1.03,1.79,2.01,3.6,2.99,5.41,.29,.54,.59,1.09,.78,1.67,.69,2.21,2.29,3.89,3.35,5.89,.09,.16,.31,.3,.49,.34,.29,.05,.66,.1,.88-.03,.21-.14,.44-.55,.38-.76-.15-.59-.35-1.21-.71-1.68-2.26-2.99-3.49-6.52-5.25-9.76-.42-.78-.47-1.51-.25-2.37,1.48-5.58,2.92-11.16,4.37-16.75,.78-2.99,1.56-5.98,1.85-9.08,.5-5.34,1.14-10.66,1.57-16,.36-4.52,.47-9.06,0-13.59-.2-1.95-.33-3.9-.44-5.86-.04-.69,.05-1.39,.08-2.13,2.36-1.06,4.56-2.17,7.15-1.74,2.05,2.55,4.02,5.06,6.06,7.53,.72,.87,.94,1.8,.8,2.87-.43,3.17-.78,6.35-1.33,9.49-1.57,8.96-4.19,17.64-7.36,26.16-1.76,4.73-3.41,9.51-5.14,14.25-.35,.96-.86,1.86-1.3,2.79-.81,1.67-1.64,3.32-2.44,5-.25,.53-.13,1.02,.43,1.29,.57,.28,.96-.08,1.32-.47,.07-.08,.14-.16,.18-.25,1.26-2.59,2.69-5.11,3.73-7.79,1.98-5.09,3.71-10.28,5.59-15.4,3.24-8.83,5.77-17.84,7.35-27.12,.5-2.93,.45-5.96,1.42-8.82,.14-.42-.04-1.03-.26-1.46-.27-.54-.71-.99-1.1-1.46-1.6-1.98-3.27-3.91-4.69-5.93,.23-.26,.31-.41,.36-.4,.5,.11,1.01,.21,1.49,.38,.58,.21,1.12,.53,1.7,.73,.62,.22,1.36-.39,1.17-1-.87-2.85-1.06-5.88-2.26-8.66-1.06-2.46-1.99-4.98-2.97-7.47-1.36-3.45-2.74-6.9-4.06-10.37-.19-.49-.13-1.08-.2-1.84,1.13,.5,1.98,.85,2.81,1.25,5.02,2.4,10.04,4.8,15.05,7.23,1.76,.85,3.46,1.81,5.21,2.68,.54,.26,1.14,.48,1.73,.53,1.13,.1,2.27,.07,3.4,.08,3.08,.03,3.14-.43,4.6,2.91,4.94,11.23,9.94,22.44,14.84,33.68,1.31,3.02,2.28,6.18,3.52,9.24,.88,2.17,1.88,4.3,4.17,5.65-.28,.97-.53,1.96-.86,2.92-.96,2.83-2.06,5.61-2.9,8.48-.59,2.02-1.39,3.77-3.01,5.21-1.45,1.29-2.63,2.9-3.92,4.38-.27,.31-.53,.64-.71,1.01-.23,.48-.3,1,.21,1.38,.47,.36,1.34,.26,1.68-.19,.19-.24,.29-.54,.45-.8,.57-.97,1.29-1.81,2.51-2.57-.13,.75-.17,1.25-.3,1.73-.54,1.99-1.17,3.95-1.65,5.96-.23,.98-.4,2.04-.27,3.03,.3,2.35,.75,4.68,1.2,7.01,.11,.59,.4,1.16,.69,1.7,.28,.53,1.26,.51,1.59,0,.47-.74,.49-1.42,.08-2.3-1.46-3.16-2.06-6.55-1.08-9.91,2.01-6.92,4.26-13.78,6.42-20.66,.65-2.06,1.46-4.09,1.92-6.19,2.17-9.76,4.23-19.55,6.36-29.32,.15-.68,.45-1.33,.65-1.91,3.15-1.11,6.12-.32,9.04,.08,5.78,.8,11.65,1.28,17.37,3.55,0,1.14,.07,1.96-.01,2.77Zm-59.68,3.34c-.84-6.86-1.94-13.67-3.36-20.43-.32-1.51-.72-3.01-1.14-4.49-.1-.37-.38-.71-.64-1.01-.11-.13-.41-.22-.55-.16-.26,.11-.64,.31-.68,.53-.09,.49-.09,1.03,.03,1.51,2.53,10.02,4.01,20.21,4.97,30.48,.44,4.72,.83,9.44,1.01,14.18,.13,3.39,.06,6.8-.85,10.12-.27,.98,0,1.59,.62,1.87,.64,.3,1.31-.32,1.54-1.48,.71-3.56,.7-7.17,.69-11.27-.18-6.32-.82-13.09-1.65-19.85Zm-47.84,75.38c-2.07,1.5-1.75,4.45,.56,5.51,1.55,.71,2.99,.1,3.32-1.54,.16-.78,.11-1.63,0-2.43-.13-.84-.45-1.11-1.98-2.36-.6,.25-1.33,.42-1.89,.82Zm-.63,24.29c1.48-.08,2.57-1.33,2.51-2.91-.05-1.4-.97-2.45-2.19-2.47-1.48-.03-2.65,1.34-2.66,3.12-.01,1.33,1.02,2.33,2.34,2.26Z"/><path class="cls-1" d="M85.03,16.24c.89,.22,1.8,.44,2.66,.76,7.94,2.92,15.5,6.72,23.12,10.35,1.82,.87,2.68,2.08,2.78,4.03,.2,3.7,.58,7.4,.67,11.1,.15,5.78-.32,11.54-1.32,17.24-.48,2.75-1.29,5.41-2.46,7.96-.49,1.07-1.22,1.8-2.39,2.23-3.16,1.15-6.35,1.59-9.7,1.1-5.57-.82-10.75-2.78-15.8-5.16-1.07-.51-1.82-1.29-2.48-2.24-1.52-2.21-3.1-4.37-4.66-6.55-.36-.51-.7-1.03-1.6-.89-.45,.53-.91,1.21-1.51,1.74-1.26,1.11-2.6,1.15-3.97,.26-3.03-1.98-5.53-8.35-4.64-11.85,.79-3.13,3.71-3.92,6.11-1.67,.28,.26,.61,.48,1.06,.83,7.69-8.34,11.1-18.47,13.4-29.03,.34-.1,.55-.24,.72-.2Zm21.09,31.23c-.95,1.19-1.87,2.27-2.69,3.43-.14,.2,.09,.75,.29,1.04,.08,.12,.66,.1,.81-.05,1.29-1.32,2.48-2.72,3.24-4.42-.11-.33-.16-.65-.32-.9-2.02-3.21-4.05-6.41-6.09-9.6-.21-.33-.48-.71-.82-.86-.28-.13-.7,.03-1.31,.08,2.06,4.06,4.43,7.63,6.89,11.29Zm-24.09-11.49c-.27,.19-.55,.76-.46,1,.24,.58,.81,.42,1.3,.24,1.83-.65,3.63-1.38,5.5-1.9,1.27-.35,2.62-.39,3.93-.59,.45-.07,.74-.41,.66-.85-.05-.26-.31-.62-.54-.69-.58-.17-1.2-.19-1.7-.26-3.24,.28-6.11,1.27-8.7,3.05Zm12.46,22.04c.08,.16,.28,.33,.45,.37,3.93,.97,7.88,1.4,11.85,.28,.49-.14,.99-.31,1.42-.57,.18-.11,.32-.56,.24-.76-.09-.21-.46-.4-.71-.41-.4-.01-.81,.11-1.2,.23-2.93,.87-5.88,.76-8.84,.25-.91-.16-1.83-.2-2.75-.26-.16,0-.33,.2-.48,.29,0,.2-.06,.43,.02,.58Zm7.82-26.72c-.18,.14-.33,.69-.25,.76,.26,.22,.67,.47,.96,.41,.48-.1,.91-.44,1.36-.67,1.57-.81,3.2-1.34,5-1.23,.49,.03,1-.05,1.49-.15,.12-.02,.26-.3,.27-.46,.01-.16-.1-.46-.21-.49-.78-.18-1.57-.31-2.36-.46-2.38,.04-4.42,.9-6.27,2.28Z"/><path class="cls-3" d="M77.36,8.69c-.39,.47-.78,.93-1.26,1.49-3.32-.58-6.28,.48-8.98,2.35-1.09,.76-2.17,1.62-3,2.64-3.93,4.8-5.98,10.24-5.44,16.6,.7,.27,1.34,.51,2.05,.78,.19,.85,.3,1.67,.58,2.43,.49,1.35,1.02,2.69,1.64,3.98,.82,1.7,2.09,2.68,4.16,2.56,1.2-.07,2.42,.32,3.74,.51,1.64-1.35,2.84-3.14,3.89-5.03,3.67-6.63,6.29-13.63,7.45-21.15,.09-.59,.3-1.16,.43-1.63,1.05-.58,1.95-.37,2.83-.05,2.33,.82,4.72,1.5,6.96,2.52,7.03,3.18,14,6.49,21,9.75,.43,.2,.88,.37,1.53,.65,.16-1.93-.39-3.53-1.01-4.98-1.94-4.56-4.14-8.97-7.73-12.53-3.27-3.25-6.93-5.79-11.35-7.22-1.73-.56-3.49-.47-5.2-.21-2.88,.44-5.58,1.5-7.91,3.28-1.04,.8-1.93,1.82-2.82,2.79-.49,.53-1.03,.62-1.66,.55,0,0,.1-.08,.1-.08Z"/><path class="cls-1" d="M202.02,119.32c.14-.42,.3-.7,.32-.99,.18-2.91,1.7-5.12,3.95-6.69,2.15-1.5,3.04-3.39,3.35-5.9,.34-2.75,1.13-5.44,1.57-8.19,.43-2.68,.32-5.34-1.23-7.73-.1-.16-.31-.25-.62-.49-1.02,.13-1.75,.83-2.15,1.81-1.13,2.76-2.19,5.56-3.26,8.34-.2,.53-.13,1.02,.77,1.23,.47-.66,1.03-1.37,1.5-2.13,.86-1.41,1.64-2.86,2.5-4.27,.2-.33,.52-.65,.87-.81,.22-.11,.62-.02,.85,.13,.22,.14,.37,.46,.46,.73,.06,.17,.02,.44-.08,.59-2.05,3.07-3.66,6.43-5.98,9.28q-2.06-.54-3.24-3c-1.73-.24-3.55-.4-5.21-1.34-2.34-1.32-3.56-3.41-2.88-5.84,.95-3.37,1.88-6.74,2.83-10.11,.19-.69,.44-1.37,.69-2.15-.72-.41-1.4-.8-2.17-1.24-.4-4.92-.76-9.83-1.2-14.74-.44-4.89-.28-9.85-1.32-14.65-1.61-.04-2.08,.18-2.24,1.08-.11,.6-.13,1.23-.14,1.84-.13,7.42-.23,14.84-.38,22.26-.08,4.01-.09,8.04-.45,12.04-.2,2.2-1.07,4.34-1.69,6.74,2.66,2.22,5.25,4.85,7.59,7.7,.44,.54,.85,1.16,1.11,1.8,.2,.48,.02,1.1-.57,1.22-.32,.07-.83-.12-1.05-.37-1.5-1.7-2.89-3.49-4.42-5.15-2.31-2.49-2.59-2.61-5.81-3.42,0-.45-.1-.97,.02-1.44,.19-.77,.02-1.42-.35-2.06-1.11-1.93-1.45-4.05-1.63-6.22-.13-1.64-.35-3.28-.6-4.91-.27-1.77-1.01-3.3-2.59-4.61-.73,.92-.96,1.83-.68,2.86,1.47,5.4,1.94,10.93,2.33,16.49,.17,2.51-.08,4.91-.61,7.41,1.84,1.66,3.64,3.32,5.5,4.94,1.22,1.06,2.01,2.25,2.15,3.94,.1,1.2,.53,2.38,.82,3.6,4.45,.81,8.79,1.6,13.37,2.44Z"/><path class="cls-1" d="M69.74,94.41c.4,3.67,.72,7.36,1.21,11.02,1.12,8.37,2.59,16.67,4.81,24.83,.54,1.99,1.09,3.92,2.45,5.58,.83,1.01,1.3,2.33,1.89,3.53,3.47,7.01,6.92,14.03,10.39,21.04,.25,.51,.39,1.15,1.01,1.33,.18-.15,.31-.21,.31-.26,0-4.83,.39-9.64-.24-14.48-.95-7.24-1.27-14.55-1.53-21.85-.2-5.53-.53-11.06-1.99-16.68-.76,.67-1.38,1.31-2.09,1.82-1.11,.81-1.95,.69-2.97-.33-1.38-1.38-2.76-2.77-4.12-4.17-2.96-3.05-5.03-6.76-7.51-10.16-.34-.47-.7-.95-1.04-1.42-.19,.07-.38,.14-.57,.21Z"/><path class="cls-1" d="M103.58,73.46c-.87-.07-1.67-.17-2.47-.21-7.15-.33-13.63-2.89-19.99-5.89-1.06-.5-1.78-1.36-2.44-2.3-1.35-1.94-2.74-3.85-4.2-5.89-1.17,.64-2.22,1.22-3.35,1.84,.53,6.8,1.05,13.55,1.59,20.61,1.43,1.5,3.08,3.17,5.2,4.3,.91,.49,1.82,.96,2.7,1.49,4.17,2.49,8.72,2.96,13.43,2.5,2.5-.24,4.86-.87,6.76-2.67,.68-.65,1.19-1.33,1.31-2.35,.43-3.77,.96-7.54,1.47-11.43Z"/><path class="cls-3" d="M95.5,115.53h-3.6c-.11,.45-.35,.92-.33,1.39,.3,5.66,.58,11.32,.97,16.97,.3,4.42,.76,8.83,1.1,13.25,.17,2.26,.34,4.52,.35,6.79,.01,3.81-.09,7.63-.18,11.44-.03,1.05-.02,2.05,.61,2.96,1.6,2.31,2.43,4.99,3.45,7.57,.87,2.19,1.74,4.37,3.16,6.17,.72,.05,.77-.38,.87-.77,.74-2.89,1.49-5.79,2.2-8.69,.14-.59,.19-1.22,.19-1.84-.03-6.29-.01-12.58-.16-18.87-.08-3.62-.95-7.15-1.81-10.65-1.95-7.9-4-15.78-6.03-23.66-.17-.68-.5-1.31-.78-2.05Z"/><path class="cls-3" d="M59.87,82.51c-.21,.84-.59,1.72-.63,2.62-.3,6.61-1.73,13.05-2.67,19.57-.52,3.56-.79,7.16-1.15,10.74-.14,1.43-.27,2.87-.35,4.31-.05,1,0,2.01,0,3.24,.57-.03,1.05-.03,1.52-.07,4.63-.41,9.25-.6,13.84,.37,.37,.08,.78,.01,1.42,.01-.24-1.38-.43-2.57-.65-3.75-1.81-9.72-3.29-19.48-3.59-29.39-.11-3.5,.09-6.96,.43-10.57,.76-.13,1.43-.24,2.21-.37v-1.96c-3.83,1.24-6.96,3.37-10.38,5.26Z"/><path class="cls-1" d="M69.93,82c-.52,3.7-.66,6.86,1.42,9.8,2.14,3.03,4,6.25,6.17,9.25,1.99,2.75,4.36,5.19,7.17,7.49,.52-.58,1.12-1.01,1.41-1.59,1.79-3.59,3.55-7.21,5.24-10.85,.4-.86,.73-1.69,1.72-2.33,.4,.36,.9,.7,1.26,1.15,2.12,2.66,4.21,5.35,6.32,8.01,.43,.55,.91,1.06,1.37,1.59,.24-.2,.5-.3,.52-.44,.27-2.47,.18-12.68-.14-15.02-.48,.21-.94,.33-1.31,.58-2.02,1.36-4.27,2.05-6.68,2.19-1.75,.1-3.5,.17-5.25,.14-2.72-.05-5.27-.76-7.72-1.96-5.37-2.62-5.7-2.79-11.5-8.03Z"/><path class="cls-3" d="M104.55,82.33c-.1,1.1-.25,1.79-.21,2.48,.12,2.36,.26,4.73,.46,7.08,.09,1.02,.21,2.07,.53,3.03,2.43,7.27,3.83,14.76,4.63,22.37,.03,.3,.14,.59,.27,1.1,2.08-.5,4.12-1.21,6.21-1.42,2.01-.2,4.08,.12,6.18,.21,.58-.57,.32-1.31,.1-1.96-.87-2.53-1.77-5.06-2.72-7.56-2.53-6.65-5.08-13.29-7.64-19.92-.18-.46-.37-1.06-.75-1.29-2.16-1.36-4.23-2.89-7.07-4.11Z"/><path class="cls-1" d="M106.72,161.6c3.63-18.74,2.9-41.71-1.48-59.07-.55,.71-.42,1.4-.45,2.03-.04,.93,0,1.86-.09,2.78-.09,.96-1.02,1.43-1.79,.9-.67-.46-1.28-1.03-1.86-1.6-.57-.57-1.08-1.21-1.58-1.78-.85,.18-.67,.79-.74,1.25-.25,1.84-.32,3.71-.74,5.51-.5,2.11-.11,4.05,.4,6.07,2.3,9.09,4.56,18.18,6.8,27.28,.74,3.01,1.04,6.08,.99,9.2-.04,2.47,.11,4.94,.18,7.41,0,.08,.08,.15,.13,.22,.08-.06,.16-.13,.24-.2Z"/><path class="cls-3" d="M93.36,97.12c-1.36,2.74-2.58,5.19-3.8,7.65,.53,2.8,1.06,5.58,1.59,8.34,1.48,.56,2.79,.19,4.19,.36,.84-1.91,.87-3.84,1.08-5.74,.22-1.93,.45-3.86,.69-5.93-1.15-1.44-2.34-2.93-3.74-4.68Z"/><path class="cls-1" d="M199.58,98.9c.78-.13,1.57-.27,2.4-.41,1.02-2.49,2.03-4.96,3.06-7.42,.27-.65,.57-1.31,.95-1.9,1.03-1.62,.78-3.34,.42-5.05-.14-.66-1.32-.89-1.83-.4-.28,.28-.52,.63-.66,.99-1.51,3.94-3.01,7.88-4.49,11.83-.29,.76-.6,1.55,.15,2.36Z"/><path class="cls-1" d="M196.88,97.47c1.8-4.77,3.56-9.45,5.35-14.23-.57-1.04-1.14-2.07-1.7-3.1-.33,.15-.6,.19-.66,.32-2.02,4.5-3.29,9.25-4.41,14.03-.3,1.3-.11,2.42,1.41,2.97Z"/><path class="cls-1" d="M183.61,118.41v2.11c6.91,1.03,13.8,2.05,20.68,3.08,.25-1.47,.18-1.69-.79-1.87-5.27-.96-10.46-2.34-15.82-2.76-1.23-.09-2.44-.33-4.06-.56Z"/><g><path class="cls-2" d="M94.48,57.43c0,.2-.06,.43,.02,.58,.08,.16,.28,.33,.45,.37,3.93,.97,7.88,1.4,11.85,.28,.49-.14,.99-.31,1.42-.57,.18-.11,.32-.56,.24-.76-.09-.21-.46-.4-.71-.41-.4-.01-.81,.11-1.2,.23-2.93,.87-5.88,.76-8.84,.25-.91-.16-1.83-.2-2.75-.26-.16,0-.33,.2-.48,.29Z"/><g><path class="cls-2" d="M76.1,10.19c-3.32-.58-6.28,.48-8.98,2.35-1.09,.76-2.17,1.62-3,2.64-3.93,4.8-5.98,10.24-5.44,16.6,.7,.27,1.34,.51,2.05,.78,.19,.85,.3,1.67,.58,2.43,.49,1.35,1.02,2.69,1.64,3.98,.82,1.7,2.09,2.68,4.16,2.56,1.2-.07,2.42,.32,3.74,.51,1.64-1.35,2.84-3.14,3.89-5.03,3.67-6.63,6.29-13.63,7.45-21.15,.09-.59,.3-1.16,.43-1.63,1.05-.58,1.95-.37,2.83-.05,2.33,.82,4.72,1.5,6.96,2.52,7.03,3.18,14,6.49,21,9.75,.43,.2,.88,.37,1.53,.65,.16-1.93-.39-3.53-1.01-4.98-1.94-4.56-4.14-8.97-7.73-12.53-3.27-3.25-6.93-5.79-11.35-7.22-1.73-.56-3.49-.47-5.2-.21-2.88,.44-5.58,1.5-7.91,3.28-1.04,.8-1.93,1.82-2.82,2.79-.49,.53-1.03,.62-1.66,.55-.34-.5-.59-1.05-1.32-1.19-1.63-.32-3.24-.49-4.91-.23-1.85,.29-3.61,.8-5.31,1.59-.46,.22-1.1,0-1.24-.57-.08-.32,.11-.8,.34-1.07,.25-.29,.67-.47,1.05-.62,3.33-1.27,6.72-1.97,10.28-1.15,.69,.16,1.4,.18,2.01,.26,1.83-1.78,3.81-3.04,5.98-4.06,6.2-2.91,12.04-1.98,17.61,1.6,6.86,4.41,11.27,10.78,14.15,18.26,.66,1.72,1.02,3.57,1.36,5.39,.36,1.94,.2,2.11-1.64,3.47,0,.4-.05,.81,0,1.21,.88,6.88,.81,13.79,.32,20.69-.26,3.7-.7,7.4-1.77,10.97-.62,2.06-1.49,4.05-2.33,6.04-.5,1.19-1.42,1.96-2.73,2.31-1.08,.29-2.11,.77-3.22,1.19-.21,1.16-.44,2.27-.62,3.38-.19,1.2-.62,2.41-.08,3.72,.82,.54,1.66,1.12,2.54,1.66,2.1,1.3,4.22,2.58,6.33,3.87,.26,.16,.51,.34,.61,.41v2c.33,.25,.55,.49,.82,.62,6.97,3.34,13.94,6.67,20.92,10,1.58,.75,3.09,1.78,4.75,2.18,1.67,.4,3.48,.23,5.23,.21,1.89-.02,3.09,.86,3.83,2.54,5.38,12.27,10.79,24.53,16.15,36.8,.86,1.98,1.72,3.99,2.32,6.06,.59,2.02,1.57,3.76,3.04,5.62,.3-.74,.58-1.25,.7-1.79,2.07-9.46,4.11-18.94,6.16-28.4,.1-.48,.31-.93,.49-1.46,.72,.05,1.3,.09,2.04,.15,.08-1.21,.16-2.4,.24-3.57,1.56-.96,3.2,.17,4.79-.64-.19-1.15-.31-2.38-.61-3.56-.14-.56-.52-1.13-.95-1.53-1.67-1.53-3.33-3.09-5.14-4.44-1.29-.97-1.58-2-1.17-3.47,.27-.99,.5-2.03,.49-3.04-.09-6.4-.47-12.76-2.32-18.96-.68-2.29,.23-4.24,1.73-5.94,.45-.52,1.46-.47,1.98,0,.23,.21,.41,.46,.61,.69,2.13,2.42,3.07,5.31,3.37,8.47,.18,1.95,.44,3.89,.71,5.83,.08,.56,.22,1.2,1.12,1.27,.78-1.33,1.28-2.73,1.29-4.33,.05-5.47,.13-10.93,.23-16.39,.08-4.22,.21-8.45,.32-12.67,.05-1.96,.04-3.92,.2-5.87,.19-2.29,1.96-3.67,4.28-3.4,.59,.07,1.15,.32,1.72,.49,.22,.84,.47,1.52,.57,2.22,.23,1.63,.45,3.27,.57,4.91,.38,5.24,.72,10.49,1.08,15.73,.13,1.95,.26,3.91,.45,5.86,.04,.43,.38,.83,.55,1.19,.31-.05,.44-.03,.51-.09,.31-.26,.6-.54,.89-.82,1.56-1.51,2.46-1.4,3.62,.5,.53,.86,1,1.76,1.47,2.6,.47-.04,.78-.08,1.08-.08,2.37-.01,3.2,.57,3.74,2.78,.22,.88,.3,1.8,.43,2.67,.93,.37,1.87,.43,2.45,1.33,1.42,2.22,2.36,4.56,2.03,7.25-.16,1.33-.28,2.67-.52,3.98-.46,2.53-1.16,5.04-1.43,7.59-.25,2.33-1.16,4.11-3.04,5.45-.42,.3-.82,.62-1.21,.96-1.87,1.62-3.17,3.48-2.58,6.26,1.17,.27,1.91,.99,1.93,2.34,.01,.7,.19,1.4,.28,1.97,2.47,1.45,2.58,1.72,2.28,4.22-.11,.9-.1,1.82-.14,2.84,1.2,.46,2.03,1.2,2.36,2.36,.35,1.23,.5,2.56-.42,3.53-.73,.77-1.81,1.21-2.76,1.82-.05,.15-.16,.34-.18,.54-.2,1.95-.39,3.9-.58,5.83,2.76,2.22,2.08,5.58-.97,7.93-.81,8.15-1.6,16.46-2.48,24.76-.35,3.27-.87,6.53-1.37,9.79-.07,.47-.38,1.22-.68,1.27-1.39,.27-1.68,1.45-2.22,2.4-2.81,4.95-6.12,9.54-9.89,13.81-3.28,3.72-6.84,7.13-10.63,10.2-.93-.12-1.74-.21-2.55-.35-6.09-1.04-11.65-3.38-16.7-6.93-.66-.46-1.31-1.03-1.74-1.7-1.06-1.64-2.13-3.3-2.94-5.07-2.87-6.28-5.66-12.6-7.76-19.2-.21-.65-.49-1.28-.94-2.43-.32,.96-.54,1.4-.61,1.86-.9,5.91-1.66,11.84-2.69,17.73-.96,5.48-1.98,10.97-3.37,16.35-.86,3.33-1.53,6.6-1.45,10.03,.1,4.5-.82,8.8-2.69,12.89-.16,.35-.45,.65-.64,.93-1.24-.15-2.34-.3-3.44-.41-5.54-.54-11.08-1.09-16.62-1.6-2.67-.25-5.34-.46-8.01-.65-.6-.04-1.33-.07-1.79,.22-1.9,1.19-3.97,.92-6.01,.87-6.39-.14-12.78-.32-19.17-.47-6.91-.16-13.81-.28-20.72-.47-5.47-.15-10.91-.59-16.26-1.86-.46-.11-.9-.34-1.36-.52,.08-.46,.03-.85,.2-1.03,.97-1.01,1.01-2.32,.77-3.46-1.01-4.73-2.08-9.45-3.32-14.13-1.13-4.28-2.5-8.49-3.77-12.74-.28-.94-.58-1.88-.86-2.83-.57,1.11-.78,2.21-.93,3.31-.36,2.76-.68,5.52-1.03,8.29-.72,5.83-1.45,11.66-2.16,17.49-.14,1.13-.24,2.25-1.01,3.34-.5,.13-1.08,.35-1.68,.42-1.64,.19-3.29,.25-4.92,.49-4.97,.75-9.86,.28-14.74-.75-1.83-.38-3.59-.91-5.27-1.72-2.5-1.2-3.16-2.41-2.98-5.12,.33-4.93,.75-9.87,.86-14.81,.2-9.09,1.1-18.1,2.38-27.09,.86-6.02,1.65-12.05,2.46-18.08,.14-1.02,.24-1.98-.33-2.98-.5-.87-.15-1.8,.67-2.46,.31-.25,.63-.49,1.04-.81,0-.93,0-1.86,0-2.78,.03-4.54-.07-9.08,.13-13.61,.28-6.59,.66-13.18,1.24-19.75,.33-3.79,1.13-7.53,1.71-11.3,.31-2.04,1.19-3.49,3.48-3.68,.48-.04,1.11-.23,1.37-.58,1.15-1.56,2.88-1.94,4.56-2.38,2.09-.55,4.21-.98,6.32-1.47,.69-.17,1.41-.31,2.05-.61,3.83-1.79,7.65-3.59,11.45-5.44,5.39-2.62,10.58-5.57,15.29-9.31,1.51-1.2,2.79-2.42,2.62-4.57-.04-.59,.26-1.2,.38-1.81,.21-1.09,.82-1.77,1.84-2.29,2.95-1.47,5.85-3.04,8.76-4.6,.61-.33,1.16-.77,1.72-1.15-.16-2.71-.29-5.28-.46-7.85-.08-1.23-.3-2.46-.34-3.69-.05-1.47-.67-2.37-1.95-3.21-2.91-1.9-4.29-4.89-5.16-8.17-.77-2.9-.84-5.7,.73-8.38,.09-.15,.01-.4,.01-.28-1.43-2.8-2.74-5.35-4.08-7.96-.04,0-.24,0-.44,0-1.3,.01-1.62-.18-1.67-1.18-.06-1.24,.02-2.48-.05-3.71-.26-4.94,1.43-9.32,3.88-13.47,2.12-3.59,5.19-6.11,9.04-7.66,2.56-1.03,5.17-1.3,7.82-.28-.39,.47-.78,.93-1.26,1.49Zm113.54,113.24c-2.92-.4-5.9-1.19-9.04-.08-.2,.58-.5,1.23-.65,1.91-2.12,9.77-4.19,19.56-6.36,29.32-.47,2.1-1.28,4.13-1.92,6.19-2.15,6.88-4.41,13.74-6.42,20.66-.98,3.36-.37,6.75,1.08,9.91,.4,.88,.38,1.56-.08,2.3-.33,.52-1.3,.54-1.59,0-.29-.54-.58-1.11-.69-1.7-.45-2.33-.9-4.66-1.2-7.01-.12-.99,.04-2.05,.27-3.03,.48-2,1.1-3.97,1.65-5.96,.13-.47,.18-.97,.3-1.73-1.23,.76-1.94,1.6-2.51,2.57-.15,.26-.26,.56-.45,.8-.35,.45-1.21,.54-1.68,.19-.5-.38-.43-.91-.21-1.38,.17-.37,.44-.7,.71-1.01,1.29-1.48,2.46-3.08,3.92-4.38,1.62-1.45,2.42-3.19,3.01-5.21,.84-2.86,1.94-5.65,2.9-8.48,.33-.96,.58-1.95,.86-2.92-2.29-1.35-3.29-3.49-4.17-5.65-1.24-3.05-2.2-6.22-3.52-9.24-4.9-11.25-9.9-22.45-14.84-33.68-1.47-3.34-1.52-2.88-4.6-2.91-1.13-.01-2.27,.02-3.4-.08-.59-.05-1.19-.27-1.73-.53-1.75-.87-3.45-1.83-5.21-2.68-5.01-2.43-10.03-4.83-15.05-7.23-.83-.4-1.69-.75-2.81-1.25,.07,.76,.01,1.35,.2,1.84,1.33,3.47,2.7,6.91,4.06,10.37,.98,2.49,1.91,5.01,2.97,7.47,1.2,2.78,1.39,5.8,2.26,8.66,.19,.61-.55,1.22-1.17,1-.58-.2-1.12-.52-1.7-.73-.48-.17-.99-.27-1.49-.38-.05-.01-.13,.14-.36,.4,1.42,2.02,3.08,3.96,4.69,5.93,.39,.47,.83,.92,1.1,1.46,.21,.43,.4,1.04,.26,1.46-.97,2.86-.92,5.88-1.42,8.82-1.58,9.29-4.11,18.3-7.35,27.12-1.88,5.13-3.61,10.31-5.59,15.4-1.04,2.67-2.48,5.2-3.73,7.79-.05,.09-.11,.17-.18,.25-.36,.39-.74,.75-1.32,.47-.56-.27-.68-.77-.43-1.29,.8-1.68,1.63-3.33,2.44-5,.45-.92,.95-1.83,1.3-2.79,1.73-4.74,3.38-9.52,5.14-14.25,3.17-8.52,5.79-17.2,7.36-26.16,.55-3.14,.9-6.33,1.33-9.49,.15-1.07-.08-2-.8-2.87-2.03-2.47-4.01-4.98-6.06-7.53-2.59-.42-4.79,.69-7.15,1.74-.03,.74-.12,1.44-.08,2.13,.12,1.95,.24,3.91,.44,5.86,.47,4.53,.36,9.07,0,13.59-.43,5.34-1.07,10.67-1.57,16-.29,3.1-1.08,6.08-1.85,9.08-1.45,5.59-2.89,11.17-4.37,16.75-.23,.85-.18,1.58,.25,2.37,1.76,3.25,2.99,6.78,5.25,9.76,.36,.47,.56,1.1,.71,1.68,.06,.22-.17,.63-.38,.76-.22,.14-.59,.08-.88,.03-.18-.03-.41-.18-.49-.34-1.06-2-2.66-3.68-3.35-5.89-.18-.58-.48-1.13-.78-1.67-.98-1.81-1.96-3.63-2.99-5.41-2.16-3.75-4.21-7.54-5.6-11.67-.52-1.54-1.42-2.96-2.15-4.44-.92-1.84-1.87-3.68-2.78-5.53-3.69-7.49-7.35-15-11.07-22.48-.63-1.28-1.27-2.55-2.3-3.63-.68-.71-1.06-1.76-1.38-2.72-.75-2.25-1.48-4.51-2.02-6.81-.44-1.86-1.42-2.84-3.31-3.1-1.83-.25-3.64-.73-5.61-.48-2.55,3.67-5.5,7.13-7.22,11.22,.2,1.39,1.06,2.21,1.77,3.06,3.2,3.78,6.47,7.5,9.68,11.26,3.75,4.39,7.58,8.73,11.16,13.25,4.3,5.42,8.68,10.75,13.53,15.69,1.77,1.81,2.88,4,3.76,6.32,.08,.22-.08,.75-.23,.8-.34,.1-.92,.13-1.08-.07-.66-.78-1.32-1.61-1.74-2.53-.66-1.45-1.63-2.64-2.72-3.73-4.46-4.46-8.46-9.31-12.32-14.29-4.36-5.63-9.05-10.98-13.81-16.28-3.3-3.68-6.38-7.57-9.6-11.32-.79-.92-.93-1.82-.37-2.82,1.09-1.98,2.2-3.96,3.37-5.9,.64-1.06,1.43-2.02,2.13-3.04,.27-.4,.48-.84,.88-1.56-2.55-.1-4.76-.45-6.56,1.4-.19,.19-.55,.24-.85,.28-.19,.03-.39-.07-.81-.16-.09-.37-.28-.84-.29-1.31-.02-1.44-.03-2.89,.06-4.33,.5-7.93,1.15-15.83,2.78-23.63,.44-2.08,.93-4.21,.78-6.65-.61,.34-1.08,.53-1.46,.82-5.61,4.28-11.81,7.53-18.19,10.47-2.62,1.21-5.19,2.51-7.81,3.72-.83,.38-1.72,.65-2.61,.87-2.5,.62-5.01,1.19-7.52,1.78-2.1,.49-2.63,2.01-2.07,3.97,2.51,8.72,4.94,17.45,7.25,26.22,2.02,7.68,3.54,15.47,4.47,23.37,.28,2.35,.54,4.71,.77,7.07,.04,.38-.12,.79-.27,1.16-.06,.16-.31,.35-.47,.35-.27,0-.74-.1-.78-.26-.33-1.06-.68-2.14-.83-3.24-.43-3.27-.73-6.56-1.16-9.82-.97-7.27-2.67-14.39-4.53-21.47-1.88-7.18-3.96-14.3-5.95-21.45-.28-1-.54-1.99-1.4-2.7-.39-.32-1.14-.26-1.33,.19-.24,.56-.5,1.15-.59,1.75-.62,3.97-1.36,7.93-1.74,11.92-.43,4.51-.53,9.06-.78,13.59-.07,1.23-.22,2.46-.27,3.7-.07,2.06-.1,4.12-.13,6.17-.05,4.02-.08,8.05-.13,12.07,0,.31,.03,.67-.12,.91-1.56,2.5-1.22,5.39-1.63,8.1-1.1,7.23-2.03,14.5-2.93,21.76-.76,6.14-1.32,12.3-1.38,18.5-.02,2.06-.18,4.12-.29,6.18-.19,3.7-.37,7.4-.58,11.1-.05,.96,.41,1.6,1.21,1.96,1.12,.51,2.25,1.07,3.44,1.36,4.42,1.06,8.88,1.83,13.47,1.38,2.56-.25,5.15-.15,7.75-.83,.59-.73,.61-1.66,.72-2.56,.77-6.14,1.54-12.27,2.29-18.41,.66-5.32,1.32-10.64,1.91-15.97,.09-.79-.13-1.63-.32-2.42-1.35-5.61-2.72-11.22-4.08-16.83-.14-.59-.3-1.21-.26-1.8,.02-.31,.41-.77,.71-.85,.29-.08,.86,.16,.99,.42,.32,.63,.47,1.35,.65,2.05,2.97,11.69,5.76,23.42,8.97,35.04,1.42,5.15,3.09,10.24,4.26,15.47,.29,1.29,.9,2.53,1.09,3.83,.19,1.3,.04,2.66,.04,4.08,1.77,.72,3.46,1.05,5.19,1.17,4.22,.28,8.43,.61,12.65,.78,5.25,.21,10.51,.27,15.77,.39,7.01,.16,14.02,.32,21.03,.48,.62,.01,1.24,.03,1.86,0,2.36-.1,3.08-.76,3.35-3.11,.39-3.28,.81-6.55,1.14-9.83,.54-5.33,1.06-10.67,1.52-16.01,.14-1.62,.42-3.27-.08-4.91-.09-.29,.17-.82,.43-1.05,.27-.23,.79-.38,1.13-.28,.32,.09,.72,.5,.78,.82,.13,.7,.13,1.44,.07,2.15-.48,5.34-.94,10.68-1.48,16.01-.43,4.2-.98,8.4-1.43,12.6-.07,.68,.1,1.39,.16,2.03,3.7,1.02,23.33,2.75,26.96,2.37,1.02-1.71,1.85-3.58,1.99-5.67,.24-3.39,.39-6.79,.62-10.18,.05-.81,.12-1.65,.38-2.42,1.88-5.6,2.91-11.39,3.87-17.18,1.26-7.63,2.37-15.28,3.5-22.93,.36-2.45,.54-4.92,.82-7.38,.06-.51,.09-1.03,.26-1.5,.08-.23,.44-.48,.7-.51,.25-.03,.71,.15,.78,.35,.3,.86,.86,1.84,.66,2.61-.4,1.52,0,2.89,.38,4.23,.92,3.27,1.85,6.56,3.07,9.72,1.89,4.9,3.92,9.76,6.12,14.53,.83,1.81,1.61,3.84,3.6,4.87,1.03,2.29,3.28,3.03,5.26,4.03,2.95,1.49,6,2.74,9.27,3.35,1.1,.2,2.23,.6,3.12-.51,2.06-.09,3.23-1.6,4.56-2.86,5.94-5.65,11.07-11.95,15.07-19.13,.9-1.61,1.96-3.14,2.77-4.79,.44-.9,.61-1.97,.72-2.98,.66-6.36,1.23-12.73,1.89-19.08,.71-6.87,1.5-13.73,2.25-20.6,.47-4.31,.93-8.61,1.37-12.92,.08-.81,.01-1.63,.01-2.77-5.72-2.27-11.59-2.74-17.37-3.55ZM70.91,45.46c-.45-.35-.78-.56-1.06-.83-2.4-2.25-5.32-1.46-6.11,1.67-.89,3.5,1.6,9.87,4.64,11.85,1.37,.89,2.71,.85,3.97-.26,.6-.53,1.06-1.21,1.51-1.74,.9-.15,1.24,.38,1.6,.89,1.56,2.18,3.14,4.35,4.66,6.55,.66,.96,1.41,1.74,2.48,2.24,5.05,2.38,10.23,4.34,15.8,5.16,3.35,.49,6.54,.05,9.7-1.1,1.17-.43,1.9-1.16,2.39-2.23,1.17-2.54,1.98-5.21,2.46-7.96,1-5.7,1.47-11.46,1.32-17.24-.09-3.7-.47-7.4-.67-11.1-.1-1.95-.96-3.16-2.78-4.03-7.63-3.63-15.18-7.43-23.12-10.35-.86-.32-1.77-.53-2.66-.76-.17-.04-.38,.1-.72,.2-2.3,10.55-5.7,20.69-13.4,29.03ZM202.34,118.33c.18-2.91,1.7-5.12,3.95-6.69,2.15-1.5,3.04-3.39,3.35-5.9,.34-2.75,1.13-5.44,1.57-8.19,.43-2.68,.32-5.34-1.23-7.73-.1-.16-.31-.25-.62-.49-1.02,.13-1.75,.83-2.15,1.81-1.13,2.76-2.19,5.56-3.26,8.34-.2,.53-.13,1.02,.77,1.23,.47-.66,1.03-1.37,1.5-2.13,.86-1.41,1.64-2.86,2.5-4.27,.2-.33,.52-.65,.87-.81,.22-.11,.62-.02,.85,.13,.22,.14,.37,.46,.46,.73,.06,.17,.02,.44-.08,.59-2.05,3.07-3.66,6.43-5.98,9.28q-2.06-.54-3.24-3c-1.73-.24-3.55-.4-5.21-1.34-2.34-1.32-3.56-3.41-2.88-5.84,.95-3.37,1.88-6.74,2.83-10.11,.19-.69,.44-1.37,.69-2.15-.72-.41-1.4-.8-2.17-1.24-.4-4.92-.76-9.83-1.2-14.74-.44-4.89-.28-9.85-1.32-14.65-1.61-.04-2.08,.18-2.24,1.08-.11,.6-.13,1.23-.14,1.84-.13,7.42-.23,14.84-.38,22.26-.08,4.01-.09,8.04-.45,12.04-.2,2.2-1.07,4.34-1.69,6.74,2.66,2.22,5.25,4.85,7.59,7.7,.44,.54,.85,1.16,1.11,1.8,.2,.48,.02,1.1-.57,1.22-.32,.07-.83-.12-1.05-.37-1.5-1.7-2.89-3.49-4.42-5.15-2.31-2.49-2.59-2.61-5.81-3.42,0-.45-.1-.97,.02-1.44,.19-.77,.02-1.42-.35-2.06-1.11-1.93-1.45-4.05-1.63-6.22-.13-1.64-.35-3.28-.6-4.91-.27-1.77-1.01-3.3-2.59-4.61-.73,.92-.96,1.83-.68,2.86,1.47,5.4,1.94,10.93,2.33,16.49,.17,2.51-.08,4.91-.61,7.41,1.84,1.66,3.64,3.32,5.5,4.94,1.22,1.06,2.01,2.25,2.15,3.94,.1,1.2,.53,2.38,.82,3.6,4.45,.81,8.79,1.6,13.37,2.44,.14-.42,.3-.7,.32-.99Zm-131.38-12.9c1.12,8.37,2.59,16.67,4.81,24.83,.54,1.99,1.09,3.92,2.45,5.58,.83,1.01,1.3,2.33,1.89,3.53,3.47,7.01,6.92,14.03,10.39,21.04,.25,.51,.39,1.15,1.01,1.33,.18-.15,.31-.21,.31-.26,0-4.83,.39-9.64-.24-14.48-.95-7.24-1.27-14.55-1.53-21.85-.2-5.53-.53-11.06-1.99-16.68-.76,.67-1.38,1.31-2.09,1.82-1.11,.81-1.95,.69-2.97-.33-1.38-1.38-2.76-2.77-4.12-4.17-2.96-3.05-5.03-6.76-7.51-10.16-.34-.47-.7-.95-1.04-1.42-.19,.07-.38,.14-.57,.21,.4,3.67,.72,7.36,1.21,11.02Zm30.15-32.18c-7.15-.33-13.63-2.89-19.99-5.89-1.06-.5-1.78-1.36-2.44-2.3-1.35-1.94-2.74-3.85-4.2-5.89-1.17,.64-2.22,1.22-3.35,1.84,.53,6.8,1.05,13.55,1.59,20.61,1.43,1.5,3.08,3.17,5.2,4.3,.91,.49,1.82,.96,2.7,1.49,4.17,2.49,8.72,2.96,13.43,2.5,2.5-.24,4.86-.87,6.76-2.67,.68-.65,1.19-1.33,1.31-2.35,.43-3.77,.96-7.54,1.47-11.43-.87-.07-1.67-.17-2.47-.21Zm-9.2,42.28c-.11,.45-.35,.92-.33,1.39,.3,5.66,.58,11.32,.97,16.97,.3,4.42,.76,8.83,1.1,13.25,.17,2.26,.34,4.52,.35,6.79,.01,3.81-.09,7.63-.18,11.44-.03,1.05-.02,2.05,.61,2.96,1.6,2.31,2.43,4.99,3.45,7.57,.87,2.19,1.74,4.37,3.16,6.17,.72,.05,.77-.38,.87-.77,.74-2.89,1.49-5.79,2.2-8.69,.14-.59,.19-1.22,.19-1.84-.03-6.29-.01-12.58-.16-18.87-.08-3.62-.95-7.15-1.81-10.65-1.95-7.9-4-15.78-6.03-23.66-.17-.68-.5-1.31-.78-2.05h-3.6Zm-32.66-30.41c-.3,6.61-1.73,13.05-2.67,19.57-.52,3.56-.79,7.16-1.15,10.74-.14,1.43-.27,2.87-.35,4.31-.05,1,0,2.01,0,3.24,.57-.03,1.05-.03,1.52-.07,4.63-.41,9.25-.6,13.84,.37,.37,.08,.78,.01,1.42,.01-.24-1.38-.43-2.57-.65-3.75-1.81-9.72-3.29-19.48-3.59-29.39-.11-3.5,.09-6.96,.43-10.57,.76-.13,1.43-.24,2.21-.37v-1.96c-3.83,1.24-6.96,3.37-10.38,5.26-.21,.84-.59,1.72-.63,2.62Zm12.11,6.67c2.14,3.03,4,6.25,6.17,9.25,1.99,2.75,4.36,5.19,7.17,7.49,.52-.58,1.12-1.01,1.41-1.59,1.79-3.59,3.55-7.21,5.24-10.85,.4-.86,.73-1.69,1.72-2.33,.4,.36,.9,.7,1.26,1.15,2.12,2.66,4.21,5.35,6.32,8.01,.43,.55,.91,1.06,1.37,1.59,.24-.2,.5-.3,.52-.44,.27-2.47,.18-12.68-.14-15.02-.48,.21-.94,.33-1.31,.58-2.02,1.36-4.27,2.05-6.68,2.19-1.75,.1-3.5,.17-5.25,.14-2.72-.05-5.27-.76-7.72-1.96-5.37-2.62-5.7-2.79-11.5-8.03-.52,3.7-.66,6.86,1.42,9.8Zm32.98-6.99c.12,2.36,.26,4.73,.46,7.08,.09,1.02,.21,2.07,.53,3.03,2.43,7.27,3.83,14.76,4.63,22.37,.03,.3,.14,.59,.27,1.1,2.08-.5,4.12-1.21,6.21-1.42,2.01-.2,4.08,.12,6.18,.21,.58-.57,.32-1.31,.1-1.96-.87-2.53-1.77-5.06-2.72-7.56-2.53-6.65-5.08-13.29-7.64-19.92-.18-.46-.37-1.06-.75-1.29-2.16-1.36-4.23-2.89-7.07-4.11-.1,1.1-.25,1.79-.21,2.48Zm.9,17.72c-.55,.71-.42,1.4-.45,2.03-.04,.93,0,1.86-.09,2.78-.09,.96-1.02,1.43-1.79,.9-.67-.46-1.28-1.03-1.86-1.6-.57-.57-1.08-1.21-1.58-1.78-.85,.18-.67,.79-.74,1.25-.25,1.84-.32,3.71-.74,5.51-.5,2.11-.11,4.05,.4,6.07,2.3,9.09,4.56,18.18,6.8,27.28,.74,3.01,1.04,6.08,.99,9.2-.04,2.47,.11,4.94,.18,7.41,0,.08,.08,.15,.13,.22,.08-.06,.16-.13,.24-.2,3.63-18.74,2.9-41.71-1.48-59.07Zm-15.67,2.25c.53,2.8,1.06,5.58,1.59,8.34,1.48,.56,2.79,.19,4.19,.36,.84-1.91,.87-3.84,1.08-5.74,.22-1.93,.45-3.86,.69-5.93-1.15-1.44-2.34-2.93-3.74-4.68-1.36,2.74-2.58,5.19-3.8,7.65Zm112.42-6.28c1.02-2.49,2.03-4.96,3.06-7.42,.27-.65,.57-1.31,.95-1.9,1.03-1.62,.78-3.34,.42-5.05-.14-.66-1.32-.89-1.83-.4-.28,.28-.52,.63-.66,.99-1.51,3.94-3.01,7.88-4.49,11.83-.29,.76-.6,1.55,.15,2.36,.78-.13,1.57-.27,2.4-.41Zm.26-15.25c-.57-1.04-1.14-2.07-1.7-3.1-.33,.15-.6,.19-.66,.32-2.02,4.5-3.29,9.25-4.41,14.03-.3,1.3-.11,2.42,1.41,2.97,1.8-4.77,3.56-9.45,5.35-14.23Zm-18.62,37.27c6.91,1.03,13.8,2.05,20.68,3.08,.25-1.47,.18-1.69-.79-1.87-5.27-.96-10.46-2.34-15.82-2.76-1.23-.09-2.44-.33-4.06-.56v2.11Z"/><path class="cls-2" d="M148.97,152.93c-.18-6.32-.82-13.09-1.65-19.85-.84-6.86-1.94-13.67-3.36-20.43-.32-1.51-.72-3.01-1.14-4.49-.1-.37-.38-.71-.64-1.01-.11-.13-.41-.22-.55-.16-.26,.11-.64,.31-.68,.53-.09,.49-.09,1.03,.03,1.51,2.53,10.02,4.01,20.21,4.97,30.48,.44,4.72,.83,9.44,1.01,14.18,.13,3.39,.06,6.8-.85,10.12-.27,.98,0,1.59,.62,1.87,.64,.3,1.31-.32,1.54-1.48,.71-3.56,.7-7.17,.69-11.27Z"/><path class="cls-2" d="M101.36,207.65c-.6,.25-1.33,.42-1.89,.82-2.07,1.5-1.75,4.45,.56,5.51,1.55,.71,2.99,.1,3.32-1.54,.16-.78,.11-1.63,0-2.43-.13-.84-.45-1.11-1.98-2.36Z"/><path class="cls-2" d="M96.51,230.51c-.01,1.33,1.02,2.33,2.34,2.26,1.48-.08,2.57-1.33,2.51-2.91-.05-1.4-.97-2.45-2.19-2.47-1.48-.03-2.65,1.34-2.66,3.12Z"/><path class="cls-2" d="M99.23,36.18c2.06,4.06,4.43,7.63,6.89,11.29-.95,1.19-1.87,2.27-2.69,3.43-.14,.2,.09,.75,.29,1.04,.08,.12,.66,.1,.81-.05,1.29-1.32,2.48-2.72,3.24-4.42-.11-.33-.16-.65-.32-.9-2.02-3.21-4.05-6.41-6.09-9.6-.21-.33-.48-.71-.82-.86-.28-.13-.7,.03-1.31,.08Z"/><path class="cls-2" d="M90.73,32.92c-3.24,.28-6.11,1.27-8.7,3.05-.27,.19-.55,.76-.46,1,.24,.58,.81,.42,1.3,.24,1.83-.65,3.63-1.38,5.5-1.9,1.27-.35,2.62-.39,3.93-.59,.45-.07,.74-.41,.66-.85-.05-.26-.31-.62-.54-.69-.58-.17-1.2-.19-1.7-.26Z"/><path class="cls-2" d="M108.58,29.01c-2.38,.04-4.42,.9-6.27,2.28-.18,.14-.33,.69-.25,.76,.26,.22,.67,.47,.96,.41,.48-.1,.91-.44,1.36-.67,1.57-.81,3.2-1.34,5-1.23,.49,.03,1-.05,1.49-.15,.12-.02,.26-.3,.27-.46,.01-.16-.1-.46-.21-.49-.78-.18-1.57-.31-2.36-.46Z"/><path class="cls-2" d="M107.42,37.17c-.13-.34-.36-1.11-.72-1.83-.25-.49-1.31-.44-1.64,.01-.73,1-.76,2.39-.08,3.5,.3,.49,1.2,.92,1.58,.62,.36-.28,.56-.78,.78-1.21,.09-.17,.03-.4,.07-1.1Z"/><path class="cls-2" d="M89.45,40.85c-.01-1.7-.49-2.51-1.25-2.35-1.02,.21-1.11,1.09-1.23,1.89-.07,.49-.04,1.02,.04,1.51,.1,.54,.47,1.01,1.03,.92,.43-.08,.95-.4,1.18-.77,.25-.4,.2-.98,.24-1.2Z"/></g></g></g></g></svg>