<?xml version="1.0" encoding="UTF-8"?><svg id="Layer_2" xmlns="http://www.w3.org/2000/svg" xmlns:xlink="http://www.w3.org/1999/xlink" viewBox="0 0 20.33 21.31"><defs><style>.cls-1{fill:#192930;stroke:#fff;stroke-miterlimit:10;stroke-width:.25px;}.cls-2{clip-path:url(#clippath-1);}.cls-3{fill:#4c5456;}.cls-4{fill:url(#Unnamed_Pattern_3);}.cls-5{clip-path:url(#clippath);}.cls-6{fill:none;}</style><clipPath id="clippath"><rect class="cls-6" y="0" width="20.33" height="21.31"/></clipPath><pattern id="Unnamed_Pattern_3" x="0" y="0" width="35.25" height="35.25" patternTransform="translate(-417.29 5382.49)" patternUnits="userSpaceOnUse" viewBox="0 0 35.25 35.25"><g><rect class="cls-6" width="35.25" height="35.25"/><rect class="cls-1" x=".12" y=".12" width="35" height="35"/></g></pattern><clipPath id="clippath-1"><rect class="cls-6" y="0" width="20.33" height="21.31"/></clipPath></defs><g id="upward_lp"><g><g class="cls-5"><path class="cls-4" d="M4.17,9.35c.45-3.15,6.43-5.47,8.63-2.85,.24,0,.48,0,.72,.02,1.17-2.27-.2-4.06-2.53-4.49-1.46-.29-2.98-.09-4.37,.39C3.49,3.41-.29,7.21,4.17,9.35Zm.96,.11c.54-.11,1.1-.13,1.65-.05,.08,.01,.16,.02,.24,.04,1.2-1.32,2.76-2.36,4.51-2.78-1.55-.79-3.44-.16-4.81,.73-.69,.5-1.49,1.15-1.59,2.06Zm11.25,.44c-.22-1.18-1.2-2.11-2.37-2.34-.17,.25-.35,.49-.56,.71,0,.05,0,.09,0,.14,0,.46-.07,.91-.2,1.35,.46-.09,.93-.15,1.39-.15,.58,0,1.17,.08,1.72,.28Zm-7.92,.18l.02,.02c1.46-.39,2.87-1.1,3.97-2.16-.02-.09-.04-.17-.07-.25-.02-.06-.05-.12-.08-.18-1.65,.23-3.14,1.13-4.3,2.3,.16,.08,.31,.18,.45,.28Zm1.01,1.47c.06-.05,.11-.09,.17-.14,.75-.57,1.6-1.03,2.49-1.34,.05-.11,.09-.23,.14-.35,.05-.16,.1-.32,.14-.48-.12,.09-.23,.18-.35,.26-.87,.61-1.85,1.08-2.87,1.39,.12,.2,.22,.42,.28,.65Zm-.03,1.85c.7-.56,1.34-1.2,1.88-1.92-.63,.34-1.23,.76-1.75,1.27-.02,.22-.07,.44-.13,.65Zm-3.36,1.81c.1-.03,.2-.06,.3-.1,.35-.12,.69-.27,1.02-.42,.13-.89,.63-1.69,1.23-2.35,0-.43-.15-.86-.43-1.19l-.1,.02c-.29,.47-.87,.09-1.3,.14-.55,.83-1.59,3.08-.72,3.9Zm-1.37,.27c.11,0,.23-.02,.34-.04-.62-1.38,.03-2.99,.7-4.24-.21-.05-.42-.12-.62-.22-.19-.1-.37-.23-.52-.38-1.11,.41-2.16,1.27-2.41,2.46-.32,1.61,1.01,2.57,2.52,2.41Zm5.8,1.2c2.9-.29,5.72-2.7,5.95-5.69-1.11-.59-2.46-.46-3.63-.12-.99,1.89-2.64,3.39-4.5,4.42,.08,1.05,1.24,1.5,2.17,1.39Zm-.16,4.05c-.38-.15-.38-.73,0-.89,.83-.41,1.66-.84,2.48-1.28,.84-.44,1.68-.9,2.42-1.51,1.41-1.16,3.08-3.42,2.07-5.28-.63,3.08-3.53,5.48-6.61,5.84-1.3,.16-2.82-.4-3.23-1.74-.42,.24-.92,.42-1.41,.33-1.06,.28-2.24,.38-3.25-.09-2.71-1.37-1.71-4.88,.65-6.05C-.53,7.97,1.28,4.1,4.5,2.33c2.15-1.22,4.79-1.79,7.21-1.12,2.52,.63,3.95,3.05,2.79,5.49,1.69,.43,2.89,2.05,2.92,3.78,2.37,1.93,.71,5.38-1.19,7.02-1.09,.99-2.43,1.65-3.72,2.33-.46,.17-1.81,1.11-2.15,.91Z"/></g><g class="cls-2"><path class="cls-3" d="M4.17,9.35c.45-3.15,6.43-5.47,8.63-2.85,.24,0,.48,0,.72,.02,1.17-2.27-.2-4.06-2.53-4.49-1.46-.29-2.98-.09-4.37,.39C3.49,3.41-.29,7.21,4.17,9.35Zm.96,.11c.54-.11,1.1-.13,1.65-.05,.08,.01,.16,.02,.24,.04,1.2-1.32,2.76-2.36,4.51-2.78-1.55-.79-3.44-.16-4.81,.73-.69,.5-1.49,1.15-1.59,2.06Zm11.25,.44c-.22-1.18-1.2-2.11-2.37-2.34-.17,.25-.35,.49-.56,.71,0,.05,0,.09,0,.14,0,.46-.07,.91-.2,1.35,.46-.09,.93-.15,1.39-.15,.58,0,1.17,.08,1.72,.28Zm-7.92,.18l.02,.02c1.46-.39,2.87-1.1,3.97-2.16-.02-.09-.04-.17-.07-.25-.02-.06-.05-.12-.08-.18-1.65,.23-3.14,1.13-4.3,2.3,.16,.08,.31,.18,.45,.28Zm1.01,1.47c.06-.05,.11-.09,.17-.14,.75-.57,1.6-1.03,2.49-1.34,.05-.11,.09-.23,.14-.35,.05-.16,.1-.32,.14-.48-.12,.09-.23,.18-.35,.26-.87,.61-1.85,1.08-2.87,1.39,.12,.2,.22,.42,.28,.65Zm-.03,1.85c.7-.56,1.34-1.2,1.88-1.92-.63,.34-1.23,.76-1.75,1.27-.02,.22-.07,.44-.13,.65Zm-3.36,1.81c.1-.03,.2-.06,.3-.1,.35-.12,.69-.27,1.02-.42,.13-.89,.63-1.69,1.23-2.35,0-.43-.15-.86-.43-1.19l-.1,.02c-.29,.47-.87,.09-1.3,.14-.55,.83-1.59,3.08-.72,3.9Zm-1.37,.27c.11,0,.23-.02,.34-.04-.62-1.38,.03-2.99,.7-4.24-.21-.05-.42-.12-.62-.22-.19-.1-.37-.23-.52-.38-1.11,.41-2.16,1.27-2.41,2.46-.32,1.61,1.01,2.57,2.52,2.41Zm5.8,1.2c2.9-.29,5.72-2.7,5.95-5.69-1.11-.59-2.46-.46-3.63-.12-.99,1.89-2.64,3.39-4.5,4.42,.08,1.05,1.24,1.5,2.17,1.39Zm-.16,4.05c-.38-.15-.38-.73,0-.89,.83-.41,1.66-.84,2.48-1.28,.84-.44,1.68-.9,2.42-1.51,1.41-1.16,3.08-3.42,2.07-5.28-.63,3.08-3.53,5.48-6.61,5.84-1.3,.16-2.82-.4-3.23-1.74-.42,.24-.92,.42-1.41,.33-1.06,.28-2.24,.38-3.25-.09-2.71-1.37-1.71-4.88,.65-6.05C-.53,7.97,1.28,4.1,4.5,2.33c2.15-1.22,4.79-1.79,7.21-1.12,2.52,.63,3.95,3.05,2.79,5.49,1.69,.43,2.89,2.05,2.92,3.78,2.37,1.93,.71,5.38-1.19,7.02-1.09,.99-2.43,1.65-3.72,2.33-.46,.17-1.81,1.11-2.15,.91Z"/></g></g></g></svg>