<?xml version="1.0" encoding="UTF-8"?><svg id="Layer_2" xmlns="http://www.w3.org/2000/svg" xmlns:xlink="http://www.w3.org/1999/xlink" viewBox="0 0 750 4467.11"><defs><style>.cls-1{fill:#fed872;}.cls-2{fill:#fed772;}.cls-3{fill:#f7c44f;}.cls-4{fill:#fdd876;}.cls-5{fill:#f5c047;}.cls-6{fill:#f5be45;}.cls-7{fill:#fcd369;}.cls-8{fill:#f3b93d;}.cls-9{fill:#f8c551;}.cls-10{fill:#f1ae29;}.cls-11{fill:#f9c857;}.cls-12{fill:#f4ba3f;}.cls-13{fill:#fbd065;}.cls-14{fill:#f5be44;}.cls-15{fill:#fcd167;}.cls-16{fill:#fbce61;}.cls-17{fill:#facc5e;}.cls-18{fill:#fcd166;}.cls-19{fill:#f7c550;}.cls-20{fill:#f9c958;}.cls-21{fill:#fcd878;}.cls-22{fill:url(#_称未設定グラデーション_22);fill-rule:evenodd;}.cls-23{fill:#f2b332;}.cls-24{fill:#fed771;}.cls-25{fill:#f8c654;}.cls-26{fill:#fed873;}.cls-27{fill:#fdd66e;}.cls-28{fill:#fdd46c;}.cls-29{fill:#f2b12f;}.cls-30{fill:#fbcd5f;}.cls-31{fill:#f7c34d;}.cls-32{fill:#f8c755;}.cls-33{fill:#fdd56d;}.cls-34{fill:#fbcc5f;}.cls-35{fill:#facb5c;}.cls-36{fill:#f4ba40;}.cls-37{fill:#fcd268;}.cls-38{fill:#f1af2a;}.cls-39{fill:#f4bc42;}.cls-40{fill:#fbd064;}.cls-41{fill:#fbce60;}.cls-42{fill:#f8c652;}.cls-43{fill:#f3b639;}.cls-44{fill:#f1ae2a;}.cls-45{fill:#f1b02d;}.cls-46{fill:#f1b02c;}.cls-47{fill:#f7c44d;}.cls-48{fill:#faca5b;}.cls-49{fill:#fbd165;}.cls-50{fill:#fdd770;}.cls-51{fill:#f9c755;}.cls-52{fill:#f5bf45;}.cls-53{fill:#f8c651;}.cls-54{fill:#fdd874;}.cls-55{fill:#f2b334;}.cls-56{fill:#fdd875;}.cls-57{fill:#f1af2b;}.cls-58{fill:#f1af2c;}.cls-59{fill:#f7c34c;}.cls-60{fill:#f4b93e;}.cls-61{fill:#f9c856;}.cls-62{fill:#fcd46b;}.cls-63{fill:#f8c754;}.cls-64{fill:#fcd267;}.cls-65{fill:#faca5a;}.cls-66{fill:#f2b230;}.cls-67{fill:#fac95a;}.cls-68{fill:#f2b231;}.cls-69{fill:#f4bb41;}.cls-70{fill:#f8c653;}.cls-71{fill:#fdd877;}.cls-72{fill:#fbcd60;}.cls-73{fill:#f9c756;}.cls-74{fill:#f7c54f;}.cls-75{clip-path:url(#clippath);}.cls-76{fill:#f2b436;}.cls-77{clip-rule:evenodd;fill:none;}.cls-78{fill:#fbcf63;}.cls-79{fill:#fcd877;}.cls-80{fill:#f5bf46;}.cls-81{fill:#f4ba3e;}.cls-82{fill:#f2b12e;}.cls-83{fill:#fdd56e;}.cls-84{fill:#f2b232;}.cls-85{fill:#f3b73b;}.cls-86{fill:#f6c24a;}.cls-87{fill:#f2b130;}.cls-88{fill:#f2b333;}.cls-89{fill:#f6c249;}.cls-90{fill:#f3b73c;}.cls-91{fill:#f3b538;}.cls-92{fill:#f5bf47;}.cls-93{fill:#f6c34b;}.cls-94{fill:#f6c148;}.cls-95{fill:#f2b435;}.cls-96{fill:#facb5d;}.cls-97{fill:#f3b63a;}.cls-98{fill:#f7c44e;}.cls-99{fill:#f9c858;}.cls-100{fill:#fdd66f;}.cls-101{fill:#f3b638;}.cls-102{fill:#faca5c;}.cls-103{fill:#f3b83d;}.cls-104{fill:#f6c149;}.cls-105{fill:#f2b536;}.cls-106{fill:#f2b02e;}.cls-107{fill:#fcd46a;}.cls-108{fill:#fbce62;}.cls-109{fill:#fac959;}.cls-110{fill:#f4bb40;}.cls-111{fill:#f4bc41;}.cls-112{fill:#f3b83c;}.cls-113{fill:#facc5d;}.cls-114{fill:#f3b73a;}.cls-115{fill:#fcd36a;}.cls-116{fill:#f6c048;}.cls-117{fill:#fcd368;}.cls-118{fill:#fed874;}.cls-119{fill:#fdd56c;}.cls-120{fill:#f2b434;}</style><clipPath id="clippath"><polygon class="cls-77" points="750 4373.98 374.61 4467.11 0 4373.98 0 0 750 0 750 4373.98"/></clipPath><linearGradient id="_称未設定グラデーション_22" x1="375" y1="-1359.28" x2="375" y2="4509.57" gradientTransform="matrix(1, 0, 0, 1, 0, 0)" gradientUnits="userSpaceOnUse"><stop offset="0" stop-color="#f9f9f9"/><stop offset=".29" stop-color="#f9f9f9"/><stop offset=".36" stop-color="#f9f1dd" stop-opacity=".92"/><stop offset=".49" stop-color="#fbdf97" stop-opacity=".73"/><stop offset=".58" stop-color="#fcd369" stop-opacity=".6"/><stop offset=".7" stop-color="#f8c857" stop-opacity=".41"/><stop offset=".85" stop-color="#f4b83c" stop-opacity=".12"/><stop offset="1" stop-color="#f2b334" stop-opacity="0"/></linearGradient></defs><g id="upward_lp"><g class="cls-75"><g><g><polygon class="cls-17" points="-34.49 2294 68.84 2216.49 -34.49 2138.98 -34.49 2294"/><polygon class="cls-67" points="68.84 2371.51 68.84 2216.49 -34.49 2294 68.84 2371.51"/><polygon class="cls-18" points="-34.49 2139.86 68.84 2062.35 -34.49 1984.85 -34.49 2139.86"/><polygon class="cls-108" points="68.84 2217.37 68.84 2062.35 -34.49 2139.86 68.84 2217.37"/><polygon class="cls-35" points="-34.49 1985.73 68.84 1908.22 -34.49 1830.71 -34.49 1985.73"/><polygon class="cls-40" points="68.84 2063.23 68.84 1908.22 -34.49 1985.73 68.84 2063.23"/><polygon class="cls-16" points="-34.49 1831.59 68.84 1754.08 -34.49 1676.57 -34.49 1831.59"/><polygon class="cls-30" points="68.84 1909.1 68.84 1754.08 -34.49 1831.59 68.84 1909.1"/><polygon class="cls-115" points="-34.49 1677.45 68.84 1599.94 -34.49 1522.44 -34.49 1677.45"/><polygon class="cls-100" points="68.84 1754.96 68.84 1599.94 -34.49 1677.45 68.84 1754.96"/><polygon class="cls-119" points="-34.49 1523.32 68.84 1445.81 -34.49 1368.3 -34.49 1523.32"/><polygon class="cls-64" points="68.84 1600.82 68.84 1445.81 -34.49 1523.32 68.84 1600.82"/><polygon class="cls-7" points="-34.49 1369.18 68.84 1291.67 -34.49 1214.16 -34.49 1369.18"/><polygon class="cls-26" points="68.84 1446.69 68.84 1291.67 -34.49 1369.18 68.84 1446.69"/><polygon class="cls-83" points="-34.49 1215.04 68.84 1137.53 -34.49 1060.03 -34.49 1215.04"/><polygon class="cls-33" points="68.84 1292.55 68.84 1137.53 -34.49 1215.04 68.84 1292.55"/><polygon class="cls-27" points="-34.49 1060.9 68.84 983.4 -34.49 905.89 -34.49 1060.9"/><polygon class="cls-62" points="68.84 1138.41 68.84 983.4 -34.49 1060.9 68.84 1138.41"/><polygon class="cls-54" points="-34.49 906.77 68.84 829.26 -34.49 751.75 -34.49 906.77"/><polygon class="cls-24" points="68.84 984.28 68.84 829.26 -34.49 906.77 68.84 984.28"/><polygon class="cls-26" points="-34.49 752.63 68.84 675.12 -34.49 597.61 -34.49 752.63"/><polygon class="cls-54" points="68.84 830.14 68.84 675.12 -34.49 752.63 68.84 830.14"/><polygon class="cls-4" points="-34.49 598.49 68.84 520.99 -34.49 443.48 -34.49 598.49"/><polygon class="cls-26" points="68.84 676 68.84 520.99 -34.49 598.49 68.84 676"/><polygon class="cls-56" points="-34.49 444.36 68.84 366.85 -34.49 289.34 -34.49 444.36"/><polygon class="cls-4" points="68.84 521.87 68.84 366.85 -34.49 444.36 68.84 521.87"/><polygon class="cls-79" points="-34.49 290.22 68.84 212.71 -34.49 135.2 -34.49 290.22"/><polygon class="cls-56" points="68.84 367.73 68.84 212.71 -34.49 290.22 68.84 367.73"/><polygon class="cls-106" points="-34.49 4451.92 68.84 4374.41 -34.49 4296.9 -34.49 4451.92"/><polygon class="cls-44" points="68.84 4529.43 68.84 4374.41 -34.49 4451.92 68.84 4529.43"/><polygon class="cls-46" points="-34.49 4297.78 68.84 4220.27 -34.49 4142.76 -34.49 4297.78"/><polygon class="cls-97" points="68.84 4375.29 68.84 4220.27 -34.49 4297.78 68.84 4375.29"/><polygon class="cls-85" points="-34.49 4143.64 68.84 4066.13 -34.49 3988.63 -34.49 4143.64"/><polygon class="cls-38" points="68.84 4221.15 68.84 4066.13 -34.49 4143.64 68.84 4221.15"/><polygon class="cls-60" points="-34.49 3989.51 68.84 3912 -34.49 3834.49 -34.49 3989.51"/><polygon class="cls-66" points="68.84 4067.01 68.84 3912 -34.49 3989.51 68.84 4067.01"/><polygon class="cls-82" points="-34.49 3835.37 68.84 3757.86 -34.49 3680.35 -34.49 3835.37"/><polygon class="cls-55" points="68.84 3912.88 68.84 3757.86 -34.49 3835.37 68.84 3912.88"/><polygon class="cls-81" points="-34.49 3064.68 68.84 3142.19 -34.49 3219.7 -34.49 3064.68"/><polygon class="cls-59" points="68.84 2987.18 68.84 3142.19 -34.49 3064.68 68.84 2987.18"/><polygon class="cls-110" points="-34.49 3218.82 68.84 3296.33 -34.49 3373.84 -34.49 3218.82"/><polygon class="cls-103" points="68.84 3141.31 68.84 3296.33 -34.49 3218.82 68.84 3141.31"/><polygon class="cls-80" points="-34.49 3372.96 68.84 3450.47 -34.49 3527.97 -34.49 3372.96"/><polygon class="cls-36" points="68.84 3295.45 68.84 3450.47 -34.49 3372.96 68.84 3295.45"/><polygon class="cls-114" points="-34.49 3527.1 68.84 3604.6 -34.49 3682.11 -34.49 3527.1"/><polygon class="cls-69" points="68.84 3449.59 68.84 3604.6 -34.49 3527.1 68.84 3449.59"/><polygon class="cls-58" points="68.84 3603.72 68.84 3758.74 -34.49 3681.23 68.84 3603.72"/><polygon class="cls-86" points="68.84 2216.49 68.84 2371.51 172.17 2294 68.84 2216.49"/><polygon class="cls-11" points="68.84 2216.49 172.17 2294 172.17 2138.98 68.84 2216.49"/><polygon class="cls-17" points="172.17 2294 275.5 2216.49 172.17 2138.98 172.17 2294"/><polygon class="cls-34" points="275.5 2371.51 275.5 2216.49 172.17 2294 275.5 2371.51"/><polygon class="cls-7" points="68.84 2062.35 68.84 2217.37 172.17 2139.86 68.84 2062.35"/><polygon class="cls-96" points="68.84 2062.35 172.17 2139.86 172.17 1984.85 68.84 2062.35"/><polygon class="cls-18" points="172.17 2139.86 275.5 2062.35 172.17 1984.85 172.17 2139.86"/><polygon class="cls-108" points="275.5 2217.37 275.5 2062.35 172.17 2139.86 275.5 2217.37"/><polygon class="cls-78" points="68.84 1908.22 68.84 2063.23 172.17 1985.73 68.84 1908.22"/><polygon class="cls-78" points="68.84 1908.22 172.17 1985.73 172.17 1830.71 68.84 1908.22"/><polygon class="cls-35" points="172.17 1985.73 275.5 1908.22 172.17 1830.71 172.17 1985.73"/><polygon class="cls-40" points="275.5 2063.23 275.5 1908.22 172.17 1985.73 275.5 2063.23"/><polygon class="cls-64" points="68.84 1754.08 68.84 1909.1 172.17 1831.59 68.84 1754.08"/><polygon class="cls-15" points="68.84 1754.08 172.17 1831.59 172.17 1676.57 68.84 1754.08"/><polygon class="cls-16" points="172.17 1831.59 275.5 1754.08 172.17 1676.57 172.17 1831.59"/><polygon class="cls-30" points="275.5 1909.1 275.5 1754.08 172.17 1831.59 275.5 1909.1"/><polygon class="cls-37" points="68.84 1599.94 68.84 1754.96 172.17 1677.45 68.84 1599.94"/><polygon class="cls-107" points="68.84 1599.94 172.17 1677.45 172.17 1522.44 68.84 1599.94"/><polygon class="cls-115" points="172.17 1677.45 275.5 1599.94 172.17 1522.44 172.17 1677.45"/><polygon class="cls-100" points="275.5 1754.96 275.5 1599.94 172.17 1677.45 275.5 1754.96"/><polygon class="cls-13" points="68.84 1445.81 68.84 1600.82 172.17 1523.32 68.84 1445.81"/><polygon class="cls-107" points="68.84 1445.81 172.17 1523.32 172.17 1368.3 68.84 1445.81"/><polygon class="cls-119" points="172.17 1523.32 275.5 1445.81 172.17 1368.3 172.17 1523.32"/><polygon class="cls-64" points="275.5 1600.82 275.5 1445.81 172.17 1523.32 275.5 1600.82"/><polygon class="cls-28" points="68.84 1291.67 68.84 1446.69 172.17 1369.18 68.84 1291.67"/><polygon class="cls-28" points="68.84 1291.67 172.17 1369.18 172.17 1214.16 68.84 1291.67"/><polygon class="cls-7" points="172.17 1369.18 275.5 1291.67 172.17 1214.16 172.17 1369.18"/><polygon class="cls-26" points="275.5 1446.69 275.5 1291.67 172.17 1369.18 275.5 1446.69"/><polygon class="cls-2" points="68.84 1137.53 68.84 1292.55 172.17 1215.04 68.84 1137.53"/><polygon class="cls-2" points="68.84 1137.53 172.17 1215.04 172.17 1060.03 68.84 1137.53"/><polygon class="cls-83" points="172.17 1215.04 275.5 1137.53 172.17 1060.03 172.17 1215.04"/><polygon class="cls-33" points="275.5 1292.55 275.5 1137.53 172.17 1215.04 275.5 1292.55"/><polygon class="cls-1" points="68.84 983.4 68.84 1138.41 172.17 1060.9 68.84 983.4"/><polygon class="cls-1" points="68.84 983.4 172.17 1060.9 172.17 905.89 68.84 983.4"/><polygon class="cls-27" points="172.17 1060.9 275.5 983.4 172.17 905.89 172.17 1060.9"/><polygon class="cls-62" points="275.5 1138.41 275.5 983.4 172.17 1060.9 275.5 1138.41"/><polygon class="cls-71" points="68.84 829.26 68.84 984.28 172.17 906.77 68.84 829.26"/><polygon class="cls-54" points="68.84 829.26 172.17 906.77 172.17 751.75 68.84 829.26"/><polygon class="cls-54" points="172.17 906.77 275.5 829.26 172.17 751.75 172.17 906.77"/><polygon class="cls-24" points="275.5 984.28 275.5 829.26 172.17 906.77 275.5 984.28"/><polygon class="cls-54" points="68.84 675.12 68.84 830.14 172.17 752.63 68.84 675.12"/><polygon class="cls-118" points="68.84 675.12 172.17 752.63 172.17 597.61 68.84 675.12"/><polygon class="cls-26" points="172.17 752.63 275.5 675.12 172.17 597.61 172.17 752.63"/><polygon class="cls-54" points="275.5 830.14 275.5 675.12 172.17 752.63 275.5 830.14"/><polygon class="cls-26" points="68.84 520.99 68.84 676 172.17 598.49 68.84 520.99"/><polygon class="cls-26" points="68.84 520.99 172.17 598.49 172.17 443.48 68.84 520.99"/><polygon class="cls-4" points="172.17 598.49 275.5 520.99 172.17 443.48 172.17 598.49"/><polygon class="cls-26" points="275.5 676 275.5 520.99 172.17 598.49 275.5 676"/><polygon class="cls-4" points="68.84 366.85 68.84 521.87 172.17 444.36 68.84 366.85"/><polygon class="cls-21" points="68.84 366.85 172.17 444.36 172.17 289.34 68.84 366.85"/><polygon class="cls-56" points="172.17 444.36 275.5 366.85 172.17 289.34 172.17 444.36"/><polygon class="cls-4" points="275.5 521.87 275.5 366.85 172.17 444.36 275.5 521.87"/><polygon class="cls-56" points="68.84 212.71 68.84 367.73 172.17 290.22 68.84 212.71"/><polygon class="cls-79" points="68.84 212.71 172.17 290.22 172.17 135.2 68.84 212.71"/><polygon class="cls-79" points="172.17 290.22 275.5 212.71 172.17 135.2 172.17 290.22"/><polygon class="cls-56" points="275.5 367.73 275.5 212.71 172.17 290.22 275.5 367.73"/><polygon class="cls-87" points="68.84 4374.41 68.84 4529.43 172.17 4451.92 68.84 4374.41"/><polygon class="cls-95" points="68.84 4374.41 172.17 4451.92 172.17 4296.9 68.84 4374.41"/><polygon class="cls-106" points="172.17 4451.92 275.5 4374.41 172.17 4296.9 172.17 4451.92"/><polygon class="cls-44" points="275.5 4529.43 275.5 4374.41 172.17 4451.92 275.5 4529.43"/><polygon class="cls-101" points="68.84 4220.27 68.84 4375.29 172.17 4297.78 68.84 4220.27"/><polygon class="cls-88" points="68.84 4220.27 172.17 4297.78 172.17 4142.76 68.84 4220.27"/><polygon class="cls-46" points="172.17 4297.78 275.5 4220.27 172.17 4142.76 172.17 4297.78"/><polygon class="cls-97" points="275.5 4375.29 275.5 4220.27 172.17 4297.78 275.5 4375.29"/><polygon class="cls-43" points="68.84 4066.13 68.84 4221.15 172.17 4143.64 68.84 4066.13"/><polygon class="cls-91" points="68.84 4066.13 172.17 4143.64 172.17 3988.63 68.84 4066.13"/><polygon class="cls-91" points="172.17 4143.64 275.5 4066.13 172.17 3988.63 172.17 4143.64"/><polygon class="cls-38" points="275.5 4221.15 275.5 4066.13 172.17 4143.64 275.5 4221.15"/><polygon class="cls-66" points="68.84 3912 68.84 4067.01 172.17 3989.51 68.84 3912"/><polygon class="cls-105" points="68.84 3912 172.17 3989.51 172.17 3834.49 68.84 3912"/><polygon class="cls-76" points="172.17 3989.51 275.5 3912 172.17 3834.49 172.17 3989.51"/><polygon class="cls-57" points="275.5 4067.01 275.5 3912 172.17 3989.51 275.5 4067.01"/><polygon class="cls-12" points="68.84 3757.86 68.84 3912.88 172.17 3835.37 68.84 3757.86"/><polygon class="cls-76" points="68.84 3757.86 172.17 3835.37 172.17 3680.35 68.84 3757.86"/><polygon class="cls-114" points="172.17 3835.37 275.5 3757.86 172.17 3680.35 172.17 3835.37"/><polygon class="cls-58" points="275.5 3912.88 275.5 3757.86 172.17 3835.37 275.5 3912.88"/><polygon class="cls-52" points="68.84 3142.19 68.84 2987.18 172.17 3064.68 68.84 3142.19"/><polygon class="cls-70" points="68.84 3142.19 172.17 3064.68 172.17 3219.7 68.84 3142.19"/><polygon class="cls-81" points="172.17 3064.68 275.5 3142.19 172.17 3219.7 172.17 3064.68"/><polygon class="cls-86" points="275.5 2987.18 275.5 3142.19 172.17 3064.68 275.5 2987.18"/><polygon class="cls-112" points="68.84 3296.33 68.84 3141.31 172.17 3218.82 68.84 3296.33"/><polygon class="cls-85" points="68.84 3296.33 172.17 3218.82 172.17 3373.84 68.84 3296.33"/><polygon class="cls-110" points="172.17 3218.82 275.5 3296.33 172.17 3373.84 172.17 3218.82"/><polygon class="cls-103" points="275.5 3141.31 275.5 3296.33 172.17 3218.82 275.5 3141.31"/><polygon class="cls-111" points="68.84 3450.47 68.84 3295.45 172.17 3372.96 68.84 3450.47"/><polygon class="cls-39" points="68.84 3450.47 172.17 3372.96 172.17 3527.97 68.84 3450.47"/><polygon class="cls-80" points="172.17 3372.96 275.5 3450.47 172.17 3527.97 172.17 3372.96"/><polygon class="cls-36" points="275.5 3295.45 275.5 3450.47 172.17 3372.96 275.5 3295.45"/><polygon class="cls-69" points="68.84 3604.6 68.84 3449.59 172.17 3527.1 68.84 3604.6"/><polygon class="cls-8" points="68.84 3604.6 172.17 3527.1 172.17 3682.11 68.84 3604.6"/><polygon class="cls-90" points="172.17 3527.1 275.5 3604.6 172.17 3682.11 172.17 3527.1"/><polygon class="cls-69" points="275.5 3449.59 275.5 3604.6 172.17 3527.1 275.5 3449.59"/><polygon class="cls-90" points="68.84 3758.74 68.84 3603.72 172.17 3681.23 68.84 3758.74"/><polygon class="cls-5" points="275.5 3603.72 275.5 3758.74 172.17 3681.23 275.5 3603.72"/><polygon class="cls-86" points="273.58 2216.49 273.58 2371.51 376.91 2294 273.58 2216.49"/><polygon class="cls-11" points="273.58 2216.49 376.91 2294 376.91 2138.98 273.58 2216.49"/><polygon class="cls-49" points="376.91 2294 480.24 2216.49 376.91 2138.98 376.91 2294"/><polygon class="cls-72" points="480.24 2371.51 480.24 2216.49 376.91 2294 480.24 2371.51"/><polygon class="cls-7" points="273.58 2062.35 273.58 2217.37 376.91 2139.86 273.58 2062.35"/><polygon class="cls-96" points="273.58 2062.35 376.91 2139.86 376.91 1984.85 273.58 2062.35"/><polygon class="cls-18" points="376.91 2139.86 480.24 2062.35 376.91 1984.85 376.91 2139.86"/><polygon class="cls-117" points="480.24 2217.37 480.24 2062.35 376.91 2139.86 480.24 2217.37"/><polygon class="cls-41" points="273.58 1908.22 273.58 2063.23 376.91 1985.73 273.58 1908.22"/><polygon class="cls-78" points="273.58 1908.22 376.91 1985.73 376.91 1830.71 273.58 1908.22"/><polygon class="cls-35" points="376.91 1985.73 480.24 1908.22 376.91 1830.71 376.91 1985.73"/><polygon class="cls-40" points="480.24 2063.23 480.24 1908.22 376.91 1985.73 480.24 2063.23"/><polygon class="cls-64" points="273.58 1754.08 273.58 1909.1 376.91 1831.59 273.58 1754.08"/><polygon class="cls-15" points="273.58 1754.08 376.91 1831.59 376.91 1676.57 273.58 1754.08"/><polygon class="cls-16" points="376.91 1831.59 480.24 1754.08 376.91 1676.57 376.91 1831.59"/><polygon class="cls-30" points="480.24 1909.1 480.24 1754.08 376.91 1831.59 480.24 1909.1"/><polygon class="cls-37" points="273.58 1599.94 273.58 1754.96 376.91 1677.45 273.58 1599.94"/><polygon class="cls-107" points="273.58 1599.94 376.91 1677.45 376.91 1522.44 273.58 1599.94"/><polygon class="cls-115" points="376.91 1677.45 480.24 1599.94 376.91 1522.44 376.91 1677.45"/><polygon class="cls-100" points="480.24 1754.96 480.24 1599.94 376.91 1677.45 480.24 1754.96"/><polygon class="cls-13" points="273.58 1445.81 273.58 1600.82 376.91 1523.32 273.58 1445.81"/><polygon class="cls-107" points="273.58 1445.81 376.91 1523.32 376.91 1368.3 273.58 1445.81"/><polygon class="cls-119" points="376.91 1523.32 480.24 1445.81 376.91 1368.3 376.91 1523.32"/><polygon class="cls-64" points="480.24 1600.82 480.24 1445.81 376.91 1523.32 480.24 1600.82"/><polygon class="cls-28" points="273.58 1291.67 273.58 1446.69 376.91 1369.18 273.58 1291.67"/><polygon class="cls-28" points="273.58 1291.67 376.91 1369.18 376.91 1214.16 273.58 1291.67"/><polygon class="cls-7" points="376.91 1369.18 480.24 1291.67 376.91 1214.16 376.91 1369.18"/><polygon class="cls-26" points="480.24 1446.69 480.24 1291.67 376.91 1369.18 480.24 1446.69"/><polygon class="cls-2" points="273.58 1137.53 273.58 1292.55 376.91 1215.04 273.58 1137.53"/><polygon class="cls-2" points="273.58 1137.53 376.91 1215.04 376.91 1060.03 273.58 1137.53"/><polygon class="cls-83" points="376.91 1215.04 480.24 1137.53 376.91 1060.03 376.91 1215.04"/><polygon class="cls-33" points="480.24 1292.55 480.24 1137.53 376.91 1215.04 480.24 1292.55"/><polygon class="cls-1" points="273.58 983.4 273.58 1138.41 376.91 1060.9 273.58 983.4"/><polygon class="cls-1" points="273.58 983.4 376.91 1060.9 376.91 905.89 273.58 983.4"/><polygon class="cls-27" points="376.91 1060.9 480.24 983.4 376.91 905.89 376.91 1060.9"/><polygon class="cls-62" points="480.24 1138.41 480.24 983.4 376.91 1060.9 480.24 1138.41"/><polygon class="cls-71" points="273.58 829.26 273.58 984.28 376.91 906.77 273.58 829.26"/><polygon class="cls-54" points="273.58 829.26 376.91 906.77 376.91 751.75 273.58 829.26"/><polygon class="cls-54" points="376.91 906.77 480.24 829.26 376.91 751.75 376.91 906.77"/><polygon class="cls-24" points="480.24 984.28 480.24 829.26 376.91 906.77 480.24 984.28"/><polygon class="cls-54" points="273.58 675.12 273.58 830.14 376.91 752.63 273.58 675.12"/><polygon class="cls-54" points="273.58 675.12 376.91 752.63 376.91 597.61 273.58 675.12"/><polygon class="cls-26" points="376.91 752.63 480.24 675.12 376.91 597.61 376.91 752.63"/><polygon class="cls-54" points="480.24 830.14 480.24 675.12 376.91 752.63 480.24 830.14"/><polygon class="cls-26" points="273.58 520.99 273.58 676 376.91 598.49 273.58 520.99"/><polygon class="cls-26" points="273.58 520.99 376.91 598.49 376.91 443.48 273.58 520.99"/><polygon class="cls-4" points="376.91 598.49 480.24 520.99 376.91 443.48 376.91 598.49"/><polygon class="cls-26" points="480.24 676 480.24 520.99 376.91 598.49 480.24 676"/><polygon class="cls-4" points="273.58 366.85 273.58 521.87 376.91 444.36 273.58 366.85"/><polygon class="cls-4" points="273.58 366.85 376.91 444.36 376.91 289.34 273.58 366.85"/><polygon class="cls-56" points="376.91 444.36 480.24 366.85 376.91 289.34 376.91 444.36"/><polygon class="cls-4" points="480.24 521.87 480.24 366.85 376.91 444.36 480.24 521.87"/><polygon class="cls-56" points="273.58 212.71 273.58 367.73 376.91 290.22 273.58 212.71"/><polygon class="cls-79" points="273.58 212.71 376.91 290.22 376.91 135.2 273.58 212.71"/><polygon class="cls-79" points="376.91 290.22 480.24 212.71 376.91 135.2 376.91 290.22"/><polygon class="cls-56" points="480.24 367.73 480.24 212.71 376.91 290.22 480.24 367.73"/><polygon class="cls-87" points="273.58 4374.41 273.58 4529.43 376.91 4451.92 273.58 4374.41"/><polygon class="cls-95" points="273.58 4374.41 376.91 4451.92 376.91 4296.9 273.58 4374.41"/><polygon class="cls-106" points="376.91 4451.92 480.24 4374.41 376.91 4296.9 376.91 4451.92"/><polygon class="cls-23" points="480.24 4529.43 480.24 4374.41 376.91 4451.92 480.24 4529.43"/><polygon class="cls-68" points="273.58 4220.27 273.58 4375.29 376.91 4297.78 273.58 4220.27"/><polygon class="cls-88" points="273.58 4220.27 376.91 4297.78 376.91 4142.76 273.58 4220.27"/><polygon class="cls-46" points="376.91 4297.78 480.24 4220.27 376.91 4142.76 376.91 4297.78"/><polygon class="cls-97" points="480.24 4375.29 480.24 4220.27 376.91 4297.78 480.24 4375.29"/><polygon class="cls-43" points="273.58 4066.13 273.58 4221.15 376.91 4143.64 273.58 4066.13"/><polygon class="cls-29" points="273.58 4066.13 376.91 4143.64 376.91 3988.63 273.58 4066.13"/><polygon class="cls-91" points="376.91 4143.64 480.24 4066.13 376.91 3988.63 376.91 4143.64"/><polygon class="cls-38" points="480.24 4221.15 480.24 4066.13 376.91 4143.64 480.24 4221.15"/><polygon class="cls-66" points="273.58 3912 273.58 4067.01 376.91 3989.51 273.58 3912"/><polygon class="cls-105" points="273.58 3912 376.91 3989.51 376.91 3834.49 273.58 3912"/><polygon class="cls-76" points="376.91 3989.51 480.24 3912 376.91 3834.49 376.91 3989.51"/><polygon class="cls-57" points="480.24 4067.01 480.24 3912 376.91 3989.51 480.24 4067.01"/><polygon class="cls-8" points="273.58 3757.86 273.58 3912.88 376.91 3835.37 273.58 3757.86"/><polygon class="cls-82" points="273.58 3757.86 376.91 3835.37 376.91 3680.35 273.58 3757.86"/><polygon class="cls-60" points="376.91 3835.37 480.24 3757.86 376.91 3680.35 376.91 3835.37"/><polygon class="cls-10" points="480.24 3912.88 480.24 3757.86 376.91 3835.37 480.24 3912.88"/><polygon class="cls-52" points="273.58 3142.19 273.58 2987.18 376.91 3064.68 273.58 3142.19"/><polygon class="cls-48" points="273.58 3142.19 376.91 3064.68 376.91 3219.7 273.58 3142.19"/><polygon class="cls-74" points="376.91 3064.68 480.24 3142.19 376.91 3219.7 376.91 3064.68"/><polygon class="cls-85" points="480.24 2987.18 480.24 3142.19 376.91 3064.68 480.24 2987.18"/><polygon class="cls-112" points="273.58 3296.33 273.58 3141.31 376.91 3218.82 273.58 3296.33"/><polygon class="cls-6" points="273.58 3296.33 376.91 3218.82 376.91 3373.84 273.58 3296.33"/><polygon class="cls-110" points="376.91 3218.82 480.24 3296.33 376.91 3373.84 376.91 3218.82"/><polygon class="cls-32" points="480.24 3141.31 480.24 3296.33 376.91 3218.82 480.24 3141.31"/><polygon class="cls-111" points="273.58 3450.47 273.58 3295.45 376.91 3372.96 273.58 3450.47"/><polygon class="cls-116" points="273.58 3450.47 376.91 3372.96 376.91 3527.97 273.58 3450.47"/><polygon class="cls-80" points="376.91 3372.96 480.24 3450.47 376.91 3527.97 376.91 3372.96"/><polygon class="cls-36" points="480.24 3295.45 480.24 3450.47 376.91 3372.96 480.24 3295.45"/><polygon class="cls-69" points="273.58 3604.6 273.58 3449.59 376.91 3527.1 273.58 3604.6"/><polygon class="cls-55" points="273.58 3604.6 376.91 3527.1 376.91 3682.11 273.58 3604.6"/><polygon class="cls-90" points="376.91 3527.1 480.24 3604.6 376.91 3682.11 376.91 3527.1"/><polygon class="cls-89" points="480.24 3449.59 480.24 3604.6 376.91 3527.1 480.24 3449.59"/><polygon class="cls-12" points="273.58 3758.74 273.58 3603.72 376.91 3681.23 273.58 3758.74"/><polygon class="cls-5" points="480.24 3603.72 480.24 3758.74 376.91 3681.23 480.24 3603.72"/><polygon class="cls-86" points="478.33 2216.49 478.33 2371.51 581.66 2294 478.33 2216.49"/><polygon class="cls-113" points="478.33 2216.49 581.66 2294 581.66 2138.98 478.33 2216.49"/><polygon class="cls-49" points="581.66 2294 684.99 2216.49 581.66 2138.98 581.66 2294"/><polygon class="cls-72" points="684.99 2371.51 684.99 2216.49 581.66 2294 684.99 2371.51"/><polygon class="cls-17" points="478.33 2062.35 478.33 2217.37 581.66 2139.86 478.33 2062.35"/><polygon class="cls-93" points="478.33 2062.35 581.66 2139.86 581.66 1984.85 478.33 2062.35"/><polygon class="cls-3" points="581.66 2139.86 684.99 2062.35 581.66 1984.85 581.66 2139.86"/><polygon class="cls-117" points="684.99 2217.37 684.99 2062.35 581.66 2139.86 684.99 2217.37"/><polygon class="cls-41" points="478.33 1908.22 478.33 2063.23 581.66 1985.73 478.33 1908.22"/><polygon class="cls-78" points="478.33 1908.22 581.66 1985.73 581.66 1830.71 478.33 1908.22"/><polygon class="cls-35" points="581.66 1985.73 684.99 1908.22 581.66 1830.71 581.66 1985.73"/><polygon class="cls-18" points="684.99 2063.23 684.99 1908.22 581.66 1985.73 684.99 2063.23"/><polygon class="cls-102" points="478.33 1754.08 478.33 1909.1 581.66 1831.59 478.33 1754.08"/><polygon class="cls-15" points="478.33 1754.08 581.66 1831.59 581.66 1676.57 478.33 1754.08"/><polygon class="cls-16" points="581.66 1831.59 684.99 1754.08 581.66 1676.57 581.66 1831.59"/><polygon class="cls-30" points="684.99 1909.1 684.99 1754.08 581.66 1831.59 684.99 1909.1"/><polygon class="cls-50" points="478.33 1599.94 478.33 1754.96 581.66 1677.45 478.33 1599.94"/><polygon class="cls-107" points="478.33 1599.94 581.66 1677.45 581.66 1522.44 478.33 1599.94"/><polygon class="cls-115" points="581.66 1677.45 684.99 1599.94 581.66 1522.44 581.66 1677.45"/><polygon class="cls-100" points="684.99 1754.96 684.99 1599.94 581.66 1677.45 684.99 1754.96"/><polygon class="cls-13" points="478.33 1445.81 478.33 1600.82 581.66 1523.32 478.33 1445.81"/><polygon class="cls-107" points="478.33 1445.81 581.66 1523.32 581.66 1368.3 478.33 1445.81"/><polygon class="cls-119" points="581.66 1523.32 684.99 1445.81 581.66 1368.3 581.66 1523.32"/><polygon class="cls-64" points="684.99 1600.82 684.99 1445.81 581.66 1523.32 684.99 1600.82"/><polygon class="cls-28" points="478.33 1291.67 478.33 1446.69 581.66 1369.18 478.33 1291.67"/><polygon class="cls-28" points="478.33 1291.67 581.66 1369.18 581.66 1214.16 478.33 1291.67"/><polygon class="cls-7" points="581.66 1369.18 684.99 1291.67 581.66 1214.16 581.66 1369.18"/><polygon class="cls-26" points="684.99 1446.69 684.99 1291.67 581.66 1369.18 684.99 1446.69"/><polygon class="cls-2" points="478.33 1137.53 478.33 1292.55 581.66 1215.04 478.33 1137.53"/><polygon class="cls-2" points="478.33 1137.53 581.66 1215.04 581.66 1060.03 478.33 1137.53"/><polygon class="cls-83" points="581.66 1215.04 684.99 1137.53 581.66 1060.03 581.66 1215.04"/><polygon class="cls-33" points="684.99 1292.55 684.99 1137.53 581.66 1215.04 684.99 1292.55"/><polygon class="cls-1" points="478.33 983.4 478.33 1138.41 581.66 1060.9 478.33 983.4"/><polygon class="cls-1" points="478.33 983.4 581.66 1060.9 581.66 905.89 478.33 983.4"/><polygon class="cls-27" points="581.66 1060.9 684.99 983.4 581.66 905.89 581.66 1060.9"/><polygon class="cls-62" points="684.99 1138.41 684.99 983.4 581.66 1060.9 684.99 1138.41"/><polygon class="cls-71" points="478.33 829.26 478.33 984.28 581.66 906.77 478.33 829.26"/><polygon class="cls-54" points="478.33 829.26 581.66 906.77 581.66 751.75 478.33 829.26"/><polygon class="cls-54" points="581.66 906.77 684.99 829.26 581.66 751.75 581.66 906.77"/><polygon class="cls-24" points="684.99 984.28 684.99 829.26 581.66 906.77 684.99 984.28"/><polygon class="cls-54" points="478.33 675.12 478.33 830.14 581.66 752.63 478.33 675.12"/><polygon class="cls-54" points="478.33 675.12 581.66 752.63 581.66 597.61 478.33 675.12"/><polygon class="cls-118" points="581.66 752.63 684.99 675.12 581.66 597.61 581.66 752.63"/><polygon class="cls-54" points="684.99 830.14 684.99 675.12 581.66 752.63 684.99 830.14"/><polygon class="cls-26" points="478.33 520.99 478.33 676 581.66 598.49 478.33 520.99"/><polygon class="cls-26" points="478.33 520.99 581.66 598.49 581.66 443.48 478.33 520.99"/><polygon class="cls-4" points="581.66 598.49 684.99 520.99 581.66 443.48 581.66 598.49"/><polygon class="cls-26" points="684.99 676 684.99 520.99 581.66 598.49 684.99 676"/><polygon class="cls-4" points="478.33 366.85 478.33 521.87 581.66 444.36 478.33 366.85"/><polygon class="cls-4" points="478.33 366.85 581.66 444.36 581.66 289.34 478.33 366.85"/><polygon class="cls-21" points="581.66 444.36 684.99 366.85 581.66 289.34 581.66 444.36"/><polygon class="cls-4" points="684.99 521.87 684.99 366.85 581.66 444.36 684.99 521.87"/><polygon class="cls-56" points="478.33 212.71 478.33 367.73 581.66 290.22 478.33 212.71"/><polygon class="cls-79" points="478.33 212.71 581.66 290.22 581.66 135.2 478.33 212.71"/><polygon class="cls-79" points="581.66 290.22 684.99 212.71 581.66 135.2 581.66 290.22"/><polygon class="cls-56" points="684.99 367.73 684.99 212.71 581.66 290.22 684.99 367.73"/><polygon class="cls-87" points="478.33 4374.41 478.33 4529.43 581.66 4451.92 478.33 4374.41"/><polygon class="cls-95" points="478.33 4374.41 581.66 4451.92 581.66 4296.9 478.33 4374.41"/><polygon class="cls-84" points="581.66 4451.92 684.99 4374.41 581.66 4296.9 581.66 4451.92"/><polygon class="cls-23" points="684.99 4529.43 684.99 4374.41 581.66 4451.92 684.99 4529.43"/><polygon class="cls-68" points="478.33 4220.27 478.33 4375.29 581.66 4297.78 478.33 4220.27"/><polygon class="cls-88" points="478.33 4220.27 581.66 4297.78 581.66 4142.76 478.33 4220.27"/><polygon class="cls-46" points="581.66 4297.78 684.99 4220.27 581.66 4142.76 581.66 4297.78"/><polygon class="cls-97" points="684.99 4375.29 684.99 4220.27 581.66 4297.78 684.99 4375.29"/><polygon class="cls-38" points="478.33 4066.13 478.33 4221.15 581.66 4143.64 478.33 4066.13"/><polygon class="cls-29" points="478.33 4066.13 581.66 4143.64 581.66 3988.63 478.33 4066.13"/><polygon class="cls-91" points="581.66 4143.64 684.99 4066.13 581.66 3988.63 581.66 4143.64"/><polygon class="cls-38" points="684.99 4221.15 684.99 4066.13 581.66 4143.64 684.99 4221.15"/><polygon class="cls-66" points="478.33 3912 478.33 4067.01 581.66 3989.51 478.33 3912"/><polygon class="cls-120" points="478.33 3912 581.66 3989.51 581.66 3834.49 478.33 3912"/><polygon class="cls-14" points="581.66 3989.51 684.99 3912 581.66 3834.49 581.66 3989.51"/><polygon class="cls-76" points="684.99 4067.01 684.99 3912 581.66 3989.51 684.99 4067.01"/><polygon class="cls-8" points="478.33 3757.86 478.33 3912.88 581.66 3835.37 478.33 3757.86"/><polygon class="cls-82" points="478.33 3757.86 581.66 3835.37 581.66 3680.35 478.33 3757.86"/><polygon class="cls-80" points="581.66 3835.37 684.99 3757.86 581.66 3680.35 581.66 3835.37"/><polygon class="cls-8" points="684.99 3912.88 684.99 3757.86 581.66 3835.37 684.99 3912.88"/><polygon class="cls-81" points="478.33 3142.19 478.33 2987.18 581.66 3064.68 478.33 3142.19"/><polygon class="cls-104" points="478.33 3142.19 581.66 3064.68 581.66 3219.7 478.33 3142.19"/><polygon class="cls-74" points="581.66 3064.68 684.99 3142.19 581.66 3219.7 581.66 3064.68"/><polygon class="cls-85" points="684.99 2987.18 684.99 3142.19 581.66 3064.68 684.99 2987.18"/><polygon class="cls-32" points="478.33 3296.33 478.33 3141.31 581.66 3218.82 478.33 3296.33"/><polygon class="cls-73" points="478.33 3296.33 581.66 3218.82 581.66 3373.84 478.33 3296.33"/><polygon class="cls-6" points="581.66 3218.82 684.99 3296.33 581.66 3373.84 581.66 3218.82"/><polygon class="cls-32" points="684.99 3141.31 684.99 3296.33 581.66 3218.82 684.99 3141.31"/><polygon class="cls-103" points="478.33 3450.47 478.33 3295.45 581.66 3372.96 478.33 3450.47"/><polygon class="cls-116" points="478.33 3450.47 581.66 3372.96 581.66 3527.97 478.33 3450.47"/><polygon class="cls-39" points="581.66 3372.96 684.99 3450.47 581.66 3527.97 581.66 3372.96"/><polygon class="cls-36" points="684.99 3295.45 684.99 3450.47 581.66 3372.96 684.99 3295.45"/><polygon class="cls-69" points="478.33 3604.6 478.33 3449.59 581.66 3527.1 478.33 3604.6"/><polygon class="cls-55" points="478.33 3604.6 581.66 3527.1 581.66 3682.11 478.33 3604.6"/><polygon class="cls-85" points="581.66 3527.1 684.99 3604.6 581.66 3682.11 581.66 3527.1"/><polygon class="cls-89" points="684.99 3449.59 684.99 3604.6 581.66 3527.1 684.99 3449.59"/><polygon class="cls-45" points="478.33 3758.74 478.33 3603.72 581.66 3681.23 478.33 3758.74"/><polygon class="cls-69" points="684.99 3603.72 684.99 3758.74 581.66 3681.23 684.99 3603.72"/><polygon class="cls-86" points="683.07 2216.49 683.07 2371.51 786.4 2294 683.07 2216.49"/><polygon class="cls-113" points="683.07 2216.49 786.4 2294 786.4 2138.98 683.07 2216.49"/><polygon class="cls-17" points="683.07 2062.35 683.07 2217.37 786.4 2139.86 683.07 2062.35"/><polygon class="cls-93" points="683.07 2062.35 786.4 2139.86 786.4 1984.85 683.07 2062.35"/><polygon class="cls-41" points="683.07 1908.22 683.07 2063.23 786.4 1985.73 683.07 1908.22"/><polygon class="cls-78" points="683.07 1908.22 786.4 1985.73 786.4 1830.71 683.07 1908.22"/><polygon class="cls-102" points="683.07 1754.08 683.07 1909.1 786.4 1831.59 683.07 1754.08"/><polygon class="cls-15" points="683.07 1754.08 786.4 1831.59 786.4 1676.57 683.07 1754.08"/><polygon class="cls-50" points="683.07 1599.94 683.07 1754.96 786.4 1677.45 683.07 1599.94"/><polygon class="cls-107" points="683.07 1599.94 786.4 1677.45 786.4 1522.44 683.07 1599.94"/><polygon class="cls-13" points="683.07 1445.81 683.07 1600.82 786.4 1523.32 683.07 1445.81"/><polygon class="cls-107" points="683.07 1445.81 786.4 1523.32 786.4 1368.3 683.07 1445.81"/><polygon class="cls-28" points="683.07 1291.67 683.07 1446.69 786.4 1369.18 683.07 1291.67"/><polygon class="cls-28" points="683.07 1291.67 786.4 1369.18 786.4 1214.16 683.07 1291.67"/><polygon class="cls-2" points="683.07 1137.53 683.07 1292.55 786.4 1215.04 683.07 1137.53"/><polygon class="cls-2" points="683.07 1137.53 786.4 1215.04 786.4 1060.03 683.07 1137.53"/><polygon class="cls-1" points="683.07 983.4 683.07 1138.41 786.4 1060.9 683.07 983.4"/><polygon class="cls-1" points="683.07 983.4 786.4 1060.9 786.4 905.89 683.07 983.4"/><polygon class="cls-71" points="683.07 829.26 683.07 984.28 786.4 906.77 683.07 829.26"/><polygon class="cls-54" points="683.07 829.26 786.4 906.77 786.4 751.75 683.07 829.26"/><polygon class="cls-54" points="683.07 675.12 683.07 830.14 786.4 752.63 683.07 675.12"/><polygon class="cls-54" points="683.07 675.12 786.4 752.63 786.4 597.61 683.07 675.12"/><polygon class="cls-26" points="683.07 520.99 683.07 676 786.4 598.49 683.07 520.99"/><polygon class="cls-26" points="683.07 520.99 786.4 598.49 786.4 443.48 683.07 520.99"/><polygon class="cls-4" points="683.07 366.85 683.07 521.87 786.4 444.36 683.07 366.85"/><polygon class="cls-4" points="683.07 366.85 786.4 444.36 786.4 289.34 683.07 366.85"/><polygon class="cls-56" points="683.07 212.71 683.07 367.73 786.4 290.22 683.07 212.71"/><polygon class="cls-79" points="683.07 212.71 786.4 290.22 786.4 135.2 683.07 212.71"/><polygon class="cls-87" points="683.07 4374.41 683.07 4529.43 786.4 4451.92 683.07 4374.41"/><polygon class="cls-95" points="683.07 4374.41 786.4 4451.92 786.4 4296.9 683.07 4374.41"/><polygon class="cls-68" points="683.07 4220.27 683.07 4375.29 786.4 4297.78 683.07 4220.27"/><polygon class="cls-88" points="683.07 4220.27 786.4 4297.78 786.4 4142.76 683.07 4220.27"/><polygon class="cls-38" points="683.07 4066.13 683.07 4221.15 786.4 4143.64 683.07 4066.13"/><polygon class="cls-29" points="683.07 4066.13 786.4 4143.64 786.4 3988.63 683.07 4066.13"/><polygon class="cls-60" points="683.07 3912 683.07 4067.01 786.4 3989.51 683.07 3912"/><polygon class="cls-57" points="683.07 3912 786.4 3989.51 786.4 3834.49 683.07 3912"/><polygon class="cls-114" points="683.07 3757.86 683.07 3912.88 786.4 3835.37 683.07 3757.86"/><polygon class="cls-114" points="683.07 3757.86 786.4 3835.37 786.4 3680.35 683.07 3757.86"/><polygon class="cls-81" points="683.07 3142.19 683.07 2987.18 786.4 3064.68 683.07 3142.19"/><polygon class="cls-104" points="683.07 3142.19 786.4 3064.68 786.4 3219.7 683.07 3142.19"/><polygon class="cls-32" points="683.07 3296.33 683.07 3141.31 786.4 3218.82 683.07 3296.33"/><polygon class="cls-73" points="683.07 3296.33 786.4 3218.82 786.4 3373.84 683.07 3296.33"/><polygon class="cls-103" points="683.07 3450.47 683.07 3295.45 786.4 3372.96 683.07 3450.47"/><polygon class="cls-116" points="683.07 3450.47 786.4 3372.96 786.4 3527.97 683.07 3450.47"/><polygon class="cls-90" points="683.07 3604.6 683.07 3449.59 786.4 3527.1 683.07 3604.6"/><polygon class="cls-10" points="683.07 3604.6 786.4 3527.1 786.4 3682.11 683.07 3604.6"/><polygon class="cls-69" points="683.07 3758.74 683.07 3603.72 786.4 3681.23 683.07 3758.74"/><polygon class="cls-32" points="-34.49 3064.68 68.84 2987.18 -34.49 2909.67 -34.49 3064.68"/><polygon class="cls-9" points="-34.49 2910.55 68.84 2833.04 -34.49 2755.53 -34.49 2910.55"/><polygon class="cls-73" points="68.84 2988.06 68.84 2833.04 -34.49 2910.55 68.84 2988.06"/><polygon class="cls-51" points="-34.49 2756.41 68.84 2678.9 -34.49 2601.39 -34.49 2756.41"/><polygon class="cls-25" points="68.84 2833.92 68.84 2678.9 -34.49 2756.41 68.84 2833.92"/><polygon class="cls-53" points="-34.49 2602.27 68.84 2524.77 -34.49 2447.26 -34.49 2602.27"/><polygon class="cls-99" points="68.84 2679.78 68.84 2524.77 -34.49 2602.27 68.84 2679.78"/><polygon class="cls-63" points="-34.49 2448.14 68.84 2370.63 -34.49 2293.12 -34.49 2448.14"/><polygon class="cls-98" points="68.84 2525.65 68.84 2370.63 -34.49 2448.14 68.84 2525.65"/><polygon class="cls-19" points="68.84 2987.18 172.17 3064.68 172.17 2909.67 68.84 2987.18"/><polygon class="cls-65" points="172.17 3064.68 275.5 2987.18 172.17 2909.67 172.17 3064.68"/><polygon class="cls-92" points="68.84 2833.04 68.84 2988.06 172.17 2910.55 68.84 2833.04"/><polygon class="cls-19" points="68.84 2833.04 172.17 2910.55 172.17 2755.53 68.84 2833.04"/><polygon class="cls-109" points="172.17 2910.55 275.5 2833.04 172.17 2755.53 172.17 2910.55"/><polygon class="cls-74" points="275.5 2988.06 275.5 2833.04 172.17 2910.55 275.5 2988.06"/><polygon class="cls-20" points="68.84 2678.9 68.84 2833.92 172.17 2756.41 68.84 2678.9"/><polygon class="cls-47" points="68.84 2678.9 172.17 2756.41 172.17 2601.39 68.84 2678.9"/><polygon class="cls-51" points="172.17 2756.41 275.5 2678.9 172.17 2601.39 172.17 2756.41"/><polygon class="cls-31" points="275.5 2833.92 275.5 2678.9 172.17 2756.41 275.5 2833.92"/><polygon class="cls-93" points="68.84 2524.77 68.84 2679.78 172.17 2602.27 68.84 2524.77"/><polygon class="cls-42" points="68.84 2524.77 172.17 2602.27 172.17 2447.26 68.84 2524.77"/><polygon class="cls-53" points="172.17 2602.27 275.5 2524.77 172.17 2447.26 172.17 2602.27"/><polygon class="cls-99" points="275.5 2679.78 275.5 2524.77 172.17 2602.27 275.5 2679.78"/><polygon class="cls-113" points="68.84 2370.63 68.84 2525.65 172.17 2448.14 68.84 2370.63"/><polygon class="cls-72" points="68.84 2370.63 172.17 2448.14 172.17 2293.12 68.84 2370.63"/><polygon class="cls-63" points="172.17 2448.14 275.5 2370.63 172.17 2293.12 172.17 2448.14"/><polygon class="cls-98" points="275.5 2525.65 275.5 2370.63 172.17 2448.14 275.5 2525.65"/><polygon class="cls-94" points="273.58 2987.18 376.91 3064.68 376.91 2909.67 273.58 2987.18"/><polygon class="cls-111" points="376.91 3064.68 480.24 2987.18 376.91 2909.67 376.91 3064.68"/><polygon class="cls-92" points="273.58 2833.04 273.58 2988.06 376.91 2910.55 273.58 2833.04"/><polygon class="cls-19" points="273.58 2833.04 376.91 2910.55 376.91 2755.53 273.58 2833.04"/><polygon class="cls-109" points="376.91 2910.55 480.24 2833.04 376.91 2755.53 376.91 2910.55"/><polygon class="cls-48" points="480.24 2988.06 480.24 2833.04 376.91 2910.55 480.24 2988.06"/><polygon class="cls-20" points="273.58 2678.9 273.58 2833.92 376.91 2756.41 273.58 2678.9"/><polygon class="cls-47" points="273.58 2678.9 376.91 2756.41 376.91 2601.39 273.58 2678.9"/><polygon class="cls-51" points="376.91 2756.41 480.24 2678.9 376.91 2601.39 376.91 2756.41"/><polygon class="cls-31" points="480.24 2833.92 480.24 2678.9 376.91 2756.41 480.24 2833.92"/><polygon class="cls-93" points="273.58 2524.77 273.58 2679.78 376.91 2602.27 273.58 2524.77"/><polygon class="cls-42" points="273.58 2524.77 376.91 2602.27 376.91 2447.26 273.58 2524.77"/><polygon class="cls-53" points="376.91 2602.27 480.24 2524.77 376.91 2447.26 376.91 2602.27"/><polygon class="cls-99" points="480.24 2679.78 480.24 2524.77 376.91 2602.27 480.24 2679.78"/><polygon class="cls-113" points="273.58 2370.63 273.58 2525.65 376.91 2448.14 273.58 2370.63"/><polygon class="cls-72" points="273.58 2370.63 376.91 2448.14 376.91 2293.12 273.58 2370.63"/><polygon class="cls-53" points="376.91 2448.14 480.24 2370.63 376.91 2293.12 376.91 2448.14"/><polygon class="cls-63" points="480.24 2525.65 480.24 2370.63 376.91 2448.14 480.24 2525.65"/><polygon class="cls-94" points="478.33 2987.18 581.66 3064.68 581.66 2909.67 478.33 2987.18"/><polygon class="cls-111" points="581.66 3064.68 684.99 2987.18 581.66 2909.67 581.66 3064.68"/><polygon class="cls-19" points="478.33 2833.04 478.33 2988.06 581.66 2910.55 478.33 2833.04"/><polygon class="cls-19" points="478.33 2833.04 581.66 2910.55 581.66 2755.53 478.33 2833.04"/><polygon class="cls-109" points="581.66 2910.55 684.99 2833.04 581.66 2755.53 581.66 2910.55"/><polygon class="cls-48" points="684.99 2988.06 684.99 2833.04 581.66 2910.55 684.99 2988.06"/><polygon class="cls-20" points="478.33 2678.9 478.33 2833.92 581.66 2756.41 478.33 2678.9"/><polygon class="cls-47" points="478.33 2678.9 581.66 2756.41 581.66 2601.39 478.33 2678.9"/><polygon class="cls-51" points="581.66 2756.41 684.99 2678.9 581.66 2601.39 581.66 2756.41"/><polygon class="cls-31" points="684.99 2833.92 684.99 2678.9 581.66 2756.41 684.99 2833.92"/><polygon class="cls-93" points="478.33 2524.77 478.33 2679.78 581.66 2602.27 478.33 2524.77"/><polygon class="cls-98" points="478.33 2524.77 581.66 2602.27 581.66 2447.26 478.33 2524.77"/><polygon class="cls-63" points="581.66 2602.27 684.99 2524.77 581.66 2447.26 581.66 2602.27"/><polygon class="cls-99" points="684.99 2679.78 684.99 2524.77 581.66 2602.27 684.99 2679.78"/><polygon class="cls-42" points="478.33 2370.63 478.33 2525.65 581.66 2448.14 478.33 2370.63"/><polygon class="cls-117" points="478.33 2370.63 581.66 2448.14 581.66 2293.12 478.33 2370.63"/><polygon class="cls-53" points="581.66 2448.14 684.99 2370.63 581.66 2293.12 581.66 2448.14"/><polygon class="cls-63" points="684.99 2525.65 684.99 2370.63 581.66 2448.14 684.99 2525.65"/><polygon class="cls-94" points="683.07 2987.18 786.4 3064.68 786.4 2909.67 683.07 2987.18"/><polygon class="cls-19" points="683.07 2833.04 683.07 2988.06 786.4 2910.55 683.07 2833.04"/><polygon class="cls-19" points="683.07 2833.04 786.4 2910.55 786.4 2755.53 683.07 2833.04"/><polygon class="cls-20" points="683.07 2678.9 683.07 2833.92 786.4 2756.41 683.07 2678.9"/><polygon class="cls-47" points="683.07 2678.9 786.4 2756.41 786.4 2601.39 683.07 2678.9"/><polygon class="cls-61" points="683.07 2524.77 683.07 2679.78 786.4 2602.27 683.07 2524.77"/><polygon class="cls-34" points="683.07 2524.77 786.4 2602.27 786.4 2447.26 683.07 2524.77"/><polygon class="cls-7" points="683.07 2370.63 683.07 2525.65 786.4 2448.14 683.07 2370.63"/><polygon class="cls-96" points="683.07 2370.63 786.4 2448.14 786.4 2293.12 683.07 2370.63"/></g><polygon class="cls-22" points="1183.01 4212.28 374.16 4512.18 -433.01 4212.28 -433.01 -1338.55 1183.01 -1338.55 1183.01 4212.28"/></g></g></g></svg>