<?xml version="1.0" encoding="UTF-8"?><svg id="Layer_2" xmlns="http://www.w3.org/2000/svg" xmlns:xlink="http://www.w3.org/1999/xlink" viewBox="0 0 690.26 3096.86"><defs><style>.cls-1{fill:#fff;}.cls-2{fill:url(#_称未設定グラデーション_34);}</style><linearGradient id="_称未設定グラデーション_34" x1="345.13" y1="0" x2="345.13" y2="3096.86" gradientTransform="matrix(1, 0, 0, 1, 0, 0)" gradientUnits="userSpaceOnUse"><stop offset="0" stop-color="#f9f8f6"/><stop offset=".02" stop-color="#f8f5ef"/><stop offset=".22" stop-color="#f6e0b4"/><stop offset=".41" stop-color="#f4ce83"/><stop offset=".58" stop-color="#f2c05c"/><stop offset=".75" stop-color="#f1b741"/><stop offset=".89" stop-color="#f1b130"/><stop offset="1" stop-color="#f1af2b"/></linearGradient></defs><g id="upward_lp"><g><path class="cls-1" d="M671.13,2965.93l-320.26,126.29c-3.75,1.5-7.72,1.52-11.48,.05l-320.12-126.44c-9.23-3.6-15.61-7.79-15.61-21.29V33.51C3.65,16.93,16.04,3.5,33.07,3.5H656.42c18.97,0,30.2,13.44,30.2,30.01V2944.7c0,13.42-6.32,17.58-15.49,21.23Z"/><path class="cls-2" d="M345.07,3096.86c-2.37,0-4.74-.45-7.05-1.35l-320.14-126.44c-9.04-3.52-17.87-8.32-17.87-24.52V33.51C0,14.72,14.53,0,33.07,0H656.42c19.93,0,33.85,13.78,33.85,33.51V2944.7c0,16.04-8.76,20.88-17.73,24.47h-.02l-320.26,126.29c-2.35,.94-4.76,1.41-7.19,1.41ZM33.07,7c-14.7,0-25.78,11.4-25.78,26.51V2944.55c0,10.99,4.12,14.45,13.34,18.04l320.14,126.44c2.84,1.11,5.85,1.09,8.69-.04l320.28-126.29c7.99-3.19,13.23-6.17,13.23-18V33.51c0-13.19-8.21-26.51-26.55-26.51H33.07Z"/></g></g></svg>